M48
;Layer_Color=9474304
;FILE_FORMAT=2:4
INCH,LZ
;TYPE=PLATED
T1F00S00C0.0130
T2F00S00C0.0160
T3F00S00C0.0354
T4F00S00C0.0512
T5F00S00C0.0630
%
T01
X004128Y0075
Y007972
X0046Y007972
Y0075
X004386Y011464
Y011936
X003914
X00395Y0115
T02
X00035Y0006
X00098Y00059
X0037Y00045
X00306Y0028
X00324Y00352
X0035Y0042
X00285
X00345Y00485
X00185Y0045
X0023Y0025
X00534Y00313
X00555Y00094
X00625Y00035
X00635Y00145
X0073Y00175
X00708Y00078
X00741Y00498
X00675Y0053
X0061Y00525
X0059Y0058
X00646Y00572
X0066Y00625
X00645Y00665
Y0071
X00639Y00814
X0064Y0086
X0056Y0092
X00565Y01
X00606Y01028
X00625Y01082
X00633Y0112
X0065Y01235
X00732Y01213
X00702Y01348
X0066Y01375
X00735Y0139
X0076Y0145
X00725Y01635
X0075Y0167
X00755Y01745
Y0183
Y01885
X00752Y01976
X00755Y02045
X00655Y02007
X0062Y01974
X00687Y01967
X0056Y0196
X00595Y02024
X00499Y01902
X00501Y01674
X00515Y0163
X005406Y01568
X00555Y0153
X00615Y01535
X00625Y01575
X00665Y01605
X00668Y01651
X0066Y017
X00707Y01707
X00615Y0174
X00605Y01635
X00505Y0147
X0047Y01385
X0054Y0136
X0053Y0125
X0066Y00982
X00705
X00744Y00728
X0075Y00656
X0029Y00635
X003Y00586
X0026Y00555
X00274Y00514
X00236Y00597
X0021Y00675
X00265Y00695
X0024Y00925
X0023Y00965
X0028Y0099
X0029Y0103
X00305Y01075
X00365Y01055
X00373Y010115
X00335Y01
X0036Y0093
X00395Y0096
X00225Y01045
X00235Y011
X0023Y01155
X00225Y01215
X0022Y01395
Y01465
X00175Y01485
X00195Y0154
X00235Y0158
X00315Y01565
X00345Y0161
X00455Y01605
X0046Y01716
X00425Y0175
X00455Y01795
X00425Y0186
X00385Y0185
X0032Y01835
Y018
X00311Y01729
X00355Y0173
X00233Y01687
X00155Y0169
X00115Y0173
X0011Y0177
X00035Y0185
Y01895
X00045Y0195
X00102Y01942
X0016Y0195
X00151Y02019
X002Y02003
Y0188
X00087Y01993
X00105Y02042
X0004Y0202
X0008Y0163
X0016Y01615
X00131Y01407
X0013Y01371
X0008Y01385
X00082Y01423
X00025Y0144
X0003Y01485
Y01175
X00125Y01125
X0029Y01405
X0032Y0145
X00392Y01477
X0046Y01475
X00405Y01535
X0041Y01395
X00416Y02082
X00415Y0213
X00371Y02113
X00176Y02126
X00172Y02073
X00125Y02103
X0005Y0207
X00465Y02125
X00539Y02114
X006Y0211
X00595Y02058
X00644Y02056
X00704Y02053
X00672Y02103
X00752Y02098
T03
X00068Y00148
Y00248
Y00348
Y00448
Y00548
Y00648
X0006Y00815
X0016
T04
X00695Y01285
Y015409
T05
X004298Y001181
X00432Y003543
M30
