%FSLAX24Y24*%
%MOIN*%
G70*
G01*
G75*
G04 Layer_Color=8421504*
%ADD10C,0.0197*%
%ADD11C,0.0276*%
%ADD12R,0.0250X0.0200*%
%ADD13R,0.0827X0.0689*%
%ADD14R,0.1142X0.0689*%
%ADD15R,0.1142X0.0886*%
%ADD16R,0.0433X0.0236*%
%ADD17R,0.0300X0.0300*%
%ADD18R,0.0300X0.0300*%
%ADD19R,0.0236X0.0433*%
%ADD20R,0.0335X0.1693*%
%ADD21R,0.0200X0.0250*%
%ADD22C,0.0472*%
%ADD23R,0.1102X0.1102*%
%ADD24O,0.0256X0.0138*%
%ADD25O,0.0138X0.0256*%
%ADD26R,0.0591X0.0512*%
%ADD27R,0.0320X0.0300*%
%ADD28R,0.1024X0.1024*%
%ADD29O,0.0098X0.0276*%
%ADD30O,0.0276X0.0098*%
%ADD31R,0.0433X0.0472*%
%ADD32R,0.0354X0.0110*%
%ADD33R,0.0110X0.0354*%
%ADD34R,0.0110X0.0354*%
%ADD35R,0.0512X0.0591*%
%ADD36C,0.0250*%
%ADD37C,0.0150*%
%ADD38C,0.0100*%
%ADD39C,0.0300*%
%ADD40C,0.0400*%
%ADD41C,0.0200*%
%ADD42C,0.0080*%
%ADD43C,0.0350*%
%ADD44C,0.0120*%
%ADD45C,0.0059*%
%ADD46C,0.0500*%
%ADD47C,0.0060*%
%ADD48R,0.0579X0.0630*%
%ADD49R,0.0190X0.0515*%
%ADD50R,0.1180X0.0320*%
%ADD51R,0.0595X0.1290*%
%ADD52R,0.0400X0.0900*%
%ADD53R,0.1029X0.0407*%
%ADD54R,0.0550X0.1050*%
%ADD55R,0.0879X0.3300*%
%ADD56R,0.0570X0.1500*%
%ADD57C,0.0787*%
%ADD58C,0.0866*%
%ADD59R,0.0591X0.0591*%
%ADD60C,0.0591*%
%ADD61R,0.0591X0.0591*%
%ADD62C,0.0320*%
%ADD63C,0.0260*%
%ADD64R,0.1400X0.1000*%
%ADD65C,0.0098*%
%ADD66C,0.0039*%
%ADD67C,0.0079*%
%ADD68C,0.0050*%
%ADD69C,0.0043*%
D10*
X1365Y9470D02*
X1641Y9470D01*
X1365Y9352D02*
X1641D01*
X1365Y10730D02*
X1680Y10730D01*
X1365Y10848D02*
X1601D01*
X459Y10691D02*
X735D01*
X381Y10848D02*
X735D01*
X459Y9509D02*
X735Y9509D01*
X420Y9352D02*
X735D01*
D11*
X1413Y9576D02*
G03*
X1413Y10624I-363J524D01*
G01*
X687D02*
G03*
X687Y9576I363J-524D01*
G01*
D12*
X7400Y8330D02*
D03*
X6900D02*
D03*
X6100Y6650D02*
D03*
X5600D02*
D03*
X2610Y19310D02*
D03*
X2110D02*
D03*
X1550Y18850D02*
D03*
X1050Y18850D02*
D03*
X5090Y19900D02*
D03*
X4590D02*
D03*
X4400Y19560D02*
D03*
X3900D02*
D03*
X3200Y19910D02*
D03*
X3700D02*
D03*
X2750Y20790D02*
D03*
X2250D02*
D03*
X6370Y19270D02*
D03*
X6870Y19270D02*
D03*
X7070Y17370D02*
D03*
X6570D02*
D03*
X5090Y20240D02*
D03*
X5590D02*
D03*
X5090Y20580D02*
D03*
X5590D02*
D03*
X1550Y17360D02*
D03*
X2050D02*
D03*
X1550Y17710D02*
D03*
X2050D02*
D03*
X2200Y21270D02*
D03*
X2700D02*
D03*
X6810Y10760D02*
D03*
X7310D02*
D03*
D13*
X1970Y3550D02*
D03*
D14*
X1820Y1100D02*
D03*
D15*
X6570Y3700D02*
D03*
D16*
X1722Y11776D02*
D03*
Y12150D02*
D03*
Y12524D02*
D03*
X778D02*
D03*
Y12150D02*
D03*
Y11776D02*
D03*
D17*
X6000Y8080D02*
D03*
Y8620D02*
D03*
Y7080D02*
D03*
Y7620D02*
D03*
D18*
X6170Y6250D02*
D03*
X5630D02*
D03*
X6780Y11200D02*
D03*
X7320D02*
D03*
X780Y13050D02*
D03*
X1320Y13050D02*
D03*
X780Y13500D02*
D03*
X1320D02*
D03*
X920Y11250D02*
D03*
X380D02*
D03*
X6840Y8770D02*
D03*
X7380D02*
D03*
X1440Y8960D02*
D03*
X900D02*
D03*
D19*
X7324Y10292D02*
D03*
X6950D02*
D03*
X6576D02*
D03*
X6576Y9348D02*
D03*
X6950D02*
D03*
X7324Y9348D02*
D03*
D20*
X371Y10100D02*
D03*
X1729D02*
D03*
D21*
X350Y12200D02*
D03*
Y12700D02*
D03*
X1900Y13450D02*
D03*
Y13950D02*
D03*
X6050Y9370D02*
D03*
Y9870D02*
D03*
X5300Y11700D02*
D03*
X5300Y12200D02*
D03*
X4350Y13000D02*
D03*
Y13500D02*
D03*
X4000Y13000D02*
D03*
Y13500D02*
D03*
X1640Y4900D02*
D03*
Y5400D02*
D03*
X5500Y5800D02*
D03*
Y5300D02*
D03*
X3600Y5400D02*
D03*
Y5900D02*
D03*
X4856Y8944D02*
D03*
X4856Y9444D02*
D03*
X4500Y8950D02*
D03*
X4500Y9450D02*
D03*
X3200Y8150D02*
D03*
Y8650D02*
D03*
X5600Y8050D02*
D03*
Y8550D02*
D03*
Y7100D02*
D03*
Y7600D02*
D03*
X5770Y18470D02*
D03*
Y18970D02*
D03*
Y18070D02*
D03*
Y17570D02*
D03*
X4590Y20280D02*
D03*
Y20780D02*
D03*
X2800Y19910D02*
D03*
Y20410D02*
D03*
X3710Y20780D02*
D03*
Y20280D02*
D03*
X5200Y8950D02*
D03*
Y9450D02*
D03*
X350Y13650D02*
D03*
Y13150D02*
D03*
D23*
X4150Y11700D02*
D03*
D24*
X4947Y12084D02*
D03*
Y11828D02*
D03*
Y11572D02*
D03*
Y11316D02*
D03*
X3353D02*
D03*
Y11572D02*
D03*
Y11828D02*
D03*
Y12084D02*
D03*
D25*
X4534Y10903D02*
D03*
X4278D02*
D03*
X4022D02*
D03*
X3766D02*
D03*
Y12497D02*
D03*
X4022D02*
D03*
X4278D02*
D03*
X4534D02*
D03*
D26*
X4164Y5386D02*
D03*
X4164Y6134D02*
D03*
X4914Y5386D02*
D03*
Y6134D02*
D03*
D27*
X1640Y6430D02*
D03*
X1640Y5880D02*
D03*
D28*
X4364Y7736D02*
D03*
D29*
X4856Y6949D02*
D03*
X4659D02*
D03*
X4462D02*
D03*
X4265D02*
D03*
X4069D02*
D03*
X3872D02*
D03*
Y8524D02*
D03*
X4069D02*
D03*
X4265D02*
D03*
X4462D02*
D03*
X4659D02*
D03*
X4856D02*
D03*
D30*
X3576Y7244D02*
D03*
Y7441D02*
D03*
Y7638D02*
D03*
X3576Y7835D02*
D03*
X3576Y8031D02*
D03*
Y8228D02*
D03*
X5151D02*
D03*
Y8031D02*
D03*
Y7835D02*
D03*
Y7638D02*
D03*
Y7441D02*
D03*
Y7244D02*
D03*
D31*
X6449Y17880D02*
D03*
X7151D02*
D03*
X6451Y18820D02*
D03*
X7151D02*
D03*
D32*
X2702Y17900D02*
D03*
Y18294D02*
D03*
Y18688D02*
D03*
X4998Y18688D02*
D03*
X2702Y17113D02*
D03*
Y18097D02*
D03*
Y17310D02*
D03*
Y17506D02*
D03*
Y17703D02*
D03*
Y18491D02*
D03*
X4998D02*
D03*
Y17703D02*
D03*
Y17506D02*
D03*
Y18294D02*
D03*
Y18097D02*
D03*
Y17900D02*
D03*
Y17310D02*
D03*
Y17113D02*
D03*
D33*
X4647Y19058D02*
D03*
Y16762D02*
D03*
X3072Y16762D02*
D03*
X4450Y16762D02*
D03*
X3663Y16762D02*
D03*
X3466D02*
D03*
X4254D02*
D03*
X4057D02*
D03*
X3860D02*
D03*
X3072Y19058D02*
D03*
X3860D02*
D03*
X4057D02*
D03*
X3269D02*
D03*
X3466D02*
D03*
X3663D02*
D03*
X4254D02*
D03*
X4450Y19058D02*
D03*
D34*
X3269Y16762D02*
D03*
D35*
X1202Y18260D02*
D03*
X1950D02*
D03*
D45*
X1296Y10602D02*
Y10917D01*
X1611D01*
X804Y10641D02*
Y10917D01*
X489D02*
X804D01*
Y9283D02*
Y9598D01*
X450Y9283D02*
X804D01*
X1296D02*
Y9598D01*
Y9283D02*
X1650D01*
M02*
