%FSLAX24Y24*%
%MOIN*%
G70*
G01*
G75*
G04 Layer_Color=16711935*
%ADD10C,0.0197*%
%ADD11C,0.0276*%
%ADD12R,0.0250X0.0200*%
%ADD13R,0.0827X0.0689*%
%ADD14R,0.1142X0.0689*%
%ADD15R,0.1142X0.0886*%
%ADD16R,0.0433X0.0236*%
%ADD17R,0.0300X0.0300*%
%ADD18R,0.0300X0.0300*%
%ADD19R,0.0236X0.0433*%
%ADD20R,0.0335X0.1693*%
%ADD21R,0.0200X0.0250*%
%ADD22C,0.0472*%
%ADD23R,0.1102X0.1102*%
%ADD24O,0.0256X0.0138*%
%ADD25O,0.0138X0.0256*%
%ADD26R,0.0591X0.0512*%
%ADD27R,0.0320X0.0300*%
%ADD28R,0.1024X0.1024*%
%ADD29O,0.0098X0.0276*%
%ADD30O,0.0276X0.0098*%
%ADD31R,0.0433X0.0472*%
%ADD32R,0.0354X0.0110*%
%ADD33R,0.0110X0.0354*%
%ADD34R,0.0110X0.0354*%
%ADD35R,0.0512X0.0591*%
%ADD36C,0.0250*%
%ADD37C,0.0150*%
%ADD38C,0.0100*%
%ADD39C,0.0300*%
%ADD40C,0.0400*%
%ADD41C,0.0200*%
%ADD42C,0.0080*%
%ADD43C,0.0350*%
%ADD44C,0.0120*%
%ADD45C,0.0059*%
%ADD46C,0.0500*%
%ADD47C,0.0060*%
%ADD48R,0.0579X0.0630*%
%ADD49R,0.0190X0.0515*%
%ADD50R,0.1180X0.0320*%
%ADD51R,0.0595X0.1290*%
%ADD52R,0.0400X0.0900*%
%ADD53R,0.1029X0.0407*%
%ADD54R,0.0550X0.1050*%
%ADD55R,0.0879X0.3300*%
%ADD56R,0.0570X0.1500*%
%ADD57C,0.0787*%
%ADD58C,0.0866*%
%ADD59R,0.0591X0.0591*%
%ADD60C,0.0591*%
%ADD61R,0.0591X0.0591*%
%ADD62C,0.0320*%
%ADD63C,0.0260*%
%ADD64R,0.1400X0.1000*%
%ADD65C,0.0098*%
%ADD66C,0.0039*%
%ADD67C,0.0079*%
%ADD68C,0.0050*%
%ADD69C,0.0043*%
%ADD70C,0.0394*%
%ADD71R,0.0330X0.0280*%
%ADD72R,0.0907X0.0769*%
%ADD73R,0.1222X0.0769*%
%ADD74R,0.1222X0.0966*%
%ADD75R,0.0513X0.0316*%
%ADD76R,0.0380X0.0380*%
%ADD77R,0.0380X0.0380*%
%ADD78R,0.0316X0.0513*%
%ADD79R,0.0415X0.1773*%
%ADD80R,0.0280X0.0330*%
%ADD81C,0.0552*%
%ADD82R,0.1182X0.1182*%
%ADD83O,0.0336X0.0218*%
%ADD84O,0.0218X0.0336*%
%ADD85R,0.0671X0.0592*%
%ADD86R,0.0400X0.0380*%
%ADD87R,0.1104X0.1104*%
%ADD88O,0.0178X0.0356*%
%ADD89O,0.0356X0.0178*%
%ADD90R,0.0513X0.0552*%
%ADD91R,0.0434X0.0190*%
%ADD92R,0.0190X0.0434*%
%ADD93R,0.0190X0.0434*%
%ADD94R,0.0592X0.0671*%
%ADD95C,0.0867*%
%ADD96C,0.0946*%
%ADD97R,0.0671X0.0671*%
%ADD98C,0.0671*%
%ADD99R,0.0671X0.0671*%
%ADD100C,0.0400*%
%ADD101C,0.0340*%
D70*
X1348Y15600D02*
G03*
X1348Y15600I-197J0D01*
G01*
X7527Y5670D02*
G03*
X7527Y5670I-197J0D01*
G01*
D95*
X6950Y12850D02*
D03*
Y15409D02*
D03*
D96*
X4320Y3543D02*
D03*
X4298Y1181D02*
D03*
D97*
X680Y1480D02*
D03*
D98*
Y2480D02*
D03*
Y3480D02*
D03*
Y4480D02*
D03*
Y5480D02*
D03*
Y6480D02*
D03*
X600Y8150D02*
D03*
D99*
X1600D02*
D03*
D100*
X6060Y10280D02*
D03*
X6680Y16510D02*
D03*
X7020Y13480D02*
D03*
X7440Y7280D02*
D03*
X5340Y3130D02*
D03*
X5550Y940D02*
D03*
X3060Y2800D02*
D03*
X3240Y3520D02*
D03*
X3920Y14770D02*
D03*
X5300Y12500D02*
D03*
X1300Y13710D02*
D03*
X820Y14230D02*
D03*
X6390Y8140D02*
D03*
X1310Y14070D02*
D03*
X6250Y350D02*
D03*
X3700Y450D02*
D03*
X4550Y16050D02*
D03*
X5050Y14700D02*
D03*
X4600Y14750D02*
D03*
X2250Y10450D02*
D03*
X2350Y11000D02*
D03*
X2300Y11550D02*
D03*
X7050Y9820D02*
D03*
X6600D02*
D03*
X1250Y11250D02*
D03*
X2800Y9900D02*
D03*
X2900Y10300D02*
D03*
X3650Y10550D02*
D03*
X3050Y10750D02*
D03*
X4700Y13850D02*
D03*
X6330Y11200D02*
D03*
X7320Y12130D02*
D03*
X3450Y16100D02*
D03*
X3150Y15650D02*
D03*
X3350Y10000D02*
D03*
X3600Y9300D02*
D03*
X6250Y10820D02*
D03*
X5650Y10000D02*
D03*
X5400Y13600D02*
D03*
X4100Y13950D02*
D03*
X2250Y12150D02*
D03*
X6400Y8600D02*
D03*
X5600Y9200D02*
D03*
X2650Y6950D02*
D03*
X300Y14850D02*
D03*
Y11750D02*
D03*
X250Y14400D02*
D03*
X800Y13850D02*
D03*
X2200Y13950D02*
D03*
X2000Y18800D02*
D03*
X6450Y7100D02*
D03*
X6600Y6250D02*
D03*
X6450Y6650D02*
D03*
X2900Y14050D02*
D03*
X3200Y14500D02*
D03*
X2300Y9650D02*
D03*
X3730Y10115D02*
D03*
X500Y20700D02*
D03*
X6600Y17000D02*
D03*
X1150Y17300D02*
D03*
X7500Y6560D02*
D03*
Y16700D02*
D03*
X7550Y17450D02*
D03*
Y18300D02*
D03*
Y18850D02*
D03*
X2100Y6750D02*
D03*
X1950Y15400D02*
D03*
X980Y590D02*
D03*
X7550Y20450D02*
D03*
X450Y19500D02*
D03*
X1050Y20420D02*
D03*
X7520Y20980D02*
D03*
X6000Y21100D02*
D03*
X4150Y21300D02*
D03*
X3500Y4200D02*
D03*
X2850D02*
D03*
X6750Y5300D02*
D03*
X6100Y5250D02*
D03*
X2300Y2500D02*
D03*
X350Y600D02*
D03*
X7300Y1750D02*
D03*
X7080Y780D02*
D03*
X7410Y4980D02*
D03*
X6460Y5720D02*
D03*
X2740Y5140D02*
D03*
X3000Y5860D02*
D03*
X2360Y5970D02*
D03*
X7600Y14500D02*
D03*
X1600Y16150D02*
D03*
X2200Y14650D02*
D03*
X400Y20200D02*
D03*
X1600Y19500D02*
D03*
X1510Y20190D02*
D03*
X7520Y19760D02*
D03*
X6200Y19740D02*
D03*
X6720Y21030D02*
D03*
X7070Y17070D02*
D03*
X5900Y5800D02*
D03*
X800Y16300D02*
D03*
X2330Y16870D02*
D03*
X5010Y16740D02*
D03*
X6870Y19670D02*
D03*
X7250Y16350D02*
D03*
X4990Y19020D02*
D03*
X4550Y17950D02*
D03*
X4600Y17160D02*
D03*
X4250Y17500D02*
D03*
Y18600D02*
D03*
X3850Y18500D02*
D03*
X350D02*
D03*
X1550Y16900D02*
D03*
X1100Y17700D02*
D03*
X1020Y19420D02*
D03*
X350Y18950D02*
D03*
X4160Y20820D02*
D03*
X5950Y20580D02*
D03*
X4650Y21250D02*
D03*
X1250Y21030D02*
D03*
X2000Y20030D02*
D03*
X1720Y20730D02*
D03*
X6440Y20560D02*
D03*
X5950Y20240D02*
D03*
X5600Y19600D02*
D03*
X5390Y21140D02*
D03*
X6550Y20070D02*
D03*
X870Y19930D02*
D03*
X3710Y21130D02*
D03*
X6500Y12350D02*
D03*
X6150Y17400D02*
D03*
X6250Y15750D02*
D03*
X2900Y6350D02*
D03*
X2600Y5550D02*
D03*
X7350Y13900D02*
D03*
X6350Y1450D02*
D03*
X1850Y4500D02*
D03*
X3450Y4850D02*
D03*
X6050Y16350D02*
D03*
X1750Y14850D02*
D03*
X6600Y13750D02*
D03*
X3200Y18350D02*
D03*
X2350Y15800D02*
D03*
X6150Y15350D02*
D03*
X5550Y15300D02*
D03*
X5406Y15680D02*
D03*
X6650Y16050D02*
D03*
X4050Y15350D02*
D03*
X2400Y9250D02*
D03*
X3950Y9600D02*
D03*
X3550Y17300D02*
D03*
X3200Y18000D02*
D03*
X3110Y17290D02*
D03*
X5150Y16300D02*
D03*
X1760Y21260D02*
D03*
X7040Y20530D02*
D03*
D101*
X3914Y11936D02*
D03*
X4386Y11464D02*
D03*
Y11936D02*
D03*
X4128Y7972D02*
D03*
X4600Y7972D02*
D03*
X4128Y7500D02*
D03*
X4600D02*
D03*
X3950Y11500D02*
D03*
M02*
