M48
;Layer_Color=9474304
;FILE_FORMAT=2:5
INCH,LZ
;TYPE=PLATED
T1F00S00C0.01299
T2F00S00C0.01600
T3F00S00C0.02756
T5F00S00C0.03543
T7F00S00C0.05118
T9F00S00C0.05906
%
T01
X01785Y0062276
X0183224
X0187949
Y0067
Y0071724
X0183224
X01785
Y0067
X0183
T02
X018Y0013
X01795Y0031
X0189Y0025
X01935
X0193224Y0041224
X01885Y0041
X01848Y00472
X01975Y0049
X02087Y00486
X02095Y00555
X0203Y0064
X0199Y00685
X01935Y0057
X02076Y00411
X0217Y00335
X022Y00295
X02245Y00325
X0224Y0026
X0228Y0029
X0232Y00325
X0229Y0036
X02215Y0037
X02355Y0038
X02358Y00435
X02415Y00425
X0245
X02525Y00385
X0253Y0033
X02525Y00275
X0254Y00185
Y0012
X02475Y00165
X02455Y0023
X02641Y00265
Y0035
Y0045
Y00525
Y006
X0264Y0068
Y0078
Y00865
Y00965
Y0104
Y01115
Y0121
Y0129
Y01365
Y0144
Y0152
X0253Y01525
Y01445
Y0137
X0243
Y01295
X02416Y01218
X02325Y01215
Y01295
X0227
X0224Y01215
X02245Y0106
X02183Y01065
X022025Y010275
X02165Y00985
X02245Y0095
X02305Y0099
X0231Y00875
X0233Y00805
X0239Y00755
X02388Y00704
X0239Y0065
X0235Y0061
X02362Y00543
X02515Y00557
X02513Y00652
X0253Y00785
X0247Y008
X0243Y00875
Y0097
Y01045
X02413Y0112
X02325
Y0137
Y01445
X0233Y01525
X02381Y01542
X0223Y01525
X02195Y01475
X0212Y01485
Y0153
X02064Y01462
X0199Y0142
X01955Y01385
X0188Y014
X01885Y0136
X01913Y01295
X0199Y0131
X0202Y0128
Y01355
X0214Y014
X0217Y01335
X02075Y01175
X02042Y01113
X01963Y01146
X0198Y01035
X0194Y0092
X019Y0093
X0186Y00925
X01815
X01765Y00915
X01798Y01122
Y01187
Y01247
X0176Y014375
X02075Y00945
X02105Y0089
X02025Y00885
X02155Y00785
X02195Y0074
X0226Y0073
X02265Y0064
X0253Y0087
X02641Y00165
X02335Y00115
X0234Y00055
X0224
X01735Y00045
X0166
X0164Y001
X0172Y00245
X01755Y0028
X0157Y00405
Y00455
X01608Y00512
X01645Y00555
X0163224Y0064724
X0159Y0066
X016Y00735
X014774Y007326
X01485Y00805
X01515Y009
X01585Y00905
X0158Y00865
X01707Y00915
X01718Y01122
Y01187
X0172Y0125
X01675
Y01285
Y0133
X01575Y01315
Y0124
Y01165
X01529Y01129
X0148Y01165
Y0124
Y01315
Y0139
X01395
Y01315
Y0124
Y01165
X01439Y01127
X01295Y01165
Y0124
Y01315
Y0139
Y01485
X01395
X0148
X0158
X01575Y0139
X01725Y015
X01195Y01485
X011
X0103307Y0152157
X0097207Y0146357
X0102Y014
X0092807Y0135657
X0093Y01285
X00895Y01315
X0086307Y0138657
X0089807Y0142157
X00806Y01406
X0081Y01361
X0081807Y0118157
X00885Y01135
X0093Y01156
X00984Y01143
X01001Y01225
X01119Y01223
X0114Y01185
X01113Y0113
X01128Y01076
X01145Y01005
X01123Y0097
X01185Y00975
X01244Y00987
X01221Y00871
X01183Y00881
X01119Y00897
X011304Y00852
X0103Y0086
X0106Y00895
X01034Y00931
X01065Y0096
X0108Y01005
X01022Y01013
X00979Y01014
X00931Y01013
X0095Y00935
X0099779Y009022
X00905Y0086
X00847Y00868
X00833Y01039
X00793Y01089
X00745Y01065
X00699Y01028
X00645Y01065
X0057Y011
X00505
X0044Y01095
X003Y0108
X0027Y01135
X00275Y0127
X0025Y01335
X00248Y01447
X0025Y0153
X0035
Y01445
Y0137
X0045
Y01455
Y0153
X0055
X00605Y01505
X0065Y0153
X0066807Y0143907
X00545Y0139
X0057Y01325
X00585Y01285
X0062807Y0125157
X0068Y01255
X0072807Y0123193
X00695Y01165
X0055Y0119
X0049236Y0129236
X0037Y0127
X0041Y00945
X005
X00495Y0085
X0041
Y0077
Y00695
Y0062
Y00525
X0051
X005Y00595
X0059Y00525
Y00485
X00645Y0055
X00672Y00633
X0073779Y006722
X0081Y0055
X00855Y00535
Y00455
Y00385
Y0029
Y0019
Y0009
X00985Y0009
Y0019
Y0029
Y00385
Y00455
X0108
Y00385
X0123Y0039
X01235Y00295
X01325
Y0041
X01405Y0041
X01325Y0054
X0148Y00565
X01475Y0062
X01684Y00652
X0124721Y006722
X0124Y0077
X0136Y0082
X01405Y0087
X01055Y00815
X00967Y00731
X0096Y0068
X0097Y00625
Y0055
X0104Y0054
X01125Y00495
X0134Y00175
X0144Y0019
Y0023
X01485
X01484Y0019
X00585Y00225
Y00295
X00495
Y00225
Y0015
X00585
X00415Y00225
X00325
X003Y0053
Y00625
Y007
Y00775
Y00855
X00225
Y00955
X003Y0095
X0024Y00735
X00555Y00817
X00595Y0085
X00635Y0082
X00605Y00945
X01045Y01045
X0109357Y0131857
X01195Y0131
X01202Y01247
X01195Y01385
X00125Y01325
X00108Y01124
X-00025Y0145
X-00105
Y0153
X-00025
X0005
X0016Y01535
X-00076Y00429
X-00104Y00348
X-00064Y00323
X-00024Y00263
X-00104
Y00163
X-00024
X-00025Y0159
Y01655
Y0172
X0005
Y01655
Y0159
X0015
Y01655
Y0172
X-00105
Y01655
Y0159
X0025
Y01655
Y0172
X0035
Y01655
Y0159
X0045
Y01655
Y0172
X0055
Y01655
Y0159
X0065
X0069807Y0160557
X0068307Y0155157
X0065Y01655
Y0172
X00815Y01715
X009
X01
X011
Y0164
Y01565
X01195
Y0164
Y01715
X01295
Y0164
Y01565
X01395
Y0164
Y01715
X0148
Y0164
Y01565
X0158
Y0164
Y01715
X0168
Y0164
Y01565
X01745Y01555
X01759Y0164
X0179Y01604
X0178Y01715
X01945
X02045
X02145
X0217Y0167
X02125Y01665
X0223Y01715
X0233
Y0165
Y01585
X0243
Y0165
Y01715
X0253
Y0165
Y01585
X0264Y0158
Y01645
Y0171
X0225Y01625
X01981Y01642
X01898Y0164
T03
X0199929Y0023382
X0206279Y0023157
X0209429Y0027882
X0202929
X0196831Y0027882
T05
X0216Y0044
Y0054
X02286
Y0044
X00014Y00485
Y00585
Y00685
Y00785
Y00885
Y00385
T07
X00325Y00125
Y0038091
T09
X02441Y00079
X0244Y01456
X00121Y01462
X00118Y00079
M30
