%FSLAX25Y25*%
%MOIN*%
G70*
G01*
G75*
G04 Layer_Color=65535*
%ADD10C,0.01969*%
%ADD11R,0.03000X0.03000*%
%ADD12R,0.02500X0.02000*%
%ADD13R,0.03000X0.03200*%
%ADD14O,0.05906X0.01378*%
%ADD15R,0.03000X0.03000*%
%ADD16R,0.05118X0.05906*%
%ADD17R,0.02000X0.02500*%
%ADD18R,0.01102X0.03543*%
%ADD19R,0.03543X0.01102*%
%ADD20R,0.01102X0.03543*%
%ADD21R,0.05906X0.05118*%
%ADD22R,0.02362X0.05709*%
%ADD23O,0.07087X0.01378*%
%ADD24O,0.02756X0.00787*%
%ADD25O,0.00787X0.02756*%
%ADD26R,0.14961X0.14961*%
%ADD27R,0.05709X0.02362*%
%ADD28R,0.04331X0.04724*%
%ADD29C,0.00800*%
%ADD30C,0.05000*%
%ADD31C,0.01500*%
%ADD32C,0.01000*%
%ADD33C,0.02000*%
%ADD34C,0.07500*%
%ADD35C,0.01200*%
%ADD36C,0.02500*%
%ADD37C,0.04000*%
%ADD38C,0.00600*%
%ADD39R,0.10000X0.10000*%
%ADD40R,0.09000X0.14000*%
%ADD41R,0.10500X0.11500*%
%ADD42R,0.85500X0.12500*%
%ADD43R,0.22500X0.12500*%
%ADD44R,0.02000X0.06500*%
%ADD45R,0.07000X0.18000*%
%ADD46R,0.08500X0.07000*%
%ADD47R,0.05906X0.05906*%
%ADD48C,0.05906*%
%ADD49C,0.07874*%
G04:AMPARAMS|DCode=50|XSize=157.48mil|YSize=74.8mil|CornerRadius=18.7mil|HoleSize=0mil|Usage=FLASHONLY|Rotation=0.000|XOffset=0mil|YOffset=0mil|HoleType=Round|Shape=RoundedRectangle|*
%AMROUNDEDRECTD50*
21,1,0.15748,0.03740,0,0,0.0*
21,1,0.12008,0.07480,0,0,0.0*
1,1,0.03740,0.06004,-0.01870*
1,1,0.03740,-0.06004,-0.01870*
1,1,0.03740,-0.06004,0.01870*
1,1,0.03740,0.06004,0.01870*
%
%ADD50ROUNDEDRECTD50*%
G04:AMPARAMS|DCode=51|XSize=118.11mil|YSize=62.99mil|CornerRadius=15.75mil|HoleSize=0mil|Usage=FLASHONLY|Rotation=270.000|XOffset=0mil|YOffset=0mil|HoleType=Round|Shape=RoundedRectangle|*
%AMROUNDEDRECTD51*
21,1,0.11811,0.03150,0,0,270.0*
21,1,0.08661,0.06299,0,0,270.0*
1,1,0.03150,-0.01575,-0.04331*
1,1,0.03150,-0.01575,0.04331*
1,1,0.03150,0.01575,0.04331*
1,1,0.03150,0.01575,-0.04331*
%
%ADD51ROUNDEDRECTD51*%
G04:AMPARAMS|DCode=52|XSize=106.3mil|YSize=66.93mil|CornerRadius=16.73mil|HoleSize=0mil|Usage=FLASHONLY|Rotation=90.000|XOffset=0mil|YOffset=0mil|HoleType=Round|Shape=RoundedRectangle|*
%AMROUNDEDRECTD52*
21,1,0.10630,0.03347,0,0,90.0*
21,1,0.07284,0.06693,0,0,90.0*
1,1,0.03346,0.01673,0.03642*
1,1,0.03346,0.01673,-0.03642*
1,1,0.03346,-0.01673,-0.03642*
1,1,0.03346,-0.01673,0.03642*
%
%ADD52ROUNDEDRECTD52*%
%ADD53C,0.03937*%
%ADD54C,0.03200*%
%ADD55C,0.02598*%
%ADD56C,0.03000*%
%ADD57R,0.07500X0.07000*%
%ADD58R,0.09500X0.07500*%
%ADD59R,0.10900X0.12400*%
%ADD60C,0.02362*%
%ADD61C,0.00984*%
%ADD62C,0.00787*%
%ADD63C,0.00500*%
%ADD64C,0.00425*%
D32*
X275500Y-58600D02*
Y-1750D01*
X-15500Y-58600D02*
Y-1750D01*
X142496Y-57600D02*
X275500D01*
X-15500D02*
X114304D01*
X269500Y-55600D02*
X275500Y-57600D01*
X269500Y-59600D02*
X275500Y-57600D01*
X-15500D02*
X-9500Y-59600D01*
X-15500Y-57600D02*
X-9500Y-55600D01*
X277250Y200000D02*
X319400D01*
X277250Y0D02*
X319400D01*
X318400Y113496D02*
Y200000D01*
Y0D02*
Y83304D01*
X316400Y194000D02*
X318400Y200000D01*
X320400Y194000D01*
X318400Y0D02*
X320400Y6000D01*
X316400D02*
X318400Y0D01*
X25221Y37000D02*
X27500D01*
X37500D02*
X39000D01*
X25221Y13378D02*
X27500D01*
X37500D02*
X39000D01*
X25221D02*
Y37000D01*
X39000Y13378D02*
Y37000D01*
X98215Y27300D02*
X137585D01*
X137585Y-6165D02*
X137585Y27300D01*
X98215Y-6165D02*
X137585D01*
X98215Y27300D02*
X98215Y-6165D01*
X218315Y29067D02*
X218315Y-6433D01*
X188000Y29000D02*
X218315D01*
X188000Y-6433D02*
Y29000D01*
Y-6433D02*
X218315D01*
X51215Y27300D02*
X51215Y-6165D01*
X90585D01*
X90585Y27300D01*
X51215D02*
X90585D01*
D38*
X192624Y47100D02*
X195824D01*
X192624Y50900D02*
X195824D01*
X186624D02*
X189824D01*
X186624Y47100D02*
X189824D01*
X195824D02*
Y50900D01*
X186624Y47100D02*
Y50900D01*
X186524Y51600D02*
Y54400D01*
X194924Y51600D02*
Y54400D01*
X186524Y51600D02*
X189324D01*
X186524Y54400D02*
X189324D01*
X192124D02*
X194924D01*
X192124Y51600D02*
X194924D01*
X50700Y38100D02*
Y40900D01*
X42300Y38100D02*
Y40900D01*
X47900D02*
X50700D01*
X47900Y38100D02*
X50700D01*
X42300D02*
X45100D01*
X42300Y40900D02*
X45100D01*
X50700Y43100D02*
Y45900D01*
X42300Y43100D02*
Y45900D01*
X47900Y45900D02*
X50700Y45900D01*
X47900Y43100D02*
X50700D01*
X42300D02*
X45100D01*
X42300Y45900D02*
X45100Y45900D01*
X83600Y55900D02*
Y59100D01*
X87400Y55900D02*
Y59100D01*
Y61900D02*
Y65100D01*
X83600Y61900D02*
Y65100D01*
Y55900D02*
X87400D01*
X83600Y65100D02*
X87400D01*
X177800Y169400D02*
X180600D01*
X177800Y166600D02*
X180600D01*
X183400D02*
X186200D01*
X183400Y169400D02*
X186200D01*
X177800Y166600D02*
Y169400D01*
X186200Y166600D02*
Y169400D01*
X167600Y12200D02*
X167600Y6700D01*
X174400D02*
X174400Y12200D01*
X167600Y6700D02*
X174400D01*
Y20300D02*
X174400Y14800D01*
X167600Y14800D02*
X167600Y20300D01*
X174400D01*
X248800Y45600D02*
X254300Y45600D01*
X248800Y52400D02*
X254300Y52400D01*
Y45600D02*
Y52400D01*
X240700D02*
X246200D01*
X240700Y45600D02*
X246200Y45600D01*
X240700Y45600D02*
X240700Y52400D01*
X248800Y68600D02*
X254300Y68600D01*
X248800Y75400D02*
X254300D01*
X254300Y68600D02*
X254300Y75400D01*
X240700D02*
X246200Y75400D01*
X240700Y68600D02*
X246200Y68600D01*
X240700Y75400D02*
X240700Y68600D01*
X68800Y169900D02*
X71600D01*
X68800Y167100D02*
X71600D01*
X74400D02*
X77200D01*
X74400Y169900D02*
X77200D01*
X68800Y167100D02*
Y169900D01*
X77200Y167100D02*
Y169900D01*
X10100Y114300D02*
X12900D01*
X10100Y122700D02*
X12900D01*
X12900Y114300D02*
Y117100D01*
X10100Y114300D02*
Y117100D01*
X10100Y122700D02*
X10100Y119900D01*
X12900Y119900D02*
Y122700D01*
X120100Y48300D02*
X122900D01*
X120100Y56700D02*
X122900D01*
Y48300D02*
Y51100D01*
X120100Y48300D02*
Y51100D01*
Y53900D02*
Y56700D01*
X122900Y53900D02*
Y56700D01*
X127100Y48300D02*
X129900D01*
X127100Y56700D02*
X129900D01*
Y48300D02*
Y51100D01*
X127100Y48300D02*
Y51100D01*
Y53900D02*
Y56700D01*
X129900Y53900D02*
Y56700D01*
X159600Y38800D02*
X162400D01*
X159600Y47200D02*
X162400D01*
Y38800D02*
Y41600D01*
X159600Y38800D02*
Y41600D01*
Y44400D02*
Y47200D01*
X162400Y44400D02*
Y47200D01*
X152800Y68600D02*
Y71400D01*
X161200Y68600D02*
Y71400D01*
X152800Y68600D02*
X155600D01*
X152800Y71400D02*
X155600D01*
X158400D02*
X161200D01*
X158400Y68600D02*
X161200D01*
X170600Y72500D02*
Y75300D01*
X162200Y72500D02*
Y75300D01*
X167800D02*
X170600D01*
X167800Y72500D02*
X170600D01*
X162200D02*
X165000D01*
X162200Y75300D02*
X165000D01*
X170600Y69000D02*
Y71800D01*
X162200Y69000D02*
Y71800D01*
X167800D02*
X170600D01*
X167800Y69000D02*
X170600D01*
X162200D02*
X165000D01*
X162200Y71800D02*
X165000D01*
X175400Y85100D02*
X178600D01*
X175400Y88900D02*
X178600D01*
X169400D02*
X172600D01*
X169400Y85100D02*
X172600D01*
X178600D02*
Y88900D01*
X169400Y85100D02*
Y88900D01*
X178200Y81600D02*
Y84400D01*
X169800Y81600D02*
Y84400D01*
X175400D02*
X178200D01*
X175400Y81600D02*
X178200D01*
X169800D02*
X172600D01*
X169800Y84400D02*
X172600D01*
X181100Y89700D02*
X183900D01*
X181100Y81300D02*
X183900D01*
X181100Y86900D02*
Y89700D01*
X183900Y86900D02*
Y89700D01*
Y81300D02*
Y84100D01*
X181100Y81300D02*
Y84100D01*
X184600Y81300D02*
X187400D01*
X184600Y89700D02*
X187400D01*
X187400Y81300D02*
Y84100D01*
X184600Y81300D02*
Y84100D01*
Y86900D02*
Y89700D01*
X187400D02*
X187400Y86900D01*
X191900Y90600D02*
X191900Y87400D01*
X188100D02*
Y90600D01*
Y81400D02*
Y84600D01*
X191900Y81400D02*
X191900Y84600D01*
X188100Y90600D02*
X191900D01*
X188100Y81400D02*
X191900Y81400D01*
X192600Y81300D02*
X195400D01*
X192600Y89700D02*
X195400D01*
Y81300D02*
Y84100D01*
X192600Y81300D02*
Y84100D01*
Y86900D02*
Y89700D01*
X195400Y86900D02*
Y89700D01*
X200400Y87400D02*
Y90600D01*
X196600Y87400D02*
Y90600D01*
Y81400D02*
Y84600D01*
X200400Y81400D02*
Y84600D01*
X196600Y90600D02*
X200400D01*
X196600Y81400D02*
X200400D01*
X203600Y45300D02*
X206400D01*
X203600Y53700D02*
X206400D01*
Y45300D02*
Y48100D01*
X203600Y45300D02*
Y48100D01*
Y50900D02*
Y53700D01*
X206400Y50900D02*
Y53700D01*
X199600Y45300D02*
X202400D01*
X199600Y53700D02*
X202400D01*
Y45300D02*
Y48100D01*
X199600D02*
X199600Y45300D01*
X199600Y50900D02*
X199600Y53700D01*
X202400Y50900D02*
Y53700D01*
X210200Y35600D02*
Y38400D01*
X201800Y35600D02*
Y38400D01*
X207400D02*
X210200D01*
X207400Y35600D02*
X210200D01*
X201800D02*
X204600D01*
X201800Y38400D02*
X204600D01*
X210200Y31600D02*
Y34400D01*
X201800Y31600D02*
Y34400D01*
X207400D02*
X210200D01*
X207400Y31600D02*
X210200D01*
X201800D02*
X204600D01*
X201800Y34400D02*
X204600D01*
X79507Y117757D02*
Y120557D01*
X71107Y117757D02*
Y120557D01*
X76707Y120557D02*
X79507D01*
X76707Y117757D02*
X79507D01*
X71107Y117757D02*
X73907Y117757D01*
X71107Y120557D02*
X73907D01*
X194924Y43600D02*
Y46400D01*
X186524Y43600D02*
Y46400D01*
X192124D02*
X194924D01*
X192124Y43600D02*
X194924D01*
X186524D02*
X189324D01*
X186524Y46400D02*
X189324D01*
X192300Y31600D02*
Y34400D01*
X200700Y31600D02*
Y34400D01*
X192300Y31600D02*
X195100D01*
X192300Y34400D02*
X195100D01*
X197900D02*
X200700D01*
X197900Y31600D02*
X200700D01*
X138600Y65300D02*
X145400D01*
X138600Y59800D02*
Y65300D01*
X145400Y59800D02*
Y65300D01*
X138600Y51700D02*
X145400D01*
Y57200D01*
X138600Y51700D02*
Y57200D01*
X134100Y55900D02*
Y59100D01*
X137900Y55900D02*
Y59100D01*
Y61900D02*
Y65100D01*
X134100Y61900D02*
Y65100D01*
Y55900D02*
X137900D01*
X134100Y65100D02*
X137900D01*
X145100Y19800D02*
X151900Y19800D01*
X145100Y14300D02*
X145100Y19800D01*
X151900Y14300D02*
X151900Y19800D01*
X145100Y6200D02*
X151900Y6200D01*
X151900Y11700D02*
X151900Y6200D01*
X145100Y6200D02*
X145100Y11700D01*
X7700Y76800D02*
X10500D01*
X7700Y85200D02*
X10500D01*
Y76800D02*
Y79600D01*
X7700Y76800D02*
Y79600D01*
Y82400D02*
Y85200D01*
X10500Y82400D02*
Y85200D01*
X22700Y132600D02*
Y135400D01*
X14300Y132600D02*
Y135400D01*
X19900Y135400D02*
X22700D01*
X19900Y132600D02*
X22700D01*
X14300Y132600D02*
X17100Y132600D01*
X14300Y135400D02*
X17100Y135400D01*
X7100Y133700D02*
X9900D01*
X7100Y125300D02*
X9900D01*
X7100Y130900D02*
Y133700D01*
X9900Y130900D02*
Y133700D01*
X9900Y125300D02*
X9900Y128100D01*
X7100Y125300D02*
Y128100D01*
X19800Y106600D02*
Y109400D01*
X28200Y106600D02*
Y109400D01*
X19800Y106600D02*
X22600D01*
X19800Y109400D02*
X22600D01*
X25400D02*
X28200D01*
X25400Y106600D02*
X28200D01*
X98600Y71900D02*
Y75100D01*
X102400Y71900D02*
Y75100D01*
Y77900D02*
Y81100D01*
X98600Y77900D02*
Y81100D01*
Y71900D02*
X102400D01*
X98600Y81100D02*
X102400D01*
X154524Y78100D02*
Y80900D01*
X162924Y78100D02*
Y80900D01*
X154524Y78100D02*
X157324D01*
X154524Y80900D02*
X157324D01*
X160124D02*
X162924D01*
X160124Y78100D02*
X162924D01*
X172924D02*
Y80900D01*
X164524Y78100D02*
Y80900D01*
X170124D02*
X172924D01*
X170124Y78100D02*
X172924D01*
X164524D02*
X167324D01*
X164524Y80900D02*
X167324D01*
X161524Y60600D02*
Y63400D01*
X169924Y60600D02*
Y63400D01*
X161524Y60600D02*
X164324D01*
X161524Y63400D02*
X164324D01*
X167124D02*
X169924D01*
X167124Y60600D02*
X169924D01*
X134400Y69900D02*
X137600D01*
X134400Y66100D02*
X137600D01*
X140400D02*
X143600D01*
X140400Y69900D02*
X143600D01*
X134400Y66100D02*
Y69900D01*
X143600Y66100D02*
Y69900D01*
X137900Y76900D02*
Y80100D01*
X134100Y76900D02*
Y80100D01*
Y70900D02*
Y74100D01*
X137900Y70900D02*
Y74100D01*
X134100Y80100D02*
X137900D01*
X134100Y70900D02*
X137900D01*
X139100Y70700D02*
X145900D01*
Y76200D01*
X139100Y70700D02*
Y76200D01*
Y84300D02*
X145900D01*
X139100Y78800D02*
Y84300D01*
X145900Y78800D02*
Y84300D01*
X169924Y57100D02*
Y59900D01*
X161524Y57100D02*
Y59900D01*
X167124D02*
X169924D01*
X167124Y57100D02*
X169924D01*
X161524D02*
X164324D01*
X161524Y59900D02*
X164324D01*
X138100Y84100D02*
Y87900D01*
X128900Y84100D02*
Y87900D01*
X134900D02*
X138100D01*
X134900Y84100D02*
X138100D01*
X128900D02*
X132100D01*
X128900Y87900D02*
X132100D01*
X119400Y53900D02*
Y56700D01*
X116600Y53900D02*
Y56700D01*
Y48300D02*
Y51100D01*
X119400Y48300D02*
Y51100D01*
X116600Y56700D02*
X119400D01*
X116600Y48300D02*
X119400D01*
X76600D02*
X79400D01*
X76600Y56700D02*
X79400D01*
Y48300D02*
Y51100D01*
X76600Y48300D02*
Y51100D01*
Y53900D02*
Y56700D01*
X79400Y53900D02*
Y56700D01*
X69600Y48300D02*
X72400D01*
X69600Y56700D02*
X72400D01*
Y48300D02*
Y51100D01*
X69600Y48300D02*
Y51100D01*
Y53900D02*
Y56700D01*
X72400Y53900D02*
Y56700D01*
X88100Y65300D02*
X94900D01*
X88100Y59800D02*
Y65300D01*
X94900Y59800D02*
Y65300D01*
X88100Y51700D02*
X94900D01*
Y57200D01*
X88100Y51700D02*
Y57200D01*
Y70700D02*
X94900D01*
Y76200D01*
X88100Y70700D02*
Y76200D01*
Y84300D02*
X94900D01*
X88100Y78800D02*
Y84300D01*
X94900Y78800D02*
Y84300D01*
X87400Y76900D02*
Y80100D01*
X83600Y76900D02*
Y80100D01*
Y70900D02*
Y74100D01*
X87400Y70900D02*
Y74100D01*
X83600Y80100D02*
X87400D01*
X83600Y70900D02*
X87400D01*
X66100Y48300D02*
X68900D01*
X66100Y56700D02*
X68900D01*
Y48300D02*
Y51100D01*
X66100Y48300D02*
Y51100D01*
Y53900D02*
Y56700D01*
X68900Y53900D02*
Y56700D01*
X83900Y69900D02*
X87100D01*
X83900Y66100D02*
X87100D01*
X89900D02*
X93100D01*
X89900Y69900D02*
X93100D01*
X83900Y66100D02*
Y69900D01*
X93100Y66100D02*
Y69900D01*
X77400Y84900D02*
X80600D01*
X77400Y81100D02*
X80600D01*
X83400D02*
X86600D01*
X83400Y84900D02*
X86600D01*
X77400Y81100D02*
Y84900D01*
X86600Y81100D02*
Y84900D01*
X47600Y71900D02*
Y75100D01*
X51400Y71900D02*
Y75100D01*
Y77900D02*
Y81100D01*
X47600Y77900D02*
Y81100D01*
Y71900D02*
X51400D01*
X47600Y81100D02*
X51400D01*
X115904Y-55201D02*
X119903D01*
Y-56201D01*
X115904Y-60199D01*
Y-61199D01*
X121902Y-56201D02*
X122902Y-55201D01*
X124901D01*
X125901Y-56201D01*
Y-57200D01*
X124901Y-58200D01*
X123901D01*
X124901D01*
X125901Y-59200D01*
Y-60199D01*
X124901Y-61199D01*
X122902D01*
X121902Y-60199D01*
X127900Y-61199D02*
Y-60199D01*
X128900D01*
Y-61199D01*
X127900D01*
X132898Y-60199D02*
X133898Y-61199D01*
X135898D01*
X136897Y-60199D01*
Y-56201D01*
X135898Y-55201D01*
X133898D01*
X132898Y-56201D01*
Y-57200D01*
X133898Y-58200D01*
X136897D01*
X138897Y-61199D02*
X140896D01*
X139896D01*
Y-55201D01*
X138897Y-56201D01*
X316001Y88903D02*
Y84904D01*
X319000D01*
X318000Y86904D01*
Y87903D01*
X319000Y88903D01*
X320999D01*
X321999Y87903D01*
Y85904D01*
X320999Y84904D01*
X317001Y90902D02*
X316001Y91902D01*
Y93901D01*
X317001Y94901D01*
X320999D01*
X321999Y93901D01*
Y91902D01*
X320999Y90902D01*
X317001D01*
X321999Y96900D02*
X320999D01*
Y97900D01*
X321999D01*
Y96900D01*
X317001Y101899D02*
X316001Y102899D01*
Y104898D01*
X317001Y105898D01*
X318000D01*
X319000Y104898D01*
X320000Y105898D01*
X320999D01*
X321999Y104898D01*
Y102899D01*
X320999Y101899D01*
X320000D01*
X319000Y102899D01*
X318000Y101899D01*
X317001D01*
X319000Y102899D02*
Y104898D01*
X317001Y107897D02*
X316001Y108897D01*
Y110896D01*
X317001Y111896D01*
X320999D01*
X321999Y110896D01*
Y108897D01*
X320999Y107897D01*
X317001D01*
D60*
X30811Y127661D02*
G03*
X30811Y127661I-1181J0D01*
G01*
X115933Y74602D02*
G03*
X115933Y74602I-1181J0D01*
G01*
X171622Y40425D02*
G03*
X171622Y40425I-1181J0D01*
G01*
X65433Y74602D02*
G03*
X65433Y74602I-1181J0D01*
G01*
D61*
X21657Y132091D02*
G03*
X21657Y132091I-492J0D01*
G01*
X153394Y17323D02*
G03*
X153394Y17323I-492J0D01*
G01*
X106780Y80311D02*
G03*
X106780Y80311I-492J0D01*
G01*
X179988Y35307D02*
G03*
X179988Y35307I-492J0D01*
G01*
X170331Y73299D02*
G03*
X170331Y73299I-492J0D01*
G01*
X244153Y67598D02*
G03*
X244153Y67598I-492J0D01*
G01*
X56279Y80311D02*
G03*
X56279Y80311I-492J0D01*
G01*
D62*
X211000Y39000D02*
X221000D01*
X211000D02*
Y59000D01*
X221000D01*
Y39000D02*
Y59000D01*
X223600Y39000D02*
X233600D01*
X223600D02*
Y59000D01*
X233600D01*
Y39000D02*
Y59000D01*
X25693Y111520D02*
X39472D01*
X25693Y131598D02*
X39472D01*
Y111520D02*
Y131598D01*
X25693D02*
X25693Y111520D01*
X154095Y21949D02*
Y23917D01*
X157244D01*
X165905Y21949D02*
X165905Y23917D01*
X162756Y23917D02*
X165905Y23917D01*
X110815Y58461D02*
X125185D01*
X110815Y78539D02*
X125185D01*
Y58461D02*
Y78539D01*
X110815Y58461D02*
Y78539D01*
X174378Y36488D02*
Y47512D01*
X171622Y36488D02*
Y47512D01*
Y36488D02*
X174378D01*
X171622Y47512D02*
X174378D01*
X173185Y74874D02*
Y77039D01*
X175350D01*
X191098D02*
X193264D01*
Y74874D02*
Y77039D01*
Y56961D02*
Y59126D01*
X191098Y56961D02*
X193264D01*
X173185D02*
X175350D01*
X173185D02*
Y59126D01*
X250256Y57744D02*
X250256Y54594D01*
X248287D02*
X250256D01*
Y63256D02*
Y66405D01*
X248287Y66405D02*
X250256Y66405D01*
X-3600Y33500D02*
X6400D01*
X-3600Y93500D02*
X6400D01*
Y33500D02*
Y93500D01*
X-3600Y33500D02*
Y93500D01*
X60315Y58461D02*
X74685D01*
X60315Y78539D02*
X74685D01*
Y58461D02*
Y78539D01*
X60315Y58461D02*
Y78539D01*
D63*
X61000Y42500D02*
X62000Y43500D01*
X57500Y42500D02*
X61000D01*
X61000Y46500D02*
X62000Y45500D01*
X57500Y46500D02*
X61000Y46500D01*
X61000Y42500D01*
X62000Y43500D02*
Y45500D01*
X51500Y42500D02*
Y46500D01*
Y42500D02*
X55000D01*
X51500Y46500D02*
X55000Y46500D01*
X175900Y150500D02*
X178700D01*
X175900Y147700D02*
X178700D01*
X181500D02*
X184300D01*
X181500Y150500D02*
X184300D01*
X175900Y147700D02*
Y150500D01*
X184300Y147700D02*
Y150500D01*
X175900Y131700D02*
X178700Y131700D01*
X175900Y134500D02*
X178700D01*
X170300Y134500D02*
X173100D01*
X170300Y131700D02*
X173100D01*
X178700Y131700D02*
Y134500D01*
X170300Y131700D02*
Y134500D01*
Y128200D02*
Y131000D01*
X178700Y128200D02*
Y131000D01*
X170300Y128200D02*
X173100D01*
X170300Y131000D02*
X173100D01*
X175900D02*
X178700D01*
X175900Y128200D02*
X178700D01*
X61000Y37500D02*
X62000Y38500D01*
X57500Y37500D02*
X61000D01*
X61000Y41500D02*
X62000Y40500D01*
X57500Y41500D02*
X61000Y41500D01*
X61000Y37500D01*
X62000Y38500D02*
Y40500D01*
X51500Y37500D02*
Y41500D01*
Y37500D02*
X55000D01*
X51500Y41500D02*
X55000Y41500D01*
X64445Y135411D02*
X69760D01*
X64445Y142104D02*
X69760D01*
Y135411D02*
Y142104D01*
X56374D02*
X61689D01*
X56374Y135411D02*
X61689D01*
X56374D02*
Y142104D01*
X173638Y135254D02*
X178953D01*
X173638Y141946D02*
X178953D01*
Y135254D02*
Y141946D01*
X165567D02*
X170882D01*
X165567Y135254D02*
X170882D01*
X165567D02*
Y141946D01*
X66707Y131857D02*
X69507Y131857D01*
X66707Y134657D02*
X69507D01*
X61107Y134657D02*
X63907D01*
X61107Y131857D02*
X63907D01*
X69507Y131857D02*
Y134657D01*
X61107Y131857D02*
Y134657D01*
X102107Y160557D02*
X104907D01*
X102107Y163357D02*
X104907D01*
X96507D02*
X99307D01*
X96507Y160557D02*
X99307D01*
X104907D02*
Y163357D01*
X96507Y160557D02*
Y163357D01*
X211300Y160400D02*
X214100D01*
X211300Y163200D02*
X214100D01*
X205700D02*
X208500D01*
X205700Y160400D02*
X208500D01*
X214100D02*
Y163200D01*
X205700Y160400D02*
Y163200D01*
X102107Y157157D02*
X104907D01*
X102107Y159957D02*
X104907D01*
X96507D02*
X99307D01*
X96507Y157157D02*
X99307D01*
X104907Y157157D02*
Y159957D01*
X96507Y157157D02*
Y159957D01*
X211300Y157000D02*
X214100D01*
X211300Y159800D02*
X214100D01*
X205700D02*
X208500D01*
X205700Y157000D02*
X208500D01*
X214100Y157000D02*
Y159800D01*
X205700Y157000D02*
Y159800D01*
X94607Y162857D02*
Y165657D01*
X91807D02*
X91807Y162857D01*
X91807Y157257D02*
X91807Y160057D01*
X94607Y157257D02*
Y160057D01*
X91807Y165657D02*
X94607D01*
X91807Y157257D02*
X94607D01*
X203800Y162700D02*
Y165500D01*
X201000D02*
X201000Y162700D01*
X201000Y157100D02*
X201000Y159900D01*
X203800Y157100D02*
Y159900D01*
X201000Y165500D02*
X203800D01*
X201000Y157100D02*
X203800D01*
X83007Y157257D02*
X83007Y160057D01*
X85807Y157257D02*
Y160057D01*
Y162857D02*
Y165657D01*
X83007D02*
X83007Y162857D01*
X83007Y157257D02*
X85807D01*
X83007Y165657D02*
X85807D01*
X192200Y157100D02*
X192200Y159900D01*
X195000Y157100D02*
Y159900D01*
Y162700D02*
Y165500D01*
X192200D02*
X192200Y162700D01*
X192200Y157100D02*
X195000D01*
X192200Y165500D02*
X195000D01*
X76707Y159157D02*
Y161957D01*
X73907Y159157D02*
Y161957D01*
Y153557D02*
Y156357D01*
X76707Y153557D02*
Y156357D01*
X73907Y161957D02*
X76707D01*
X73907Y153557D02*
X76707D01*
X185900Y159000D02*
Y161800D01*
X183100Y159000D02*
Y161800D01*
Y153400D02*
Y156200D01*
X185900Y153400D02*
Y156200D01*
X183100Y161800D02*
X185900D01*
X183100Y153400D02*
X185900D01*
X68800Y165900D02*
X71600D01*
X68800Y163100D02*
X71600D01*
X74400D02*
X77200D01*
X74400Y165900D02*
X77200D01*
X68800Y163100D02*
Y165900D01*
X77200Y163100D02*
Y165900D01*
X177800Y165400D02*
X180600D01*
X177800Y162600D02*
X180600D01*
X183400D02*
X186200D01*
X183400Y165400D02*
X186200D01*
X177800Y162600D02*
Y165400D01*
X186200Y162600D02*
Y165400D01*
X66707Y128357D02*
X69507D01*
X66707Y131157D02*
X69507D01*
X61107D02*
X63907D01*
X61107Y128357D02*
X63907D01*
X69507D02*
Y131157D01*
X61107Y128357D02*
Y131157D01*
X104600Y130300D02*
X104600Y133100D01*
X107400D02*
X107400Y130300D01*
Y135900D02*
Y138700D01*
X104600Y135900D02*
Y138700D01*
Y130300D02*
X107400D01*
X104600Y138700D02*
X107400D01*
X84607Y153157D02*
X87407D01*
X84607Y150357D02*
X87407D01*
X90207D02*
X93007D01*
X90207Y153157D02*
X93007D01*
X84607Y150357D02*
Y153157D01*
X93007Y150357D02*
Y153157D01*
X91507Y156557D02*
X94307D01*
X91507Y153757D02*
X94307D01*
X97107D02*
X99907D01*
X97107Y156557D02*
X99907D01*
X91507Y153757D02*
Y156557D01*
X99907Y153757D02*
Y156557D01*
X83207Y153857D02*
X86007D01*
X83207Y156657D02*
X86007D01*
X77607D02*
X80407D01*
X77607Y153857D02*
X80407D01*
X86007Y153857D02*
Y156657D01*
X77607Y153857D02*
Y156657D01*
X66707Y150657D02*
X69507D01*
X66707Y147857D02*
X69507D01*
X72307D02*
X75107D01*
X72307Y150657D02*
X75107D01*
X66707Y147857D02*
Y150657D01*
X75107Y147857D02*
Y150657D01*
X56107Y146057D02*
X58907D01*
X56107Y143257D02*
X58907Y143257D01*
X61707D02*
X64507D01*
X61707Y146057D02*
X64507D01*
X56107Y143257D02*
Y146057D01*
X64507Y143257D02*
Y146057D01*
X205070Y123530D02*
X206570D01*
Y125030D01*
X183430Y146570D02*
X184930D01*
X183430Y145070D02*
Y146570D01*
X206570Y145070D02*
Y146570D01*
X205070D02*
X206570D01*
X183430Y124030D02*
X183930Y123530D01*
X184930Y123530D01*
X183430Y124030D02*
Y125030D01*
X193800Y153000D02*
X196600D01*
X193800Y150200D02*
X196600D01*
X199400D02*
X202200D01*
X199400Y153000D02*
X202200D01*
X193800Y150200D02*
Y153000D01*
X202200Y150200D02*
Y153000D01*
X126400Y53900D02*
Y56700D01*
X123600D02*
X123600Y53900D01*
X123600Y48300D02*
X123600Y51100D01*
X126400Y48300D02*
Y51100D01*
X123600Y56700D02*
X126400D01*
X123600Y48300D02*
X126400D01*
X209400Y82100D02*
X212200D01*
X209400Y84900D02*
X212200D01*
X203800Y84900D02*
X206600Y84900D01*
X203800Y82100D02*
X206600D01*
X212200D02*
Y84900D01*
X203800Y82100D02*
X203800Y84900D01*
X192400Y153700D02*
X195200D01*
X192400Y156500D02*
X195200D01*
X186800D02*
X189600D01*
X186800Y153700D02*
X189600D01*
X195200Y153700D02*
Y156500D01*
X186800Y153700D02*
Y156500D01*
X200700Y156400D02*
X203500D01*
X200700Y153600D02*
X203500D01*
X206300D02*
X209100D01*
X206300Y156400D02*
X209100D01*
X200700Y153600D02*
Y156400D01*
X209100Y153600D02*
Y156400D01*
X165300Y145900D02*
X168100D01*
X165300Y143100D02*
X168100Y143100D01*
X170900D02*
X173700D01*
X170900Y145900D02*
X173700D01*
X165300Y143100D02*
Y145900D01*
X173700Y143100D02*
Y145900D01*
X216900Y72900D02*
Y75700D01*
X214100Y72900D02*
Y75700D01*
Y67300D02*
Y70100D01*
X216900Y67300D02*
X216900Y70100D01*
X214100Y75700D02*
X216900D01*
X214100Y67300D02*
X216900Y67300D01*
X215400Y135600D02*
X218200Y135600D01*
X215400Y138400D02*
X218200Y138400D01*
X209800D02*
X212600D01*
X209800Y135600D02*
X212600D01*
X218200D02*
Y138400D01*
X209800Y135600D02*
Y138400D01*
X75900Y53900D02*
Y56700D01*
X73100D02*
X73100Y53900D01*
X73100Y48300D02*
X73100Y51100D01*
X75900Y48300D02*
Y51100D01*
X73100Y56700D02*
X75900D01*
X73100Y48300D02*
X75900D01*
X95877Y123687D02*
X97377D01*
Y125187D01*
X74237Y146727D02*
X75737D01*
X74237Y145227D02*
Y146727D01*
X97377Y145227D02*
Y146727D01*
X95877D02*
X97377D01*
X74237Y124187D02*
X74737Y123687D01*
X75737Y123687D01*
X74237Y124187D02*
Y125187D01*
X220100Y60000D02*
Y62999D01*
X221600D01*
X222099Y62499D01*
Y61500D01*
X221600Y61000D01*
X220100D01*
X224599Y60000D02*
Y62999D01*
X223099Y61500D01*
X225098D01*
X210000Y59500D02*
Y62499D01*
X211500D01*
X211999Y61999D01*
Y61000D01*
X211500Y60500D01*
X210000D01*
X212999Y61999D02*
X213499Y62499D01*
X214498D01*
X214998Y61999D01*
Y61499D01*
X214498Y61000D01*
X213999D01*
X214498D01*
X214998Y60500D01*
Y60000D01*
X214498Y59500D01*
X213499D01*
X212999Y60000D01*
X43999Y140999D02*
X43499Y141499D01*
X42500D01*
X42000Y140999D01*
Y139000D01*
X42500Y138500D01*
X43499D01*
X43999Y139000D01*
X46499Y138500D02*
Y141499D01*
X44999Y139999D01*
X46998D01*
X47998Y141499D02*
X49997D01*
Y140999D01*
X47998Y139000D01*
Y138500D01*
X158699Y139699D02*
X158200Y140199D01*
X157200D01*
X156700Y139699D01*
Y137700D01*
X157200Y137200D01*
X158200D01*
X158699Y137700D01*
X159699Y139699D02*
X160199Y140199D01*
X161199D01*
X161698Y139699D01*
Y139199D01*
X161199Y138699D01*
X160699D01*
X161199D01*
X161698Y138200D01*
Y137700D01*
X161199Y137200D01*
X160199D01*
X159699Y137700D01*
X164697Y140199D02*
X163698Y139699D01*
X162698Y138699D01*
Y137700D01*
X163198Y137200D01*
X164198D01*
X164697Y137700D01*
Y138200D01*
X164198Y138699D01*
X162698D01*
X46499Y134499D02*
X46000Y134999D01*
X45000D01*
X44500Y134499D01*
Y132500D01*
X45000Y132000D01*
X46000D01*
X46499Y132500D01*
X48999Y132000D02*
Y134999D01*
X47499Y133500D01*
X49498D01*
X50498Y134499D02*
X50998Y134999D01*
X51998D01*
X52497Y134499D01*
Y133999D01*
X51998Y133500D01*
X52497Y133000D01*
Y132500D01*
X51998Y132000D01*
X50998D01*
X50498Y132500D01*
Y133000D01*
X50998Y133500D01*
X50498Y133999D01*
Y134499D01*
X50998Y133500D02*
X51998D01*
X160899Y134199D02*
X160399Y134699D01*
X159400D01*
X158900Y134199D01*
Y132200D01*
X159400Y131700D01*
X160399D01*
X160899Y132200D01*
X161899Y134199D02*
X162399Y134699D01*
X163399D01*
X163898Y134199D01*
Y133699D01*
X163399Y133200D01*
X162899D01*
X163399D01*
X163898Y132700D01*
Y132200D01*
X163399Y131700D01*
X162399D01*
X161899Y132200D01*
X164898Y134699D02*
X166897D01*
Y134199D01*
X164898Y132200D01*
Y131700D01*
X108499Y162999D02*
X108000Y163499D01*
X107000D01*
X106500Y162999D01*
Y161000D01*
X107000Y160500D01*
X108000D01*
X108499Y161000D01*
X111498Y163499D02*
X109499D01*
Y161999D01*
X110499Y162499D01*
X110999D01*
X111498Y161999D01*
Y161000D01*
X110999Y160500D01*
X109999D01*
X109499Y161000D01*
X114497Y163499D02*
X112498D01*
Y161999D01*
X113498Y162499D01*
X113998D01*
X114497Y161999D01*
Y161000D01*
X113998Y160500D01*
X112998D01*
X112498Y161000D01*
X217499Y163499D02*
X217000Y163999D01*
X216000D01*
X215500Y163499D01*
Y161500D01*
X216000Y161000D01*
X217000D01*
X217499Y161500D01*
X219999Y161000D02*
Y163999D01*
X218499Y162499D01*
X220498D01*
X222998Y161000D02*
Y163999D01*
X221498Y162499D01*
X223497D01*
X108999Y158499D02*
X108500Y158999D01*
X107500D01*
X107000Y158499D01*
Y156500D01*
X107500Y156000D01*
X108500D01*
X108999Y156500D01*
X111998Y158999D02*
X109999D01*
Y157500D01*
X110999Y157999D01*
X111499D01*
X111998Y157500D01*
Y156500D01*
X111499Y156000D01*
X110499D01*
X109999Y156500D01*
X114997Y158999D02*
X113998Y158499D01*
X112998Y157500D01*
Y156500D01*
X113498Y156000D01*
X114498D01*
X114997Y156500D01*
Y157000D01*
X114498Y157500D01*
X112998D01*
X217999Y159499D02*
X217499Y159999D01*
X216500D01*
X216000Y159499D01*
Y157500D01*
X216500Y157000D01*
X217499D01*
X217999Y157500D01*
X220498Y157000D02*
Y159999D01*
X218999Y158500D01*
X220998D01*
X223997Y159999D02*
X221998D01*
Y158500D01*
X222998Y158999D01*
X223498D01*
X223997Y158500D01*
Y157500D01*
X223498Y157000D01*
X222498D01*
X221998Y157500D01*
X92501Y168999D02*
X92001Y168500D01*
Y167500D01*
X92501Y167000D01*
X94500D01*
X95000Y167500D01*
Y168500D01*
X94500Y168999D01*
X92001Y171998D02*
Y169999D01*
X93501D01*
X93001Y170999D01*
Y171499D01*
X93501Y171998D01*
X94500D01*
X95000Y171499D01*
Y170499D01*
X94500Y169999D01*
X95000Y174498D02*
X92001D01*
X93501Y172998D01*
Y174997D01*
X199501Y169499D02*
X199001Y169000D01*
Y168000D01*
X199501Y167500D01*
X201500D01*
X202000Y168000D01*
Y169000D01*
X201500Y169499D01*
X202000Y171999D02*
X199001D01*
X200500Y170499D01*
Y172498D01*
X199501Y173498D02*
X199001Y173998D01*
Y174998D01*
X199501Y175497D01*
X200001D01*
X200500Y174998D01*
Y174498D01*
Y174998D01*
X201000Y175497D01*
X201500D01*
X202000Y174998D01*
Y173998D01*
X201500Y173498D01*
X84001Y168999D02*
X83501Y168500D01*
Y167500D01*
X84001Y167000D01*
X86000D01*
X86500Y167500D01*
Y168500D01*
X86000Y168999D01*
X83501Y171998D02*
Y169999D01*
X85000D01*
X84501Y170999D01*
Y171499D01*
X85000Y171998D01*
X86000D01*
X86500Y171499D01*
Y170499D01*
X86000Y169999D01*
X84001Y172998D02*
X83501Y173498D01*
Y174498D01*
X84001Y174997D01*
X86000D01*
X86500Y174498D01*
Y173498D01*
X86000Y172998D01*
X84001D01*
X192501Y168499D02*
X192001Y167999D01*
Y167000D01*
X192501Y166500D01*
X194500D01*
X195000Y167000D01*
Y167999D01*
X194500Y168499D01*
X192501Y169499D02*
X192001Y169999D01*
Y170999D01*
X192501Y171498D01*
X193001D01*
X193500Y170999D01*
Y170499D01*
Y170999D01*
X194000Y171498D01*
X194500D01*
X195000Y170999D01*
Y169999D01*
X194500Y169499D01*
Y172498D02*
X195000Y172998D01*
Y173998D01*
X194500Y174497D01*
X192501D01*
X192001Y173998D01*
Y172998D01*
X192501Y172498D01*
X193001D01*
X193500Y172998D01*
Y174497D01*
X72999Y158001D02*
X73499Y158501D01*
Y159500D01*
X72999Y160000D01*
X71000D01*
X70500Y159500D01*
Y158501D01*
X71000Y158001D01*
X73499Y155002D02*
Y157001D01*
X72000D01*
X72499Y156001D01*
Y155501D01*
X72000Y155002D01*
X71000D01*
X70500Y155501D01*
Y156501D01*
X71000Y157001D01*
X70500Y154002D02*
Y153002D01*
Y153502D01*
X73499D01*
X72999Y154002D01*
X179499Y155999D02*
X178999Y156499D01*
X178000D01*
X177500Y155999D01*
Y154000D01*
X178000Y153500D01*
X178999D01*
X179499Y154000D01*
X181999Y153500D02*
Y156499D01*
X180499Y154999D01*
X182498D01*
X183498Y155999D02*
X183998Y156499D01*
X184998D01*
X185497Y155999D01*
Y154000D01*
X184998Y153500D01*
X183998D01*
X183498Y154000D01*
Y155999D01*
X59999Y165499D02*
X59500Y165999D01*
X58500D01*
X58000Y165499D01*
Y163500D01*
X58500Y163000D01*
X59500D01*
X59999Y163500D01*
X62998Y165999D02*
X60999D01*
Y164499D01*
X61999Y164999D01*
X62499D01*
X62998Y164499D01*
Y163500D01*
X62499Y163000D01*
X61499D01*
X60999Y163500D01*
X65997Y163000D02*
X63998D01*
X65997Y164999D01*
Y165499D01*
X65498Y165999D01*
X64498D01*
X63998Y165499D01*
X172499Y161999D02*
X172000Y162499D01*
X171000D01*
X170500Y161999D01*
Y160000D01*
X171000Y159500D01*
X172000D01*
X172499Y160000D01*
X174999Y159500D02*
Y162499D01*
X173499Y161000D01*
X175498D01*
X176498Y159500D02*
X177498D01*
X176998D01*
Y162499D01*
X176498Y161999D01*
X52208Y125958D02*
X51708Y126458D01*
X50709D01*
X50209Y125958D01*
Y123959D01*
X50709Y123459D01*
X51708D01*
X52208Y123959D01*
X54707Y123459D02*
Y126458D01*
X53208Y124959D01*
X55207D01*
X56207Y123959D02*
X56707Y123459D01*
X57706D01*
X58206Y123959D01*
Y125958D01*
X57706Y126458D01*
X56707D01*
X56207Y125958D01*
Y125459D01*
X56707Y124959D01*
X58206D01*
X106492Y142642D02*
X105992Y143142D01*
X104993D01*
X104493Y142642D01*
Y140643D01*
X104993Y140143D01*
X105992D01*
X106492Y140643D01*
X109491Y143142D02*
X107492D01*
Y141642D01*
X108492Y142142D01*
X108991D01*
X109491Y141642D01*
Y140643D01*
X108991Y140143D01*
X107992D01*
X107492Y140643D01*
X110491Y143142D02*
X112490D01*
Y142642D01*
X110491Y140643D01*
Y140143D01*
X95160Y152309D02*
Y149310D01*
X97159D01*
X100158Y152309D02*
X98159D01*
Y150810D01*
X99159Y151309D01*
X99659D01*
X100158Y150810D01*
Y149810D01*
X99659Y149310D01*
X98659D01*
X98159Y149810D01*
X101000Y155999D02*
Y153000D01*
X102999D01*
X105998Y155999D02*
X104999Y155499D01*
X103999Y154499D01*
Y153500D01*
X104499Y153000D01*
X105499D01*
X105998Y153500D01*
Y154000D01*
X105499Y154499D01*
X103999D01*
X78501Y157500D02*
X81500D01*
Y159499D01*
Y161999D02*
X78501D01*
X80001Y160499D01*
Y162498D01*
X48000Y148500D02*
Y151499D01*
X49499D01*
X49999Y150999D01*
Y149999D01*
X49499Y149500D01*
X48000D01*
X49000D02*
X49999Y148500D01*
X52998D02*
X50999D01*
X52998Y150499D01*
Y150999D01*
X52499Y151499D01*
X51499D01*
X50999Y150999D01*
X55498Y148500D02*
Y151499D01*
X53998Y149999D01*
X55997D01*
X166000Y147500D02*
Y150499D01*
X167499D01*
X167999Y149999D01*
Y149000D01*
X167499Y148500D01*
X166000D01*
X167000D02*
X167999Y147500D01*
X170998D02*
X168999D01*
X170998Y149499D01*
Y149999D01*
X170499Y150499D01*
X169499D01*
X168999Y149999D01*
X173997Y147500D02*
X171998D01*
X173997Y149499D01*
Y149999D01*
X173498Y150499D01*
X172498D01*
X171998Y149999D01*
X45500Y143000D02*
Y145999D01*
X46999D01*
X47499Y145499D01*
Y144500D01*
X46999Y144000D01*
X45500D01*
X46500D02*
X47499Y143000D01*
X50498D02*
X48499D01*
X50498Y144999D01*
Y145499D01*
X49999Y145999D01*
X48999D01*
X48499Y145499D01*
X51498D02*
X51998Y145999D01*
X52998D01*
X53497Y145499D01*
Y144999D01*
X52998Y144500D01*
X52498D01*
X52998D01*
X53497Y144000D01*
Y143500D01*
X52998Y143000D01*
X51998D01*
X51498Y143500D01*
X100900Y149499D02*
Y147000D01*
X101400Y146500D01*
X102400D01*
X102899Y147000D01*
Y149499D01*
X103899D02*
X105898D01*
Y148999D01*
X103899Y147000D01*
Y146500D01*
X204353Y152152D02*
Y149653D01*
X204853Y149153D01*
X205852D01*
X206352Y149653D01*
Y152152D01*
X209351D02*
X208351Y151652D01*
X207352Y150652D01*
Y149653D01*
X207852Y149153D01*
X208851D01*
X209351Y149653D01*
Y150152D01*
X208851Y150652D01*
X207352D01*
X170500Y52399D02*
Y49900D01*
X171000Y49400D01*
X172000D01*
X172499Y49900D01*
Y52399D01*
X173499Y51899D02*
X173999Y52399D01*
X174999D01*
X175498Y51899D01*
Y51399D01*
X174999Y50899D01*
X174499D01*
X174999D01*
X175498Y50400D01*
Y49900D01*
X174999Y49400D01*
X173999D01*
X173499Y49900D01*
X130701Y74799D02*
X130201Y74300D01*
Y73300D01*
X130701Y72800D01*
X132700D01*
X133200Y73300D01*
Y74300D01*
X132700Y74799D01*
X130201Y77798D02*
Y75799D01*
X131701D01*
X131201Y76799D01*
Y77299D01*
X131701Y77798D01*
X132700D01*
X133200Y77299D01*
Y76299D01*
X132700Y75799D01*
X219500Y79999D02*
X221499Y77000D01*
Y79999D02*
X219500Y77000D01*
X222499D02*
X223499D01*
X222999D01*
Y79999D01*
X222499Y79499D01*
X125000Y47000D02*
X127999D01*
Y45500D01*
X127499Y45001D01*
X126499D01*
X126000Y45500D01*
Y47000D01*
Y46000D02*
X125000Y45001D01*
Y42002D02*
Y44001D01*
X126999Y42002D01*
X127499D01*
X127999Y42501D01*
Y43501D01*
X127499Y44001D01*
X158100Y142800D02*
Y145799D01*
X159599D01*
X160099Y145299D01*
Y144299D01*
X159599Y143800D01*
X158100D01*
X159100D02*
X160099Y142800D01*
X163098D02*
X161099D01*
X163098Y144799D01*
Y145299D01*
X162599Y145799D01*
X161599D01*
X161099Y145299D01*
X164098Y142800D02*
X165098D01*
X164598D01*
Y145799D01*
X164098Y145299D01*
X215000Y156499D02*
Y153500D01*
X216999D01*
X217999Y155999D02*
X218499Y156499D01*
X219498D01*
X219998Y155999D01*
Y155499D01*
X219498Y154999D01*
X218999D01*
X219498D01*
X219998Y154500D01*
Y154000D01*
X219498Y153500D01*
X218499D01*
X217999Y154000D01*
X186100Y153099D02*
Y150100D01*
X188099D01*
X191098D02*
X189099D01*
X191098Y152099D01*
Y152599D01*
X190599Y153099D01*
X189599D01*
X189099Y152599D01*
X187501Y158000D02*
X190500D01*
Y159999D01*
Y160999D02*
Y161999D01*
Y161499D01*
X187501D01*
X188001Y160999D01*
X205999Y88599D02*
X205500Y89099D01*
X204500D01*
X204000Y88599D01*
Y86600D01*
X204500Y86100D01*
X205500D01*
X205999Y86600D01*
X208998Y86100D02*
X206999D01*
X208998Y88099D01*
Y88599D01*
X208499Y89099D01*
X207499D01*
X206999Y88599D01*
X211997Y89099D02*
X210998Y88599D01*
X209998Y87599D01*
Y86600D01*
X210498Y86100D01*
X211498D01*
X211997Y86600D01*
Y87100D01*
X211498Y87599D01*
X209998D01*
X214701Y79099D02*
X214201Y78600D01*
Y77600D01*
X214701Y77100D01*
X216700D01*
X217200Y77600D01*
Y78600D01*
X216700Y79099D01*
X217200Y82098D02*
Y80099D01*
X215201Y82098D01*
X214701D01*
X214201Y81599D01*
Y80599D01*
X214701Y80099D01*
X216700Y83098D02*
X217200Y83598D01*
Y84598D01*
X216700Y85097D01*
X214701D01*
X214201Y84598D01*
Y83598D01*
X214701Y83098D01*
X215201D01*
X215701Y83598D01*
Y85097D01*
X221499Y137999D02*
X221000Y138499D01*
X220000D01*
X219500Y137999D01*
Y136000D01*
X220000Y135500D01*
X221000D01*
X221499Y136000D01*
X223998Y135500D02*
Y138499D01*
X222499Y136999D01*
X224498D01*
X227497Y138499D02*
X226498Y137999D01*
X225498Y136999D01*
Y136000D01*
X225998Y135500D01*
X226998D01*
X227497Y136000D01*
Y136500D01*
X226998Y136999D01*
X225498D01*
X161299Y130399D02*
X160800Y130899D01*
X159800D01*
X159300Y130399D01*
Y128400D01*
X159800Y127900D01*
X160800D01*
X161299Y128400D01*
X162299Y130399D02*
X162799Y130899D01*
X163799D01*
X164298Y130399D01*
Y129899D01*
X163799Y129400D01*
X163299D01*
X163799D01*
X164298Y128900D01*
Y128400D01*
X163799Y127900D01*
X162799D01*
X162299Y128400D01*
X165298Y130399D02*
X165798Y130899D01*
X166798D01*
X167297Y130399D01*
Y129899D01*
X166798Y129400D01*
X167297Y128900D01*
Y128400D01*
X166798Y127900D01*
X165798D01*
X165298Y128400D01*
Y128900D01*
X165798Y129400D01*
X165298Y129899D01*
Y130399D01*
X165798Y129400D02*
X166798D01*
X119000Y82999D02*
Y80500D01*
X119500Y80000D01*
X120500D01*
X120999Y80500D01*
Y82999D01*
X121999Y80000D02*
X122999D01*
X122499D01*
Y82999D01*
X121999Y82499D01*
X253500Y65499D02*
Y63000D01*
X254000Y62500D01*
X254999D01*
X255499Y63000D01*
Y65499D01*
X256499Y63000D02*
X256999Y62500D01*
X257998D01*
X258498Y63000D01*
Y64999D01*
X257998Y65499D01*
X256999D01*
X256499Y64999D01*
Y64499D01*
X256999Y63999D01*
X258498D01*
X154000Y28499D02*
Y26000D01*
X154500Y25500D01*
X155499D01*
X155999Y26000D01*
Y28499D01*
X156999Y27999D02*
X157499Y28499D01*
X158499D01*
X158998Y27999D01*
Y27499D01*
X158499Y27000D01*
X158998Y26500D01*
Y26000D01*
X158499Y25500D01*
X157499D01*
X156999Y26000D01*
Y26500D01*
X157499Y27000D01*
X156999Y27499D01*
Y27999D01*
X157499Y27000D02*
X158499D01*
X26500Y135499D02*
Y133000D01*
X27000Y132500D01*
X27999D01*
X28499Y133000D01*
Y135499D01*
X31498D02*
X29499D01*
Y134000D01*
X30499Y134499D01*
X30999D01*
X31498Y134000D01*
Y133000D01*
X30999Y132500D01*
X29999D01*
X29499Y133000D01*
X194500Y79499D02*
Y77000D01*
X195000Y76500D01*
X196000D01*
X196499Y77000D01*
Y79499D01*
X198999Y76500D02*
Y79499D01*
X197499Y78000D01*
X199498D01*
X18999Y26999D02*
X18499Y27499D01*
X17500D01*
X17000Y26999D01*
Y26499D01*
X17500Y26000D01*
X18499D01*
X18999Y25500D01*
Y25000D01*
X18499Y24500D01*
X17500D01*
X17000Y25000D01*
X19999Y24500D02*
X20999D01*
X20499D01*
Y27499D01*
X19999Y26999D01*
X7600Y75000D02*
X10599D01*
Y73501D01*
X10099Y73001D01*
X9099D01*
X8600Y73501D01*
Y75000D01*
Y74000D02*
X7600Y73001D01*
Y70002D02*
Y72001D01*
X9599Y70002D01*
X10099D01*
X10599Y70501D01*
Y71501D01*
X10099Y72001D01*
Y69002D02*
X10599Y68502D01*
Y67502D01*
X10099Y67003D01*
X8100D01*
X7600Y67502D01*
Y68502D01*
X8100Y69002D01*
X10099D01*
X62000Y118500D02*
Y121499D01*
X63499D01*
X63999Y120999D01*
Y120000D01*
X63499Y119500D01*
X62000D01*
X63000D02*
X63999Y118500D01*
X64999D02*
X65999D01*
X65499D01*
Y121499D01*
X64999Y120999D01*
X67498Y119000D02*
X67998Y118500D01*
X68998D01*
X69498Y119000D01*
Y120999D01*
X68998Y121499D01*
X67998D01*
X67498Y120999D01*
Y120499D01*
X67998Y120000D01*
X69498D01*
X10000Y105000D02*
Y107999D01*
X11500D01*
X11999Y107499D01*
Y106500D01*
X11500Y106000D01*
X10000D01*
X11000D02*
X11999Y105000D01*
X12999D02*
X13999D01*
X13499D01*
Y107999D01*
X12999Y107499D01*
X15498D02*
X15998Y107999D01*
X16998D01*
X17498Y107499D01*
Y106999D01*
X16998Y106500D01*
X17498Y106000D01*
Y105500D01*
X16998Y105000D01*
X15998D01*
X15498Y105500D01*
Y106000D01*
X15998Y106500D01*
X15498Y106999D01*
Y107499D01*
X15998Y106500D02*
X16998D01*
X177300Y42400D02*
Y45399D01*
X178799D01*
X179299Y44899D01*
Y43900D01*
X178799Y43400D01*
X177300D01*
X178300D02*
X179299Y42400D01*
X180299D02*
X181299D01*
X180799D01*
Y45399D01*
X180299Y44899D01*
X182798D02*
X183298Y45399D01*
X184298D01*
X184798Y44899D01*
Y44399D01*
X184298Y43900D01*
X183798D01*
X184298D01*
X184798Y43400D01*
Y42900D01*
X184298Y42400D01*
X183298D01*
X182798Y42900D01*
X202400Y53700D02*
X199401D01*
Y55199D01*
X199901Y55699D01*
X200901D01*
X201400Y55199D01*
Y53700D01*
Y54700D02*
X202400Y55699D01*
Y56699D02*
Y57699D01*
Y57199D01*
X199401D01*
X199901Y56699D01*
X202400Y61198D02*
Y59198D01*
X200401Y61198D01*
X199901D01*
X199401Y60698D01*
Y59698D01*
X199901Y59198D01*
X206400Y53700D02*
X203401D01*
Y55199D01*
X203901Y55699D01*
X204901D01*
X205400Y55199D01*
Y53700D01*
Y54700D02*
X206400Y55699D01*
Y56699D02*
Y57699D01*
Y57199D01*
X203401D01*
X203901Y56699D01*
X206400Y59198D02*
Y60198D01*
Y59698D01*
X203401D01*
X203901Y59198D01*
X211500Y31600D02*
Y34599D01*
X213000D01*
X213499Y34099D01*
Y33099D01*
X213000Y32600D01*
X211500D01*
X212500D02*
X213499Y31600D01*
X214499D02*
X215499D01*
X214999D01*
Y34599D01*
X214499Y34099D01*
X216998D02*
X217498Y34599D01*
X218498D01*
X218998Y34099D01*
Y32100D01*
X218498Y31600D01*
X217498D01*
X216998Y32100D01*
Y34099D01*
X155600Y60100D02*
Y63099D01*
X157099D01*
X157599Y62599D01*
Y61599D01*
X157099Y61100D01*
X155600D01*
X156600D02*
X157599Y60100D01*
X158599Y60600D02*
X159099Y60100D01*
X160099D01*
X160598Y60600D01*
Y62599D01*
X160099Y63099D01*
X159099D01*
X158599Y62599D01*
Y62099D01*
X159099Y61599D01*
X160598D01*
X147100Y68400D02*
Y71399D01*
X148600D01*
X149099Y70899D01*
Y69899D01*
X148600Y69400D01*
X147100D01*
X148100D02*
X149099Y68400D01*
X150099Y70899D02*
X150599Y71399D01*
X151599D01*
X152098Y70899D01*
Y70399D01*
X151599Y69899D01*
X152098Y69400D01*
Y68900D01*
X151599Y68400D01*
X150599D01*
X150099Y68900D01*
Y69400D01*
X150599Y69899D01*
X150099Y70399D01*
Y70899D01*
X150599Y69899D02*
X151599D01*
X33000Y43000D02*
Y45999D01*
X34499D01*
X34999Y45499D01*
Y44499D01*
X34499Y44000D01*
X33000D01*
X34000D02*
X34999Y43000D01*
X35999D02*
X36999D01*
X36499D01*
Y45999D01*
X35999Y45499D01*
X40498Y45999D02*
X39498Y45499D01*
X38498Y44499D01*
Y43500D01*
X38998Y43000D01*
X39998D01*
X40498Y43500D01*
Y44000D01*
X39998Y44499D01*
X38498D01*
X40500Y34000D02*
Y36999D01*
X42000D01*
X42499Y36499D01*
Y35500D01*
X42000Y35000D01*
X40500D01*
X41500D02*
X42499Y34000D01*
X43499D02*
X44499D01*
X43999D01*
Y36999D01*
X43499Y36499D01*
X45998Y36999D02*
X47998D01*
Y36499D01*
X45998Y34500D01*
Y34000D01*
X7300Y114800D02*
X4301D01*
Y116299D01*
X4801Y116799D01*
X5801D01*
X6300Y116299D01*
Y114800D01*
Y115800D02*
X7300Y116799D01*
Y117799D02*
Y118799D01*
Y118299D01*
X4301D01*
X4801Y117799D01*
X7300Y121798D02*
X4301D01*
X5801Y120298D01*
Y122298D01*
X2500Y126500D02*
X-499D01*
Y127999D01*
X1Y128499D01*
X1001D01*
X1500Y127999D01*
Y126500D01*
Y127500D02*
X2500Y128499D01*
Y129499D02*
Y130499D01*
Y129999D01*
X-499D01*
X1Y129499D01*
X-499Y133998D02*
Y131998D01*
X1001D01*
X501Y132998D01*
Y133498D01*
X1001Y133998D01*
X2000D01*
X2500Y133498D01*
Y132498D01*
X2000Y131998D01*
X156000Y81500D02*
Y84499D01*
X157500D01*
X157999Y83999D01*
Y82999D01*
X157500Y82500D01*
X156000D01*
X157000D02*
X157999Y81500D01*
X158999Y84499D02*
X160998D01*
Y83999D01*
X158999Y82000D01*
Y81500D01*
X129000Y47000D02*
X131999D01*
Y45500D01*
X131499Y45001D01*
X130499D01*
X130000Y45500D01*
Y47000D01*
Y46000D02*
X129000Y45001D01*
X131499Y44001D02*
X131999Y43501D01*
Y42501D01*
X131499Y42002D01*
X130999D01*
X130499Y42501D01*
Y43001D01*
Y42501D01*
X130000Y42002D01*
X129500D01*
X129000Y42501D01*
Y43501D01*
X129500Y44001D01*
X120500Y47000D02*
X123499D01*
Y45500D01*
X122999Y45001D01*
X122000D01*
X121500Y45500D01*
Y47000D01*
Y46000D02*
X120500Y45001D01*
Y44001D02*
Y43001D01*
Y43501D01*
X123499D01*
X122999Y44001D01*
X8400Y94500D02*
X5401D01*
Y95999D01*
X5901Y96499D01*
X6900D01*
X7400Y95999D01*
Y94500D01*
X5401Y99498D02*
X5901Y98499D01*
X6900Y97499D01*
X7900D01*
X8400Y97999D01*
Y98999D01*
X7900Y99498D01*
X7400D01*
X6900Y98999D01*
Y97499D01*
X92900Y23300D02*
Y26299D01*
X94399D01*
X94899Y25799D01*
Y24800D01*
X94399Y24300D01*
X92900D01*
X95899Y23300D02*
X96899D01*
X96399D01*
Y26299D01*
X95899Y25799D01*
X48000Y50499D02*
Y47500D01*
X49999D01*
X50999Y50499D02*
Y47500D01*
X52499D01*
X52998Y48000D01*
Y49999D01*
X52499Y50499D01*
X50999D01*
X53998Y47500D02*
X54998D01*
X54498D01*
Y50499D01*
X53998Y49999D01*
X52500Y37499D02*
Y34500D01*
X54499D01*
X55499Y37499D02*
Y34500D01*
X56999D01*
X57498Y35000D01*
Y36999D01*
X56999Y37499D01*
X55499D01*
X60497Y34500D02*
X58498D01*
X60497Y36499D01*
Y36999D01*
X59998Y37499D01*
X58998D01*
X58498Y36999D01*
X257799Y73099D02*
X257299Y73599D01*
X256300D01*
X255800Y73099D01*
Y71100D01*
X256300Y70600D01*
X257299D01*
X257799Y71100D01*
X260798Y73599D02*
X259799Y73099D01*
X258799Y72100D01*
Y71100D01*
X259299Y70600D01*
X260298D01*
X260798Y71100D01*
Y71600D01*
X260298Y72100D01*
X258799D01*
X261798Y70600D02*
X262798D01*
X262298D01*
Y73599D01*
X261798Y73099D01*
X258699Y50099D02*
X258200Y50599D01*
X257200D01*
X256700Y50099D01*
Y48100D01*
X257200Y47600D01*
X258200D01*
X258699Y48100D01*
X261698Y50599D02*
X260699Y50099D01*
X259699Y49099D01*
Y48100D01*
X260199Y47600D01*
X261198D01*
X261698Y48100D01*
Y48600D01*
X261198Y49099D01*
X259699D01*
X262698Y50099D02*
X263198Y50599D01*
X264198D01*
X264697Y50099D01*
Y48100D01*
X264198Y47600D01*
X263198D01*
X262698Y48100D01*
Y50099D01*
X145999Y4499D02*
X145500Y4999D01*
X144500D01*
X144000Y4499D01*
Y2500D01*
X144500Y2000D01*
X145500D01*
X145999Y2500D01*
X148998Y4999D02*
X146999D01*
Y3500D01*
X147999Y3999D01*
X148499D01*
X148998Y3500D01*
Y2500D01*
X148499Y2000D01*
X147499D01*
X146999Y2500D01*
X149998D02*
X150498Y2000D01*
X151498D01*
X151997Y2500D01*
Y4499D01*
X151498Y4999D01*
X150498D01*
X149998Y4499D01*
Y3999D01*
X150498Y3500D01*
X151997D01*
X169999Y23499D02*
X169500Y23999D01*
X168500D01*
X168000Y23499D01*
Y21500D01*
X168500Y21000D01*
X169500D01*
X169999Y21500D01*
X172998Y23999D02*
X170999D01*
Y22500D01*
X171999Y22999D01*
X172499D01*
X172998Y22500D01*
Y21500D01*
X172499Y21000D01*
X171499D01*
X170999Y21500D01*
X173998Y23499D02*
X174498Y23999D01*
X175498D01*
X175997Y23499D01*
Y22999D01*
X175498Y22500D01*
X175997Y22000D01*
Y21500D01*
X175498Y21000D01*
X174498D01*
X173998Y21500D01*
Y22000D01*
X174498Y22500D01*
X173998Y22999D01*
Y23499D01*
X174498Y22500D02*
X175498D01*
X179499Y50299D02*
X178999Y50799D01*
X178000D01*
X177500Y50299D01*
Y48300D01*
X178000Y47800D01*
X178999D01*
X179499Y48300D01*
X180499Y50299D02*
X180999Y50799D01*
X181999D01*
X182498Y50299D01*
Y49799D01*
X181999Y49299D01*
X181499D01*
X181999D01*
X182498Y48800D01*
Y48300D01*
X181999Y47800D01*
X180999D01*
X180499Y48300D01*
X184998Y47800D02*
Y50799D01*
X183498Y49299D01*
X185497D01*
X179399Y54099D02*
X178900Y54599D01*
X177900D01*
X177400Y54099D01*
Y52100D01*
X177900Y51600D01*
X178900D01*
X179399Y52100D01*
X180399Y54099D02*
X180899Y54599D01*
X181899D01*
X182398Y54099D01*
Y53599D01*
X181899Y53100D01*
X181399D01*
X181899D01*
X182398Y52600D01*
Y52100D01*
X181899Y51600D01*
X180899D01*
X180399Y52100D01*
X183398Y54099D02*
X183898Y54599D01*
X184898D01*
X185397Y54099D01*
Y53599D01*
X184898Y53100D01*
X184398D01*
X184898D01*
X185397Y52600D01*
Y52100D01*
X184898Y51600D01*
X183898D01*
X183398Y52100D01*
X185399Y33899D02*
X184899Y34399D01*
X183900D01*
X183400Y33899D01*
Y31900D01*
X183900Y31400D01*
X184899D01*
X185399Y31900D01*
X186399Y33899D02*
X186899Y34399D01*
X187899D01*
X188398Y33899D01*
Y33399D01*
X187899Y32899D01*
X187399D01*
X187899D01*
X188398Y32400D01*
Y31900D01*
X187899Y31400D01*
X186899D01*
X186399Y31900D01*
X191397Y31400D02*
X189398D01*
X191397Y33399D01*
Y33899D01*
X190898Y34399D01*
X189898D01*
X189398Y33899D01*
X213799Y37999D02*
X213299Y38499D01*
X212300D01*
X211800Y37999D01*
Y36000D01*
X212300Y35500D01*
X213299D01*
X213799Y36000D01*
X214799Y37999D02*
X215299Y38499D01*
X216299D01*
X216798Y37999D01*
Y37499D01*
X216299Y36999D01*
X215799D01*
X216299D01*
X216798Y36500D01*
Y36000D01*
X216299Y35500D01*
X215299D01*
X214799Y36000D01*
X217798Y35500D02*
X218798D01*
X218298D01*
Y38499D01*
X217798Y37999D01*
X154099Y59299D02*
X153600Y59799D01*
X152600D01*
X152100Y59299D01*
Y57300D01*
X152600Y56800D01*
X153600D01*
X154099Y57300D01*
X155099Y59299D02*
X155599Y59799D01*
X156599D01*
X157098Y59299D01*
Y58799D01*
X156599Y58299D01*
X156099D01*
X156599D01*
X157098Y57800D01*
Y57300D01*
X156599Y56800D01*
X155599D01*
X155099Y57300D01*
X158098Y59299D02*
X158598Y59799D01*
X159598D01*
X160097Y59299D01*
Y57300D01*
X159598Y56800D01*
X158598D01*
X158098Y57300D01*
Y59299D01*
X164499Y68599D02*
X163999Y69099D01*
X163000D01*
X162500Y68599D01*
Y66600D01*
X163000Y66100D01*
X163999D01*
X164499Y66600D01*
X167498Y66100D02*
X165499D01*
X167498Y68099D01*
Y68599D01*
X166999Y69099D01*
X165999D01*
X165499Y68599D01*
X168498D02*
X168998Y69099D01*
X169998D01*
X170497Y68599D01*
Y68099D01*
X169998Y67599D01*
X170497Y67100D01*
Y66600D01*
X169998Y66100D01*
X168998D01*
X168498Y66600D01*
Y67100D01*
X168998Y67599D01*
X168498Y68099D01*
Y68599D01*
X168998Y67599D02*
X169998D01*
X152799Y74999D02*
X152299Y75499D01*
X151300D01*
X150800Y74999D01*
Y73000D01*
X151300Y72500D01*
X152299D01*
X152799Y73000D01*
X155798Y72500D02*
X153799D01*
X155798Y74499D01*
Y74999D01*
X155299Y75499D01*
X154299D01*
X153799Y74999D01*
X156798Y75499D02*
X158797D01*
Y74999D01*
X156798Y73000D01*
Y72500D01*
X193001Y97499D02*
X192501Y97000D01*
Y96000D01*
X193001Y95500D01*
X195000D01*
X195500Y96000D01*
Y97000D01*
X195000Y97499D01*
X195500Y100498D02*
Y98499D01*
X193501Y100498D01*
X193001D01*
X192501Y99999D01*
Y98999D01*
X193001Y98499D01*
X192501Y103497D02*
Y101498D01*
X194000D01*
X193501Y102498D01*
Y102998D01*
X194000Y103497D01*
X195000D01*
X195500Y102998D01*
Y101998D01*
X195000Y101498D01*
X164199Y77799D02*
X163699Y78299D01*
X162700D01*
X162200Y77799D01*
Y75800D01*
X162700Y75300D01*
X163699D01*
X164199Y75800D01*
X167198Y75300D02*
X165199D01*
X167198Y77299D01*
Y77799D01*
X166699Y78299D01*
X165699D01*
X165199Y77799D01*
X169698Y75300D02*
Y78299D01*
X168198Y76799D01*
X170197D01*
X197501Y94499D02*
X197001Y93999D01*
Y93000D01*
X197501Y92500D01*
X199500D01*
X200000Y93000D01*
Y93999D01*
X199500Y94499D01*
X200000Y97498D02*
Y95499D01*
X198001Y97498D01*
X197501D01*
X197001Y96999D01*
Y95999D01*
X197501Y95499D01*
Y98498D02*
X197001Y98998D01*
Y99998D01*
X197501Y100497D01*
X198001D01*
X198501Y99998D01*
Y99498D01*
Y99998D01*
X199000Y100497D01*
X199500D01*
X200000Y99998D01*
Y98998D01*
X199500Y98498D01*
X162899Y84399D02*
X162399Y84899D01*
X161400D01*
X160900Y84399D01*
Y82400D01*
X161400Y81900D01*
X162399D01*
X162899Y82400D01*
X165898Y81900D02*
X163899D01*
X165898Y83899D01*
Y84399D01*
X165399Y84899D01*
X164399D01*
X163899Y84399D01*
X168897Y81900D02*
X166898D01*
X168897Y83899D01*
Y84399D01*
X168398Y84899D01*
X167398D01*
X166898Y84399D01*
X185001Y97499D02*
X184501Y97000D01*
Y96000D01*
X185001Y95500D01*
X187000D01*
X187500Y96000D01*
Y97000D01*
X187000Y97499D01*
X187500Y100498D02*
Y98499D01*
X185501Y100498D01*
X185001D01*
X184501Y99999D01*
Y98999D01*
X185001Y98499D01*
X187500Y101498D02*
Y102498D01*
Y101998D01*
X184501D01*
X185001Y101498D01*
X181001Y97499D02*
X180501Y97000D01*
Y96000D01*
X181001Y95500D01*
X183000D01*
X183500Y96000D01*
Y97000D01*
X183000Y97499D01*
X183500Y100498D02*
Y98499D01*
X181501Y100498D01*
X181001D01*
X180501Y99999D01*
Y98999D01*
X181001Y98499D01*
Y101498D02*
X180501Y101998D01*
Y102998D01*
X181001Y103497D01*
X183000D01*
X183500Y102998D01*
Y101998D01*
X183000Y101498D01*
X181001D01*
X189276Y97499D02*
X188777Y97000D01*
Y96000D01*
X189276Y95500D01*
X191276D01*
X191776Y96000D01*
Y97000D01*
X191276Y97499D01*
X191776Y98499D02*
Y99499D01*
Y98999D01*
X188777D01*
X189276Y98499D01*
X191276Y100998D02*
X191776Y101498D01*
Y102498D01*
X191276Y102998D01*
X189276D01*
X188777Y102498D01*
Y101498D01*
X189276Y100998D01*
X189776D01*
X190276Y101498D01*
Y102998D01*
X163299Y88499D02*
X162800Y88999D01*
X161800D01*
X161300Y88499D01*
Y86500D01*
X161800Y86000D01*
X162800D01*
X163299Y86500D01*
X164299Y86000D02*
X165299D01*
X164799D01*
Y88999D01*
X164299Y88499D01*
X166798D02*
X167298Y88999D01*
X168298D01*
X168798Y88499D01*
Y87999D01*
X168298Y87499D01*
X168798Y87000D01*
Y86500D01*
X168298Y86000D01*
X167298D01*
X166798Y86500D01*
Y87000D01*
X167298Y87499D01*
X166798Y87999D01*
Y88499D01*
X167298Y87499D02*
X168298D01*
X163801Y41499D02*
X163301Y40999D01*
Y40000D01*
X163801Y39500D01*
X165800D01*
X166300Y40000D01*
Y40999D01*
X165800Y41499D01*
X166300Y42499D02*
Y43499D01*
Y42999D01*
X163301D01*
X163801Y42499D01*
X163301Y44998D02*
Y46998D01*
X163801D01*
X165800Y44998D01*
X166300D01*
X16499Y138999D02*
X16000Y139499D01*
X15000D01*
X14500Y138999D01*
Y137000D01*
X15000Y136500D01*
X16000D01*
X16499Y137000D01*
X17499Y138999D02*
X17999Y139499D01*
X18999D01*
X19498Y138999D01*
Y138499D01*
X18999Y137999D01*
X18499D01*
X18999D01*
X19498Y137500D01*
Y137000D01*
X18999Y136500D01*
X17999D01*
X17499Y137000D01*
X22497Y139499D02*
X20498D01*
Y137999D01*
X21498Y138499D01*
X21998D01*
X22497Y137999D01*
Y137000D01*
X21998Y136500D01*
X20998D01*
X20498Y137000D01*
X140101Y47599D02*
X139601Y47100D01*
Y46100D01*
X140101Y45600D01*
X142100D01*
X142600Y46100D01*
Y47100D01*
X142100Y47599D01*
X140101Y48599D02*
X139601Y49099D01*
Y50099D01*
X140101Y50598D01*
X140601D01*
X141101Y50099D01*
X141600Y50598D01*
X142100D01*
X142600Y50099D01*
Y49099D01*
X142100Y48599D01*
X141600D01*
X141101Y49099D01*
X140601Y48599D01*
X140101D01*
X141101Y49099D02*
Y50099D01*
X134701Y52099D02*
X134201Y51600D01*
Y50600D01*
X134701Y50100D01*
X136700D01*
X137200Y50600D01*
Y51600D01*
X136700Y52099D01*
X134201Y53099D02*
Y55098D01*
X134701D01*
X136700Y53099D01*
X137200D01*
X142199Y87499D02*
X141700Y87999D01*
X140700D01*
X140200Y87499D01*
Y85500D01*
X140700Y85000D01*
X141700D01*
X142199Y85500D01*
X145198Y87999D02*
X144199Y87499D01*
X143199Y86500D01*
Y85500D01*
X143699Y85000D01*
X144699D01*
X145198Y85500D01*
Y86000D01*
X144699Y86500D01*
X143199D01*
X118999Y45001D02*
X119499Y45500D01*
Y46500D01*
X118999Y47000D01*
X117000D01*
X116500Y46500D01*
Y45500D01*
X117000Y45001D01*
X116500Y42501D02*
X119499D01*
X117999Y44001D01*
Y42002D01*
X129799Y69199D02*
X129299Y69699D01*
X128300D01*
X127800Y69199D01*
Y67200D01*
X128300Y66700D01*
X129299D01*
X129799Y67200D01*
X130799Y69199D02*
X131299Y69699D01*
X132299D01*
X132798Y69199D01*
Y68699D01*
X132299Y68199D01*
X131799D01*
X132299D01*
X132798Y67700D01*
Y67200D01*
X132299Y66700D01*
X131299D01*
X130799Y67200D01*
X132799Y91399D02*
X132299Y91899D01*
X131300D01*
X130800Y91399D01*
Y89400D01*
X131300Y88900D01*
X132299D01*
X132799Y89400D01*
X135798Y88900D02*
X133799D01*
X135798Y90899D01*
Y91399D01*
X135299Y91899D01*
X134299D01*
X133799Y91399D01*
X99001Y85399D02*
X98501Y84899D01*
Y83900D01*
X99001Y83400D01*
X101000D01*
X101500Y83900D01*
Y84899D01*
X101000Y85399D01*
X101500Y86399D02*
Y87399D01*
Y86899D01*
X98501D01*
X99001Y86399D01*
X169999Y168999D02*
X169500Y169499D01*
X168500D01*
X168000Y168999D01*
Y167000D01*
X168500Y166500D01*
X169500D01*
X169999Y167000D01*
X172499Y166500D02*
Y169499D01*
X170999Y167999D01*
X172998D01*
X175997Y166500D02*
X173998D01*
X175997Y168499D01*
Y168999D01*
X175498Y169499D01*
X174498D01*
X173998Y168999D01*
X60999Y169999D02*
X60500Y170499D01*
X59500D01*
X59000Y169999D01*
Y168000D01*
X59500Y167500D01*
X60500D01*
X60999Y168000D01*
X63998Y170499D02*
X61999D01*
Y169000D01*
X62999Y169499D01*
X63499D01*
X63998Y169000D01*
Y168000D01*
X63499Y167500D01*
X62499D01*
X61999Y168000D01*
X64998Y169999D02*
X65498Y170499D01*
X66498D01*
X66997Y169999D01*
Y169499D01*
X66498Y169000D01*
X65998D01*
X66498D01*
X66997Y168500D01*
Y168000D01*
X66498Y167500D01*
X65498D01*
X64998Y168000D01*
X66500Y83499D02*
Y81000D01*
X67000Y80500D01*
X68000D01*
X68499Y81000D01*
Y83499D01*
X71498Y80500D02*
X69499D01*
X71498Y82499D01*
Y82999D01*
X70999Y83499D01*
X69999D01*
X69499Y82999D01*
X80000Y47500D02*
X82999D01*
Y46000D01*
X82499Y45501D01*
X81499D01*
X81000Y46000D01*
Y47500D01*
Y46500D02*
X80000Y45501D01*
X82999Y42502D02*
X82499Y43501D01*
X81499Y44501D01*
X80500D01*
X80000Y44001D01*
Y43001D01*
X80500Y42502D01*
X81000D01*
X81499Y43001D01*
Y44501D01*
X73600Y47700D02*
X76599D01*
Y46200D01*
X76099Y45701D01*
X75099D01*
X74600Y46200D01*
Y47700D01*
Y46700D02*
X73600Y45701D01*
X76599Y42702D02*
Y44701D01*
X75099D01*
X75599Y43701D01*
Y43201D01*
X75099Y42702D01*
X74100D01*
X73600Y43201D01*
Y44201D01*
X74100Y44701D01*
X69499Y47900D02*
X72498D01*
Y46400D01*
X71998Y45901D01*
X70999D01*
X70499Y46400D01*
Y47900D01*
Y46900D02*
X69499Y45901D01*
Y43401D02*
X72498D01*
X70999Y44901D01*
Y42902D01*
X221500Y16500D02*
Y19499D01*
X223000D01*
X223499Y18999D01*
Y18000D01*
X223000Y17500D01*
X221500D01*
X226498Y19499D02*
X224499D01*
Y18000D01*
X225499Y18499D01*
X225998D01*
X226498Y18000D01*
Y17000D01*
X225998Y16500D01*
X224999D01*
X224499Y17000D01*
X41400Y21800D02*
Y24799D01*
X42900D01*
X43399Y24299D01*
Y23300D01*
X42900Y22800D01*
X41400D01*
X46398Y21800D02*
X44399D01*
X46398Y23799D01*
Y24299D01*
X45899Y24799D01*
X44899D01*
X44399Y24299D01*
X90801Y45099D02*
X90301Y44600D01*
Y43600D01*
X90801Y43100D01*
X92800D01*
X93300Y43600D01*
Y44600D01*
X92800Y45099D01*
X93300Y46099D02*
Y47099D01*
Y46599D01*
X90301D01*
X90801Y46099D01*
X90301Y50598D02*
X90801Y49598D01*
X91800Y48598D01*
X92800D01*
X93300Y49098D01*
Y50098D01*
X92800Y50598D01*
X92300D01*
X91800Y50098D01*
Y48598D01*
X82001Y49099D02*
X81501Y48599D01*
Y47600D01*
X82001Y47100D01*
X84000D01*
X84500Y47600D01*
Y48599D01*
X84000Y49099D01*
X84500Y50099D02*
Y51099D01*
Y50599D01*
X81501D01*
X82001Y50099D01*
X81501Y54598D02*
Y52598D01*
X83000D01*
X82501Y53598D01*
Y54098D01*
X83000Y54598D01*
X84000D01*
X84500Y54098D01*
Y53098D01*
X84000Y52598D01*
X92401Y87099D02*
X91901Y86599D01*
Y85600D01*
X92401Y85100D01*
X94400D01*
X94900Y85600D01*
Y86599D01*
X94400Y87099D01*
X94900Y88099D02*
Y89099D01*
Y88599D01*
X91901D01*
X92401Y88099D01*
X94900Y92098D02*
X91901D01*
X93401Y90598D01*
Y92598D01*
X84501Y91299D02*
X84001Y90799D01*
Y89800D01*
X84501Y89300D01*
X86500D01*
X87000Y89800D01*
Y90799D01*
X86500Y91299D01*
X87000Y92299D02*
Y93299D01*
Y92799D01*
X84001D01*
X84501Y92299D01*
Y94798D02*
X84001Y95298D01*
Y96298D01*
X84501Y96798D01*
X85001D01*
X85501Y96298D01*
Y95798D01*
Y96298D01*
X86000Y96798D01*
X86500D01*
X87000Y96298D01*
Y95298D01*
X86500Y94798D01*
X68499Y45401D02*
X68999Y45900D01*
Y46900D01*
X68499Y47400D01*
X66500D01*
X66000Y46900D01*
Y45900D01*
X66500Y45401D01*
X66000Y44401D02*
Y43401D01*
Y43901D01*
X68999D01*
X68499Y44401D01*
X66000Y39902D02*
Y41902D01*
X67999Y39902D01*
X68499D01*
X68999Y40402D01*
Y41402D01*
X68499Y41902D01*
X99399Y68999D02*
X98900Y69499D01*
X97900D01*
X97400Y68999D01*
Y67000D01*
X97900Y66500D01*
X98900D01*
X99399Y67000D01*
X100399Y66500D02*
X101399D01*
X100899D01*
Y69499D01*
X100399Y68999D01*
X102898Y66500D02*
X103898D01*
X103398D01*
Y69499D01*
X102898Y68999D01*
X79099Y88399D02*
X78600Y88899D01*
X77600D01*
X77100Y88399D01*
Y86400D01*
X77600Y85900D01*
X78600D01*
X79099Y86400D01*
X80099Y85900D02*
X81099D01*
X80599D01*
Y88899D01*
X80099Y88399D01*
X82598D02*
X83098Y88899D01*
X84098D01*
X84598Y88399D01*
Y86400D01*
X84098Y85900D01*
X83098D01*
X82598Y86400D01*
Y88399D01*
X48501Y83999D02*
X48001Y83499D01*
Y82500D01*
X48501Y82000D01*
X50500D01*
X51000Y82500D01*
Y83499D01*
X50500Y83999D01*
Y84999D02*
X51000Y85499D01*
Y86499D01*
X50500Y86998D01*
X48501D01*
X48001Y86499D01*
Y85499D01*
X48501Y84999D01*
X49001D01*
X49501Y85499D01*
Y86998D01*
X202700Y81900D02*
Y82400D01*
Y82150D01*
X201201D01*
X201450Y81900D01*
D64*
X212994Y68801D02*
Y78301D01*
X206194Y66501D02*
X207651D01*
X201094Y68801D02*
Y78301D01*
X206416Y80601D02*
X207794Y80601D01*
M02*
