%FSLAX25Y25*%
%MOIN*%
G70*
G01*
G75*
G04 Layer_Color=8421504*
%ADD10C,0.01969*%
%ADD11R,0.03000X0.03000*%
%ADD12R,0.02500X0.02000*%
%ADD13R,0.03000X0.03200*%
%ADD14O,0.05906X0.01378*%
%ADD15R,0.03000X0.03000*%
%ADD16R,0.05118X0.05906*%
%ADD17R,0.02000X0.02500*%
%ADD18R,0.01102X0.03543*%
%ADD19R,0.03543X0.01102*%
%ADD20R,0.01102X0.03543*%
%ADD21R,0.05906X0.05118*%
%ADD22R,0.02362X0.05709*%
%ADD23O,0.07087X0.01378*%
%ADD24O,0.02756X0.00787*%
%ADD25O,0.00787X0.02756*%
%ADD26R,0.14961X0.14961*%
%ADD27R,0.05709X0.02362*%
%ADD28R,0.04331X0.04724*%
%ADD29C,0.00800*%
%ADD30C,0.05000*%
%ADD31C,0.01500*%
%ADD32C,0.01000*%
%ADD33C,0.02000*%
%ADD34C,0.07500*%
%ADD35C,0.01200*%
%ADD36C,0.02500*%
%ADD37C,0.04000*%
%ADD38C,0.00600*%
%ADD39R,0.10000X0.10000*%
%ADD40R,0.09000X0.14000*%
%ADD41R,0.10500X0.11500*%
%ADD42R,0.85500X0.12500*%
%ADD43R,0.22500X0.12500*%
%ADD44R,0.02000X0.06500*%
%ADD45R,0.07000X0.18000*%
%ADD46R,0.08500X0.07000*%
%ADD47R,0.05906X0.05906*%
%ADD48C,0.05906*%
%ADD49C,0.07874*%
G04:AMPARAMS|DCode=50|XSize=157.48mil|YSize=74.8mil|CornerRadius=18.7mil|HoleSize=0mil|Usage=FLASHONLY|Rotation=0.000|XOffset=0mil|YOffset=0mil|HoleType=Round|Shape=RoundedRectangle|*
%AMROUNDEDRECTD50*
21,1,0.15748,0.03740,0,0,0.0*
21,1,0.12008,0.07480,0,0,0.0*
1,1,0.03740,0.06004,-0.01870*
1,1,0.03740,-0.06004,-0.01870*
1,1,0.03740,-0.06004,0.01870*
1,1,0.03740,0.06004,0.01870*
%
%ADD50ROUNDEDRECTD50*%
G04:AMPARAMS|DCode=51|XSize=118.11mil|YSize=62.99mil|CornerRadius=15.75mil|HoleSize=0mil|Usage=FLASHONLY|Rotation=270.000|XOffset=0mil|YOffset=0mil|HoleType=Round|Shape=RoundedRectangle|*
%AMROUNDEDRECTD51*
21,1,0.11811,0.03150,0,0,270.0*
21,1,0.08661,0.06299,0,0,270.0*
1,1,0.03150,-0.01575,-0.04331*
1,1,0.03150,-0.01575,0.04331*
1,1,0.03150,0.01575,0.04331*
1,1,0.03150,0.01575,-0.04331*
%
%ADD51ROUNDEDRECTD51*%
G04:AMPARAMS|DCode=52|XSize=106.3mil|YSize=66.93mil|CornerRadius=16.73mil|HoleSize=0mil|Usage=FLASHONLY|Rotation=90.000|XOffset=0mil|YOffset=0mil|HoleType=Round|Shape=RoundedRectangle|*
%AMROUNDEDRECTD52*
21,1,0.10630,0.03347,0,0,90.0*
21,1,0.07284,0.06693,0,0,90.0*
1,1,0.03346,0.01673,0.03642*
1,1,0.03346,0.01673,-0.03642*
1,1,0.03346,-0.01673,-0.03642*
1,1,0.03346,-0.01673,0.03642*
%
%ADD52ROUNDEDRECTD52*%
%ADD53C,0.03937*%
%ADD54C,0.03200*%
%ADD55C,0.02598*%
%ADD56C,0.03000*%
%ADD57R,0.07500X0.07000*%
%ADD58R,0.09500X0.07500*%
%ADD59R,0.10900X0.12400*%
%ADD60C,0.02362*%
%ADD61C,0.00984*%
%ADD62C,0.00787*%
%ADD63C,0.00500*%
%ADD64C,0.00425*%
D11*
X193924Y49000D02*
D03*
X188524D02*
D03*
X176700Y87000D02*
D03*
X171300D02*
D03*
X136300Y68000D02*
D03*
X141700D02*
D03*
X136200Y86000D02*
D03*
X130800D02*
D03*
X85800Y68000D02*
D03*
X91200D02*
D03*
X79300Y83000D02*
D03*
X84700D02*
D03*
D12*
X188224Y53000D02*
D03*
X193224D02*
D03*
X49000Y39500D02*
D03*
X44000D02*
D03*
X49000Y44500D02*
D03*
X44000D02*
D03*
X177600Y149100D02*
D03*
X182600D02*
D03*
X177000Y133100D02*
D03*
X172000D02*
D03*
X172000Y129600D02*
D03*
X177000D02*
D03*
X179500Y168000D02*
D03*
X184500D02*
D03*
X67807Y133257D02*
D03*
X62807D02*
D03*
X103207Y161957D02*
D03*
X98207D02*
D03*
X212400Y161800D02*
D03*
X207400D02*
D03*
X103207Y158557D02*
D03*
X98207D02*
D03*
X212400Y158400D02*
D03*
X207400D02*
D03*
X70500Y164500D02*
D03*
X75500D02*
D03*
X179500Y164000D02*
D03*
X184500D02*
D03*
X67807Y129757D02*
D03*
X62807D02*
D03*
X86307Y151757D02*
D03*
X91307D02*
D03*
X93207Y155157D02*
D03*
X98207D02*
D03*
X84307Y155257D02*
D03*
X79307D02*
D03*
X68407Y149257D02*
D03*
X73407D02*
D03*
X57807Y144657D02*
D03*
X62807Y144657D02*
D03*
X70500Y168500D02*
D03*
X75500D02*
D03*
X195500Y151600D02*
D03*
X200500D02*
D03*
X154500Y70000D02*
D03*
X159500D02*
D03*
X168900Y73900D02*
D03*
X163900D02*
D03*
X168900Y70400D02*
D03*
X163900D02*
D03*
X176500Y83000D02*
D03*
X171500D02*
D03*
X210500Y83500D02*
D03*
X205500Y83500D02*
D03*
X208500Y37000D02*
D03*
X203500D02*
D03*
X208500Y33000D02*
D03*
X203500D02*
D03*
X77807Y119157D02*
D03*
X72807D02*
D03*
X193224Y45000D02*
D03*
X188224D02*
D03*
X194000Y33000D02*
D03*
X199000D02*
D03*
X193500Y155100D02*
D03*
X188500D02*
D03*
X202400Y155000D02*
D03*
X207400D02*
D03*
X21000Y134000D02*
D03*
X16000D02*
D03*
X21500Y108000D02*
D03*
X26500D02*
D03*
X156224Y79500D02*
D03*
X161224D02*
D03*
X171224D02*
D03*
X166224D02*
D03*
X163224Y62000D02*
D03*
X168224D02*
D03*
Y58500D02*
D03*
X163224D02*
D03*
X167000Y144500D02*
D03*
X172000Y144500D02*
D03*
X216500Y137000D02*
D03*
X211500D02*
D03*
D13*
X59000Y44500D02*
D03*
X53500D02*
D03*
X59000Y39500D02*
D03*
X53500Y39500D02*
D03*
D14*
X44000Y113882D02*
D03*
Y116441D02*
D03*
Y119000D02*
D03*
Y121559D02*
D03*
Y124118D02*
D03*
Y126677D02*
D03*
Y129236D02*
D03*
X21165Y113882D02*
D03*
Y116441D02*
D03*
Y119000D02*
D03*
Y121559D02*
D03*
Y124118D02*
D03*
Y126677D02*
D03*
Y129236D02*
D03*
X129713Y59543D02*
D03*
Y62102D02*
D03*
Y64661D02*
D03*
Y67220D02*
D03*
Y69779D02*
D03*
Y72339D02*
D03*
Y74898D02*
D03*
Y77457D02*
D03*
X106287Y59543D02*
D03*
Y62102D02*
D03*
Y64661D02*
D03*
Y67220D02*
D03*
Y69779D02*
D03*
Y72339D02*
D03*
Y74898D02*
D03*
Y77457D02*
D03*
X79213Y59543D02*
D03*
Y62102D02*
D03*
Y64661D02*
D03*
Y67220D02*
D03*
Y69779D02*
D03*
Y72339D02*
D03*
Y74898D02*
D03*
Y77457D02*
D03*
X55787Y59543D02*
D03*
Y62102D02*
D03*
Y64661D02*
D03*
Y67220D02*
D03*
Y69779D02*
D03*
Y72339D02*
D03*
Y74898D02*
D03*
Y77457D02*
D03*
D15*
X85500Y57800D02*
D03*
Y63200D02*
D03*
X190000Y88700D02*
D03*
Y83300D02*
D03*
X198500Y88700D02*
D03*
Y83300D02*
D03*
X136000Y57800D02*
D03*
Y63200D02*
D03*
X100500Y73800D02*
D03*
Y79200D02*
D03*
X136000Y78200D02*
D03*
Y72800D02*
D03*
X85500Y78200D02*
D03*
Y72800D02*
D03*
X49500Y73800D02*
D03*
Y79200D02*
D03*
D16*
X66807Y138757D02*
D03*
X59327D02*
D03*
X176000Y138600D02*
D03*
X168520D02*
D03*
X251240Y49000D02*
D03*
X243760D02*
D03*
X251240Y72000D02*
D03*
X243760D02*
D03*
D17*
X93207Y163957D02*
D03*
Y158957D02*
D03*
X202400Y163800D02*
D03*
Y158800D02*
D03*
X84407Y158957D02*
D03*
Y163957D02*
D03*
X193600Y158800D02*
D03*
Y163800D02*
D03*
X75307Y160257D02*
D03*
Y155257D02*
D03*
X184500Y160100D02*
D03*
Y155100D02*
D03*
X106000Y132000D02*
D03*
Y137000D02*
D03*
X11500Y116000D02*
D03*
Y121000D02*
D03*
X121500Y50000D02*
D03*
Y55000D02*
D03*
X125000D02*
D03*
Y50000D02*
D03*
X128500D02*
D03*
Y55000D02*
D03*
X161000Y40500D02*
D03*
Y45500D02*
D03*
X182500Y88000D02*
D03*
Y83000D02*
D03*
X186000D02*
D03*
Y88000D02*
D03*
X194000Y83000D02*
D03*
Y88000D02*
D03*
X205000Y47000D02*
D03*
Y52000D02*
D03*
X201000Y47000D02*
D03*
Y52000D02*
D03*
X9100Y78500D02*
D03*
Y83500D02*
D03*
X8500Y132000D02*
D03*
Y127000D02*
D03*
X118000Y55000D02*
D03*
Y50000D02*
D03*
X215500Y74000D02*
D03*
Y69000D02*
D03*
X78000Y50000D02*
D03*
Y55000D02*
D03*
X74500D02*
D03*
Y50000D02*
D03*
X71000D02*
D03*
Y55000D02*
D03*
X67500Y50000D02*
D03*
Y55000D02*
D03*
D18*
X201004Y146581D02*
D03*
X199036Y146581D02*
D03*
X193130D02*
D03*
X191161D02*
D03*
X189193D02*
D03*
X197067D02*
D03*
X195098D02*
D03*
X187224D02*
D03*
X195098Y123619D02*
D03*
X197067D02*
D03*
X199036D02*
D03*
X191161D02*
D03*
X193130D02*
D03*
X201004Y123619D02*
D03*
X187224Y123619D02*
D03*
X202972Y123619D02*
D03*
Y146581D02*
D03*
X91811Y146738D02*
D03*
X89843Y146738D02*
D03*
X83937D02*
D03*
X81969D02*
D03*
X80000D02*
D03*
X87874D02*
D03*
X85906D02*
D03*
X78031D02*
D03*
X85906Y123776D02*
D03*
X87874D02*
D03*
X89843D02*
D03*
X81969D02*
D03*
X83937D02*
D03*
X91811Y123776D02*
D03*
X78031Y123776D02*
D03*
X93780Y123776D02*
D03*
Y146738D02*
D03*
D19*
X206481Y127128D02*
D03*
Y129096D02*
D03*
Y135002D02*
D03*
Y136970D02*
D03*
Y138939D02*
D03*
Y131064D02*
D03*
Y133033D02*
D03*
Y140907D02*
D03*
X183519D02*
D03*
Y133033D02*
D03*
Y131064D02*
D03*
Y129096D02*
D03*
Y136970D02*
D03*
Y127128D02*
D03*
X206481Y142876D02*
D03*
X183519Y142876D02*
D03*
Y138939D02*
D03*
Y135002D02*
D03*
X97288Y127285D02*
D03*
Y129253D02*
D03*
Y135159D02*
D03*
Y137127D02*
D03*
Y139096D02*
D03*
Y131222D02*
D03*
Y133190D02*
D03*
Y141064D02*
D03*
X74326D02*
D03*
Y133190D02*
D03*
Y131222D02*
D03*
Y129253D02*
D03*
Y137127D02*
D03*
Y127285D02*
D03*
X97288Y143033D02*
D03*
X74326Y143033D02*
D03*
Y139096D02*
D03*
Y135159D02*
D03*
D20*
X189193Y123619D02*
D03*
X80000Y123776D02*
D03*
D21*
X171000Y9760D02*
D03*
X171000Y17240D02*
D03*
X142000Y62240D02*
D03*
Y54760D02*
D03*
X148500Y16740D02*
D03*
Y9260D02*
D03*
X142500Y73760D02*
D03*
Y81240D02*
D03*
X91500Y62240D02*
D03*
Y54760D02*
D03*
Y73760D02*
D03*
Y81240D02*
D03*
D22*
X156248Y17323D02*
D03*
X163752Y17323D02*
D03*
X160000Y25000D02*
D03*
D23*
X179496Y38161D02*
D03*
Y40720D02*
D03*
Y43279D02*
D03*
Y45839D02*
D03*
X166504Y38161D02*
D03*
Y40720D02*
D03*
Y43279D02*
D03*
Y45839D02*
D03*
D24*
X173382Y73299D02*
D03*
Y71724D02*
D03*
Y70150D02*
D03*
Y68575D02*
D03*
Y67000D02*
D03*
Y65425D02*
D03*
Y63850D02*
D03*
Y62276D02*
D03*
Y60701D02*
D03*
X193067D02*
D03*
Y62276D02*
D03*
Y63850D02*
D03*
Y65425D02*
D03*
Y67000D02*
D03*
Y68575D02*
D03*
Y70150D02*
D03*
Y71724D02*
D03*
Y73299D02*
D03*
D25*
X176925Y57157D02*
D03*
X178500D02*
D03*
X180075D02*
D03*
X181650D02*
D03*
X183224D02*
D03*
X184799D02*
D03*
X186374D02*
D03*
X187949D02*
D03*
X189524D02*
D03*
Y76842D02*
D03*
X187949D02*
D03*
X186374D02*
D03*
X184799D02*
D03*
X183224D02*
D03*
X181650D02*
D03*
X180075D02*
D03*
X178500D02*
D03*
X176925D02*
D03*
D26*
X183224Y67000D02*
D03*
D27*
X251339Y60500D02*
D03*
X243661Y56748D02*
D03*
X243661Y64252D02*
D03*
D28*
X203494Y68799D02*
D03*
X210494D02*
D03*
X203494Y78201D02*
D03*
X210506D02*
D03*
M02*
