%FSLAX25Y25*%
%MOIN*%
G70*
G01*
G75*
G04 Layer_Physical_Order=2*
G04 Layer_Color=16711680*
%ADD10C,0.01969*%
%ADD11R,0.03000X0.03000*%
%ADD12R,0.02500X0.02000*%
%ADD13R,0.03000X0.03200*%
%ADD14O,0.05906X0.01378*%
%ADD15R,0.03000X0.03000*%
%ADD16R,0.05118X0.05906*%
%ADD17R,0.02000X0.02500*%
%ADD18R,0.01102X0.03543*%
%ADD19R,0.03543X0.01102*%
%ADD20R,0.01102X0.03543*%
%ADD21R,0.05906X0.05118*%
%ADD22R,0.02362X0.05709*%
%ADD23O,0.07087X0.01378*%
%ADD24O,0.02756X0.00787*%
%ADD25O,0.00787X0.02756*%
%ADD26R,0.14961X0.14961*%
%ADD27R,0.05709X0.02362*%
%ADD28R,0.04331X0.04724*%
%ADD29C,0.00800*%
%ADD30C,0.05000*%
%ADD31C,0.01500*%
%ADD32C,0.01000*%
%ADD33C,0.02000*%
%ADD34C,0.07500*%
%ADD35C,0.01200*%
%ADD36C,0.02500*%
%ADD37C,0.04000*%
%ADD38C,0.00600*%
%ADD39R,0.10000X0.10000*%
%ADD40R,0.09000X0.14000*%
%ADD41R,0.10500X0.11500*%
%ADD42R,0.85500X0.12500*%
%ADD43R,0.22500X0.12500*%
%ADD44R,0.02000X0.06500*%
%ADD45R,0.07000X0.18000*%
%ADD46R,0.08500X0.07000*%
%ADD47R,0.05906X0.05906*%
%ADD48C,0.05906*%
%ADD49C,0.07874*%
G04:AMPARAMS|DCode=50|XSize=157.48mil|YSize=74.8mil|CornerRadius=18.7mil|HoleSize=0mil|Usage=FLASHONLY|Rotation=0.000|XOffset=0mil|YOffset=0mil|HoleType=Round|Shape=RoundedRectangle|*
%AMROUNDEDRECTD50*
21,1,0.15748,0.03740,0,0,0.0*
21,1,0.12008,0.07480,0,0,0.0*
1,1,0.03740,0.06004,-0.01870*
1,1,0.03740,-0.06004,-0.01870*
1,1,0.03740,-0.06004,0.01870*
1,1,0.03740,0.06004,0.01870*
%
%ADD50ROUNDEDRECTD50*%
G04:AMPARAMS|DCode=51|XSize=118.11mil|YSize=62.99mil|CornerRadius=15.75mil|HoleSize=0mil|Usage=FLASHONLY|Rotation=270.000|XOffset=0mil|YOffset=0mil|HoleType=Round|Shape=RoundedRectangle|*
%AMROUNDEDRECTD51*
21,1,0.11811,0.03150,0,0,270.0*
21,1,0.08661,0.06299,0,0,270.0*
1,1,0.03150,-0.01575,-0.04331*
1,1,0.03150,-0.01575,0.04331*
1,1,0.03150,0.01575,0.04331*
1,1,0.03150,0.01575,-0.04331*
%
%ADD51ROUNDEDRECTD51*%
G04:AMPARAMS|DCode=52|XSize=106.3mil|YSize=66.93mil|CornerRadius=16.73mil|HoleSize=0mil|Usage=FLASHONLY|Rotation=90.000|XOffset=0mil|YOffset=0mil|HoleType=Round|Shape=RoundedRectangle|*
%AMROUNDEDRECTD52*
21,1,0.10630,0.03347,0,0,90.0*
21,1,0.07284,0.06693,0,0,90.0*
1,1,0.03346,0.01673,0.03642*
1,1,0.03346,0.01673,-0.03642*
1,1,0.03346,-0.01673,-0.03642*
1,1,0.03346,-0.01673,0.03642*
%
%ADD52ROUNDEDRECTD52*%
%ADD53C,0.03937*%
%ADD54C,0.03200*%
%ADD55C,0.02598*%
%ADD56C,0.03000*%
%ADD57R,0.07500X0.07000*%
%ADD58R,0.09500X0.07500*%
%ADD59R,0.10900X0.12400*%
G36*
X274500Y147421D02*
Y13013D01*
X273519Y12818D01*
X273030Y14000D01*
X272235Y15035D01*
X271200Y15830D01*
X269994Y16329D01*
X268700Y16499D01*
X267406Y16329D01*
X266200Y15830D01*
X265165Y15035D01*
X264370Y14000D01*
X263871Y12794D01*
X263701Y11500D01*
X263871Y10206D01*
X264370Y9000D01*
X265165Y7965D01*
X266200Y7170D01*
X267406Y6671D01*
X268700Y6500D01*
X269994Y6671D01*
X271200Y7170D01*
X272235Y7965D01*
X273030Y9000D01*
X273519Y10182D01*
X274500Y9987D01*
Y2500D01*
X249342D01*
X248687Y3298D01*
X248637Y3404D01*
X249431Y4371D01*
X250034Y5500D01*
X250406Y6726D01*
X250531Y8000D01*
X250406Y9274D01*
X250034Y10499D01*
X249431Y11629D01*
X248618Y12618D01*
X247629Y13431D01*
X246499Y14034D01*
X245274Y14406D01*
X244000Y14532D01*
X242726Y14406D01*
X241500Y14034D01*
X240371Y13431D01*
X239382Y12618D01*
X238569Y11629D01*
X237966Y10499D01*
X237594Y9274D01*
X237469Y8000D01*
X237594Y6726D01*
X237966Y5500D01*
X238569Y4371D01*
X239363Y3404D01*
X239313Y3298D01*
X238658Y2500D01*
X222197D01*
X221641Y3331D01*
X221778Y3660D01*
X221869Y4358D01*
Y11642D01*
X221778Y12340D01*
X221508Y12990D01*
X221461Y13052D01*
X221686Y13509D01*
X222599Y13629D01*
X223451Y13982D01*
X224182Y14543D01*
X227759Y18120D01*
X232650D01*
X233564Y18240D01*
X234415Y18593D01*
X235146Y19154D01*
X235146Y19154D01*
X235146Y19154D01*
X242696Y26704D01*
X243257Y27435D01*
X243610Y28286D01*
X243730Y29200D01*
X243730Y29200D01*
X243730Y29200D01*
Y29200D01*
Y37674D01*
X244614Y37790D01*
X245465Y38143D01*
X246196Y38704D01*
X247496Y40004D01*
X248057Y40735D01*
X248410Y41586D01*
X248530Y42500D01*
X248410Y43414D01*
X248057Y44265D01*
X247496Y44996D01*
X246765Y45557D01*
X245914Y45910D01*
X245000Y46030D01*
X241500D01*
X240586Y45910D01*
X239735Y45557D01*
X239004Y44996D01*
X238443Y44265D01*
X238440Y44260D01*
X238435Y44257D01*
X237704Y43696D01*
X237143Y42965D01*
X236790Y42114D01*
X236670Y41200D01*
Y30662D01*
X231188Y25180D01*
X226297D01*
X225383Y25060D01*
X224532Y24707D01*
X223801Y24146D01*
X220223Y20569D01*
X209166D01*
X208723Y21466D01*
X208873Y21660D01*
X209172Y22382D01*
X209274Y23157D01*
X209172Y23932D01*
X208873Y24655D01*
X209429Y24888D01*
X208929Y24953D01*
Y27881D01*
Y30810D01*
X208654Y30774D01*
X207932Y30475D01*
X207312Y29999D01*
X206836Y29379D01*
X206679Y29000D01*
X205679D01*
X205522Y29379D01*
X205046Y29999D01*
X204426Y30475D01*
X203704Y30774D01*
X202929Y30876D01*
X202154Y30774D01*
X201432Y30475D01*
X200812Y29999D01*
X200380Y29436D01*
X199380D01*
X198948Y29999D01*
X198328Y30475D01*
X197606Y30774D01*
X196831Y30876D01*
X196056Y30774D01*
X195334Y30475D01*
X194714Y29999D01*
X194238Y29379D01*
X193939Y28657D01*
X193936Y28638D01*
X193240Y28128D01*
D01*
X193240Y28128D01*
D01*
X192000Y28291D01*
X190760Y28128D01*
X190499Y28020D01*
X187000D01*
X186610Y27942D01*
X186279Y27721D01*
X186058Y27390D01*
X185980Y27000D01*
Y22413D01*
X185959Y22250D01*
X185980Y22087D01*
Y20000D01*
X186058Y19610D01*
X186279Y19279D01*
X186610Y19058D01*
X187000Y18980D01*
X187272D01*
X187362Y18862D01*
X188355Y18101D01*
X189510Y17622D01*
X190518Y17490D01*
X193465Y14543D01*
X193465D01*
X193465Y14543D01*
X193465Y14543D01*
Y14543D01*
X194196Y13982D01*
X195047Y13629D01*
X195961Y13509D01*
X212807D01*
X213362Y12677D01*
X213222Y12340D01*
X213130Y11642D01*
Y4358D01*
X213222Y3660D01*
X213359Y3331D01*
X212803Y2500D01*
X193457D01*
X192901Y3331D01*
X193037Y3660D01*
X193129Y4358D01*
Y11642D01*
X193037Y12340D01*
X192768Y12990D01*
X192340Y13548D01*
X191781Y13977D01*
X191131Y14246D01*
X190433Y14338D01*
X187087D01*
X186389Y14246D01*
X185739Y13977D01*
X185180Y13548D01*
X184751Y12990D01*
X184482Y12340D01*
X184390Y11642D01*
Y4358D01*
X184482Y3660D01*
X184618Y3331D01*
X184063Y2500D01*
X17342D01*
X16687Y3298D01*
X16637Y3404D01*
X17431Y4371D01*
X18034Y5500D01*
X18406Y6726D01*
X18531Y8000D01*
X18406Y9274D01*
X18034Y10499D01*
X17431Y11629D01*
X16618Y12618D01*
X15629Y13431D01*
X14500Y14034D01*
X13274Y14406D01*
X12000Y14532D01*
X10726Y14406D01*
X9500Y14034D01*
X8371Y13431D01*
X7382Y12618D01*
X6569Y11629D01*
X5966Y10499D01*
X5594Y9274D01*
X5469Y8000D01*
X5594Y6726D01*
X5966Y5500D01*
X6569Y4371D01*
X7363Y3404D01*
X7313Y3298D01*
X6658Y2500D01*
X-13500D01*
Y174500D01*
X274500D01*
Y147421D01*
D02*
G37*
%LPC*%
G36*
X209929Y30810D02*
Y28382D01*
X212357D01*
X212321Y28657D01*
X212022Y29379D01*
X211546Y29999D01*
X210926Y30475D01*
X210204Y30774D01*
X209929Y30810D01*
D02*
G37*
G36*
X32500Y43070D02*
X31211Y42900D01*
X30010Y42403D01*
X28979Y41612D01*
X28188Y40580D01*
X27690Y39379D01*
X27520Y38091D01*
X27690Y36802D01*
X28188Y35601D01*
X28979Y34569D01*
X30010Y33778D01*
X31211Y33281D01*
X32500Y33111D01*
X33789Y33281D01*
X34990Y33778D01*
X36021Y34569D01*
X36812Y35601D01*
X37310Y36802D01*
X37480Y38091D01*
X37310Y39379D01*
X36812Y40580D01*
X36021Y41612D01*
X34990Y42403D01*
X33789Y42900D01*
X32500Y43070D01*
D02*
G37*
G36*
X119475Y34228D02*
X116325D01*
X115653Y34139D01*
X115027Y33880D01*
X114489Y33467D01*
X114076Y32929D01*
X113817Y32303D01*
X113728Y31631D01*
Y22969D01*
X113817Y22297D01*
X114076Y21671D01*
X114489Y21133D01*
X115027Y20720D01*
X115653Y20461D01*
X116325Y20372D01*
X119475D01*
X120147Y20461D01*
X120773Y20720D01*
X121311Y21133D01*
X121724Y21671D01*
X121983Y22297D01*
X122072Y22969D01*
Y31631D01*
X121983Y32303D01*
X121724Y32929D01*
X121311Y33467D01*
X120773Y33880D01*
X120147Y34139D01*
X119475Y34228D01*
D02*
G37*
G36*
X212357Y27382D02*
X209929D01*
Y24954D01*
X210204Y24990D01*
X210926Y25289D01*
X211546Y25765D01*
X212022Y26385D01*
X212321Y27107D01*
X212357Y27382D01*
D02*
G37*
G36*
X1400Y52487D02*
X368Y52351D01*
X-593Y51953D01*
X-1419Y51319D01*
X-2053Y50493D01*
X-2451Y49532D01*
X-2587Y48500D01*
X-2451Y47468D01*
X-2053Y46507D01*
X-1419Y45681D01*
X-593Y45047D01*
X368Y44649D01*
X1400Y44513D01*
X2432Y44649D01*
X3393Y45047D01*
X4219Y45681D01*
X4853Y46507D01*
X5251Y47468D01*
X5387Y48500D01*
X5251Y49532D01*
X4853Y50493D01*
X4219Y51319D01*
X3393Y51953D01*
X2432Y52351D01*
X1400Y52487D01*
D02*
G37*
G36*
X228100Y53500D02*
X224647D01*
Y50047D01*
X228100D01*
Y53500D01*
D02*
G37*
G36*
X1400Y42487D02*
X368Y42351D01*
X-593Y41953D01*
X-1419Y41319D01*
X-2053Y40493D01*
X-2451Y39532D01*
X-2587Y38500D01*
X-2451Y37468D01*
X-2053Y36507D01*
X-1419Y35681D01*
X-593Y35047D01*
X368Y34649D01*
X1400Y34513D01*
X2432Y34649D01*
X3393Y35047D01*
X4219Y35681D01*
X4853Y36507D01*
X5251Y37468D01*
X5387Y38500D01*
X5251Y39532D01*
X4853Y40493D01*
X4219Y41319D01*
X3393Y41953D01*
X2432Y42351D01*
X1400Y42487D01*
D02*
G37*
G36*
X164000Y12622D02*
X163321Y12533D01*
X162689Y12271D01*
X162146Y11854D01*
X161729Y11311D01*
X161467Y10679D01*
X161378Y10000D01*
X161467Y9321D01*
X161729Y8689D01*
X162146Y8146D01*
X162689Y7729D01*
X163321Y7467D01*
X164000Y7378D01*
X164679Y7467D01*
X165311Y7729D01*
X165854Y8146D01*
X166271Y8689D01*
X166533Y9321D01*
X166622Y10000D01*
X166533Y10679D01*
X166271Y11311D01*
X165854Y11854D01*
X165311Y12271D01*
X164679Y12533D01*
X164000Y12622D01*
D02*
G37*
G36*
X72475Y34228D02*
X69325D01*
X68653Y34139D01*
X68027Y33880D01*
X67489Y33467D01*
X67076Y32929D01*
X66817Y32303D01*
X66728Y31631D01*
Y22969D01*
X66817Y22297D01*
X67076Y21671D01*
X67489Y21133D01*
X68027Y20720D01*
X68653Y20461D01*
X69325Y20372D01*
X72475D01*
X73147Y20461D01*
X73773Y20720D01*
X74311Y21133D01*
X74724Y21671D01*
X74983Y22297D01*
X75072Y22969D01*
Y31631D01*
X74983Y32303D01*
X74724Y32929D01*
X74311Y33467D01*
X73773Y33880D01*
X73147Y34139D01*
X72475Y34228D01*
D02*
G37*
G36*
X76904Y14348D02*
X71400D01*
Y10084D01*
X79799D01*
Y11453D01*
X79700Y12203D01*
X79411Y12901D01*
X78951Y13500D01*
X78351Y13961D01*
X77653Y14250D01*
X76904Y14348D01*
D02*
G37*
G36*
X117400D02*
X111896D01*
X111147Y14250D01*
X110449Y13961D01*
X109849Y13500D01*
X109389Y12901D01*
X109100Y12203D01*
X109001Y11453D01*
Y10084D01*
X117400D01*
Y14348D01*
D02*
G37*
G36*
X37414Y12000D02*
X33000D01*
Y7586D01*
X33789Y7690D01*
X34990Y8187D01*
X36021Y8979D01*
X36812Y10010D01*
X37310Y11211D01*
X37414Y12000D01*
D02*
G37*
G36*
X70400Y14348D02*
X64896D01*
X64147Y14250D01*
X63449Y13961D01*
X62849Y13500D01*
X62389Y12901D01*
X62100Y12203D01*
X62001Y11453D01*
Y10084D01*
X70400D01*
Y14348D01*
D02*
G37*
G36*
X33000Y17414D02*
Y13000D01*
X37414D01*
X37310Y13789D01*
X36812Y14990D01*
X36021Y16021D01*
X34990Y16813D01*
X33789Y17310D01*
X33000Y17414D01*
D02*
G37*
G36*
X32000Y12000D02*
X27586D01*
X27690Y11211D01*
X28188Y10010D01*
X28979Y8979D01*
X30010Y8187D01*
X31211Y7690D01*
X32000Y7586D01*
Y12000D01*
D02*
G37*
G36*
X123904Y14348D02*
X118400D01*
Y10084D01*
X126799D01*
Y11453D01*
X126700Y12203D01*
X126411Y12901D01*
X125951Y13500D01*
X125351Y13961D01*
X124653Y14250D01*
X123904Y14348D01*
D02*
G37*
G36*
X32000Y17414D02*
X31211Y17310D01*
X30010Y16813D01*
X28979Y16021D01*
X28188Y14990D01*
X27690Y13789D01*
X27586Y13000D01*
X32000D01*
Y17414D01*
D02*
G37*
G36*
X117400Y9083D02*
X109001D01*
Y7713D01*
X109100Y6964D01*
X109389Y6266D01*
X109849Y5666D01*
X110449Y5206D01*
X111147Y4917D01*
X111896Y4818D01*
X117400D01*
Y9083D01*
D02*
G37*
G36*
X99600Y152494D02*
X73100D01*
X72222Y152320D01*
X71478Y151822D01*
X66073Y146417D01*
X65496Y146178D01*
X64953Y145762D01*
X64536Y145219D01*
X64274Y144586D01*
X64185Y143907D01*
X64274Y143228D01*
X64536Y142596D01*
X64953Y142053D01*
X65496Y141636D01*
X66128Y141374D01*
X66807Y141285D01*
X67486Y141374D01*
X68118Y141636D01*
X68661Y142053D01*
X69078Y142596D01*
X69317Y143173D01*
X74050Y147906D01*
X98650D01*
X104678Y141878D01*
X104678D01*
X104678Y141878D01*
X104678Y141878D01*
Y141878D01*
X105422Y141381D01*
X106300Y141206D01*
X163050D01*
X172378Y131878D01*
X173122Y131380D01*
X174000Y131206D01*
X177189D01*
X187698Y120698D01*
X187698D01*
X187698Y120698D01*
X187698Y120698D01*
Y120698D01*
X188524Y120145D01*
X189500Y119951D01*
X213944D01*
X236451Y97444D01*
Y76816D01*
X235699Y76157D01*
X235225Y76219D01*
X210322Y101122D01*
X210459Y101573D01*
X217923D01*
X217979Y101439D01*
X218396Y100896D01*
X218939Y100479D01*
X219571Y100217D01*
X220250Y100128D01*
X220929Y100217D01*
X221561Y100479D01*
X222104Y100896D01*
X222521Y101439D01*
X222783Y102071D01*
X222872Y102750D01*
X222783Y103429D01*
X222521Y104061D01*
X222104Y104604D01*
X221561Y105021D01*
X220929Y105283D01*
X220250Y105372D01*
X219571Y105283D01*
X218939Y105021D01*
X218396Y104604D01*
X218260Y104427D01*
X200430D01*
X200271Y104811D01*
X199854Y105354D01*
X199311Y105771D01*
X198679Y106033D01*
X198000Y106122D01*
X197321Y106033D01*
X196689Y105771D01*
X196146Y105354D01*
X195729Y104811D01*
X195547Y104373D01*
X194928Y104250D01*
X194429Y104315D01*
X192122Y106622D01*
X191378Y107120D01*
X190500Y107294D01*
X135029D01*
X114451Y127872D01*
X113707Y128369D01*
X112829Y128544D01*
X95629D01*
X94751Y128369D01*
X94007Y127872D01*
X93479Y127344D01*
X75868D01*
X74990Y127170D01*
X74246Y126672D01*
X73321Y125748D01*
X72807Y125815D01*
X72128Y125726D01*
X71552Y125487D01*
X71193D01*
X70315Y125312D01*
X69571Y124815D01*
X62100Y117344D01*
X51539D01*
Y124000D01*
X51539Y124000D01*
X51384Y124780D01*
X50942Y125442D01*
X50942Y125442D01*
X42442Y133942D01*
X41780Y134384D01*
X41000Y134539D01*
X27845D01*
X26942Y135442D01*
X26280Y135884D01*
X25815Y135976D01*
X25679Y136033D01*
X25000Y136122D01*
X24321Y136033D01*
X23689Y135771D01*
X23146Y135354D01*
X22729Y134811D01*
X22467Y134179D01*
X22378Y133500D01*
X22467Y132821D01*
X22729Y132189D01*
X23146Y131646D01*
X23689Y131229D01*
X24321Y130967D01*
X25000Y130878D01*
X25679Y130967D01*
X25688Y130971D01*
X26220Y130616D01*
X26507Y130559D01*
X26507D01*
X26691Y130522D01*
X26738Y130168D01*
X26801Y129525D01*
X26189Y129271D01*
X25646Y128854D01*
X25229Y128311D01*
X24967Y127679D01*
X24878Y127000D01*
X24967Y126321D01*
X25229Y125689D01*
X25646Y125146D01*
X26189Y124729D01*
X26821Y124467D01*
X27500Y124378D01*
X28179Y124467D01*
X28811Y124729D01*
X29354Y125146D01*
X29682Y125573D01*
X34818D01*
X35146Y125146D01*
X35689Y124729D01*
X36321Y124467D01*
X37000Y124378D01*
X37679Y124467D01*
X38311Y124729D01*
X38854Y125146D01*
X39271Y125689D01*
X39533Y126321D01*
X39622Y127000D01*
X39533Y127679D01*
X39271Y128311D01*
X38854Y128854D01*
X38311Y129271D01*
X37679Y129533D01*
X37000Y129622D01*
Y129754D01*
X37707Y130461D01*
X40155D01*
X47461Y123155D01*
Y117344D01*
X37100D01*
X34522Y119922D01*
X33778Y120420D01*
X32900Y120594D01*
X21000D01*
X20122Y120420D01*
X19378Y119922D01*
X18880Y119178D01*
X18706Y118300D01*
Y114699D01*
X18700Y114694D01*
X12056D01*
X11479Y114933D01*
X10800Y115022D01*
X10121Y114933D01*
X9489Y114671D01*
X8946Y114254D01*
X8529Y113711D01*
X8267Y113079D01*
X8178Y112400D01*
X8267Y111721D01*
X8529Y111089D01*
X8946Y110546D01*
X9489Y110129D01*
X10121Y109867D01*
X10800Y109778D01*
X11479Y109867D01*
X12056Y110106D01*
X17750D01*
X19378Y108478D01*
X19378D01*
X19378Y108478D01*
X21478Y106378D01*
X22222Y105880D01*
X23100Y105706D01*
X28744D01*
X29321Y105467D01*
X30000Y105378D01*
X30679Y105467D01*
X31311Y105729D01*
X31854Y106146D01*
X32271Y106689D01*
X32533Y107321D01*
X32622Y108000D01*
X32533Y108679D01*
X32271Y109311D01*
X31854Y109854D01*
X31311Y110271D01*
X30679Y110533D01*
X30000Y110622D01*
Y110666D01*
X30707Y111373D01*
X71300D01*
X71300Y111373D01*
X71846Y111481D01*
X72309Y111791D01*
X77249Y116730D01*
X79625D01*
X79953Y116303D01*
X80496Y115886D01*
X80573Y115854D01*
Y112000D01*
X80573Y112000D01*
X80681Y111454D01*
X80991Y110991D01*
X82141Y109841D01*
X82141Y109841D01*
X82604Y109531D01*
X82604Y109531D01*
X82604Y109531D01*
D01*
X82604Y109531D01*
X82604Y109531D01*
X83150Y109423D01*
X83150Y109423D01*
X109150D01*
X109150Y109423D01*
X109696Y109531D01*
X109709Y109540D01*
X110529Y108911D01*
X110267Y108279D01*
X110178Y107600D01*
X110267Y106921D01*
X110529Y106289D01*
X110946Y105746D01*
X111489Y105329D01*
X112121Y105067D01*
X112800Y104978D01*
X113479Y105067D01*
X114111Y105329D01*
X114654Y105746D01*
X115071Y106289D01*
X115333Y106921D01*
X115422Y107600D01*
X115352Y108133D01*
X115509Y108291D01*
X115509Y108291D01*
X115695Y108568D01*
X115819Y108754D01*
X115927Y109300D01*
Y114100D01*
X115927Y114100D01*
X115819Y114646D01*
X115509Y115109D01*
X115509Y115109D01*
X114672Y115947D01*
X114679Y115967D01*
X115311Y116229D01*
X115854Y116646D01*
X116271Y117189D01*
X116533Y117821D01*
X116558Y118009D01*
X117505Y118330D01*
X132457Y103378D01*
X132457D01*
X132457Y103378D01*
X132457D01*
X132457Y103378D01*
Y103378D01*
X132457Y103378D01*
Y103378D01*
X133201Y102881D01*
X134079Y102706D01*
X138155D01*
X138538Y101782D01*
X125253Y88497D01*
X124255Y88563D01*
X123954Y88954D01*
X123411Y89371D01*
X123029Y89529D01*
Y94867D01*
X124259Y96096D01*
X124400Y96078D01*
X125079Y96167D01*
X125711Y96429D01*
X126254Y96846D01*
X126671Y97389D01*
X126933Y98021D01*
X127022Y98700D01*
X126933Y99379D01*
X126671Y100011D01*
X126254Y100554D01*
X125711Y100971D01*
X125079Y101233D01*
X124400Y101322D01*
X123721Y101233D01*
X123089Y100971D01*
X122546Y100554D01*
X122129Y100011D01*
X121867Y99379D01*
X121798Y98856D01*
X120807Y98725D01*
X120771Y98811D01*
X120354Y99354D01*
X119811Y99771D01*
X119179Y100033D01*
X118500Y100122D01*
X117821Y100033D01*
X117127Y100453D01*
X117122Y100500D01*
X117122Y100500D01*
X117122D01*
X117033Y101179D01*
X116771Y101811D01*
X116354Y102354D01*
X115811Y102771D01*
X115179Y103033D01*
X114500Y103122D01*
X113821Y103033D01*
X113189Y102771D01*
X112646Y102354D01*
X112229Y101811D01*
X111967Y101179D01*
X111878Y100500D01*
X111967Y99821D01*
X112229Y99189D01*
X112646Y98646D01*
X113189Y98229D01*
X113821Y97967D01*
X113973Y97947D01*
Y92963D01*
X113551Y92414D01*
X112551Y92447D01*
X112509Y92509D01*
X110927Y94091D01*
Y99000D01*
X110927Y99000D01*
X110819Y99546D01*
X110550Y99949D01*
X110622Y100500D01*
X110533Y101179D01*
X110271Y101811D01*
X109854Y102354D01*
X109311Y102771D01*
X108679Y103033D01*
X108000Y103122D01*
X107321Y103033D01*
X107033Y103821D01*
X107122Y104500D01*
X107033Y105179D01*
X106771Y105811D01*
X106354Y106354D01*
X105811Y106771D01*
X105179Y107033D01*
X104500Y107122D01*
X103821Y107033D01*
X103189Y106771D01*
X102646Y106354D01*
X102229Y105811D01*
X101967Y105179D01*
X101878Y104500D01*
X101958Y103891D01*
X101521Y103833D01*
X100889Y103571D01*
X100346Y103154D01*
X99754Y103254D01*
X99211Y103671D01*
X98579Y103933D01*
X97900Y104022D01*
X97221Y103933D01*
X96589Y103671D01*
X96046Y103254D01*
X95962Y103145D01*
X94962D01*
X94954Y103154D01*
X94411Y103571D01*
X93779Y103833D01*
X93100Y103922D01*
X92421Y103833D01*
X91789Y103571D01*
X91246Y103154D01*
X90829Y102611D01*
X90567Y101979D01*
X90478Y101300D01*
X90567Y100621D01*
X90829Y99989D01*
X91246Y99446D01*
X91673Y99118D01*
Y95400D01*
X91673Y95400D01*
X91781Y94854D01*
X92091Y94391D01*
X92448Y94033D01*
X92378Y93500D01*
X92467Y92821D01*
X92729Y92189D01*
X93146Y91646D01*
X93689Y91229D01*
X94321Y90967D01*
X95000Y90878D01*
X95679Y90967D01*
X96311Y91229D01*
X96859Y91138D01*
X96891Y91091D01*
X97227Y90754D01*
X97157Y90220D01*
X97246Y89542D01*
X97508Y88909D01*
X97925Y88366D01*
X98468Y87949D01*
X99101Y87687D01*
X99779Y87598D01*
X100458Y87687D01*
X101091Y87949D01*
X101634Y88366D01*
X102051Y88909D01*
X102313Y89542D01*
X102402Y90220D01*
X102721Y90567D01*
X102721Y90567D01*
X102721Y90567D01*
X103400Y90478D01*
X104079Y90567D01*
X104711Y90829D01*
X105254Y91246D01*
X105671Y91789D01*
X105933Y92421D01*
X106022Y93100D01*
D01*
D01*
X106500Y93378D01*
X107179Y93467D01*
X107259Y93500D01*
X107301D01*
X108164Y93038D01*
X108181Y92954D01*
X108491Y92491D01*
X109777Y91204D01*
X109629Y91011D01*
X109367Y90379D01*
X109278Y89700D01*
X109367Y89021D01*
X109629Y88389D01*
X110046Y87846D01*
X110589Y87429D01*
X110589Y87429D01*
X110589D01*
X110606Y87418D01*
X110769Y86511D01*
X110507Y85879D01*
X110418Y85200D01*
X110507Y84521D01*
X110769Y83889D01*
X111186Y83346D01*
X111729Y82929D01*
X112361Y82667D01*
X113040Y82578D01*
X113719Y82667D01*
X114351Y82929D01*
X114894Y83346D01*
X115311Y83889D01*
X115573Y84521D01*
X115663Y85200D01*
X115620Y85525D01*
X116303Y86255D01*
X116446Y86246D01*
X116989Y85829D01*
X117621Y85567D01*
X118300Y85478D01*
X118979Y85567D01*
X119611Y85829D01*
X119629Y85842D01*
X119829Y85789D01*
X120246Y85246D01*
X120637Y84945D01*
X120703Y83947D01*
X116050Y79294D01*
X108937D01*
X107771Y80189D01*
X108033Y80821D01*
X108122Y81500D01*
X108033Y82179D01*
X107771Y82811D01*
X107354Y83354D01*
X106811Y83771D01*
X106179Y84033D01*
X105500Y84122D01*
X104821Y84033D01*
X104189Y83771D01*
X103646Y83354D01*
X103318Y82927D01*
X65930D01*
X65771Y83311D01*
X65354Y83854D01*
X64811Y84271D01*
X64179Y84533D01*
X63500Y84622D01*
X62821Y84533D01*
X62189Y84271D01*
X61646Y83854D01*
X61229Y83311D01*
X60967Y82679D01*
X60878Y82000D01*
X60967Y81321D01*
X61229Y80689D01*
X61646Y80146D01*
X62189Y79729D01*
X62821Y79467D01*
X63500Y79378D01*
X64179Y79467D01*
X64811Y79729D01*
X65259Y80073D01*
X85321D01*
X85611Y79116D01*
X84888Y78632D01*
X79550Y73294D01*
X48950D01*
X47122Y75122D01*
X46378Y75619D01*
X45500Y75794D01*
X25256D01*
X24679Y76033D01*
X24000Y76122D01*
X23321Y76033D01*
X22689Y75771D01*
X22146Y75354D01*
X21729Y74811D01*
X21467Y74179D01*
X21378Y73500D01*
X21467Y72821D01*
X21729Y72189D01*
X22146Y71646D01*
X22689Y71229D01*
X23321Y70967D01*
X24000Y70878D01*
X24679Y70967D01*
X25256Y71206D01*
X44550D01*
X46378Y69378D01*
X47122Y68881D01*
X48000Y68706D01*
X80500D01*
X81378Y68881D01*
X82122Y69378D01*
X82122Y69378D01*
X82122Y69378D01*
X87460Y74716D01*
X90909D01*
X92824Y74335D01*
X94167Y73779D01*
X94078Y73100D01*
X94167Y72421D01*
X94429Y71789D01*
X94846Y71246D01*
X95389Y70829D01*
X96021Y70567D01*
X96700Y70478D01*
X97379Y70567D01*
X98011Y70829D01*
X98554Y71246D01*
X98919Y71721D01*
X105395D01*
X107461Y69655D01*
Y64539D01*
X98614D01*
X98311Y64771D01*
X97679Y65033D01*
X97000Y65122D01*
X96321Y65033D01*
X95689Y64771D01*
X95146Y64354D01*
X94729Y63811D01*
X94467Y63179D01*
X94378Y62500D01*
X94467Y61821D01*
X94729Y61189D01*
X95146Y60646D01*
X95689Y60229D01*
X96321Y59967D01*
X97000Y59878D01*
X97679Y59967D01*
X98311Y60229D01*
X98614Y60461D01*
X107461D01*
Y58500D01*
X107461Y58500D01*
X107461D01*
X107616Y57720D01*
X108058Y57058D01*
X139280Y25836D01*
Y17000D01*
X139358Y16610D01*
X139579Y16279D01*
X139910Y16058D01*
X140300Y15980D01*
X151200D01*
X151590Y16058D01*
X151921Y16279D01*
X152142Y16610D01*
X152212Y16961D01*
X161500D01*
X162280Y17116D01*
X162942Y17558D01*
X162942Y17558D01*
X162942Y17558D01*
X178745Y33361D01*
X208600D01*
X209380Y33516D01*
X210042Y33958D01*
X210042Y33958D01*
X210042Y33958D01*
X212442Y36358D01*
X212884Y37020D01*
X213039Y37800D01*
X213039Y37800D01*
X213039Y37800D01*
Y37800D01*
Y40159D01*
X213936Y40601D01*
X214007Y40547D01*
X214968Y40149D01*
X216000Y40013D01*
X217032Y40149D01*
X217993Y40547D01*
X218819Y41181D01*
X219418Y41961D01*
X225182D01*
X225781Y41181D01*
X226607Y40547D01*
X227568Y40149D01*
X228600Y40013D01*
X229632Y40149D01*
X230593Y40547D01*
X231419Y41181D01*
X232053Y42007D01*
X232451Y42968D01*
X232587Y44000D01*
X232451Y45032D01*
X232053Y45993D01*
X231419Y46819D01*
X230593Y47453D01*
X229632Y47851D01*
X228600Y47987D01*
X227568Y47851D01*
X226607Y47453D01*
X225781Y46819D01*
X225182Y46039D01*
X219418D01*
X218819Y46819D01*
X217993Y47453D01*
X217032Y47851D01*
X216000Y47987D01*
X215792Y48408D01*
X217431Y50047D01*
X219953D01*
Y57953D01*
X212047D01*
Y50431D01*
X210558Y48942D01*
X210116Y48280D01*
X210110Y48252D01*
X209558Y47699D01*
X209116Y47038D01*
X208961Y46257D01*
Y38645D01*
X207755Y37439D01*
X189207D01*
X189004Y37642D01*
X188954Y38407D01*
X188954D01*
X188952Y38437D01*
X189179Y38467D01*
X189330Y38529D01*
X189330D01*
X189811Y38729D01*
X190354Y39146D01*
X190385Y39185D01*
X191611D01*
X191913Y38953D01*
X192546Y38691D01*
X193224Y38602D01*
X193903Y38691D01*
X194536Y38953D01*
X195079Y39370D01*
X195495Y39913D01*
X195757Y40546D01*
X195847Y41224D01*
X195757Y41903D01*
X195495Y42536D01*
X195079Y43079D01*
X194536Y43496D01*
X193903Y43758D01*
X193224Y43847D01*
X192546Y43758D01*
X191913Y43496D01*
X191611Y43264D01*
X189821D01*
X189811Y43271D01*
X189179Y43533D01*
X188500Y43622D01*
X187821Y43533D01*
X187189Y43271D01*
X187179Y43264D01*
X180224D01*
X179444Y43108D01*
X178782Y42666D01*
X178013Y41897D01*
X177089Y42280D01*
Y72775D01*
X177925Y73611D01*
X193805D01*
X196961Y70455D01*
Y70113D01*
X196729Y69811D01*
X196467Y69179D01*
X196378Y68500D01*
X196467Y67821D01*
X196729Y67189D01*
X197146Y66646D01*
X197689Y66229D01*
X198321Y65967D01*
X199000Y65878D01*
X199679Y65967D01*
X200311Y66229D01*
X200854Y66646D01*
X201271Y67189D01*
X201533Y67821D01*
X201622Y68500D01*
X201533Y69179D01*
X201271Y69811D01*
X201039Y70113D01*
Y71300D01*
X200884Y72080D01*
X200442Y72742D01*
X197902Y75282D01*
X198284Y76206D01*
X202550D01*
X212878Y65878D01*
X212878D01*
X212878Y65878D01*
X212878Y65878D01*
Y65878D01*
X213622Y65381D01*
X214500Y65206D01*
X228050D01*
X229878Y63378D01*
X229878D01*
X229878Y63378D01*
X229878Y63378D01*
Y63378D01*
X230622Y62881D01*
X231500Y62706D01*
X237744D01*
X238321Y62467D01*
X239000Y62378D01*
X239679Y62467D01*
X240311Y62729D01*
X240854Y63146D01*
X241271Y63689D01*
X241533Y64321D01*
X241622Y65000D01*
X241533Y65679D01*
X241271Y66311D01*
X240854Y66854D01*
X240311Y67271D01*
X239679Y67533D01*
X239000Y67622D01*
D01*
X239155Y67824D01*
X239479Y67867D01*
X239630Y67929D01*
X239630D01*
X240111Y68129D01*
X240654Y68546D01*
X241071Y69089D01*
X241333Y69721D01*
X241422Y70400D01*
X241333Y71079D01*
X241071Y71711D01*
X240654Y72254D01*
X240111Y72671D01*
X239479Y72933D01*
X239479Y72933D01*
X239479D01*
X239486Y72942D01*
X239679Y72967D01*
X240311Y73229D01*
D01*
X240311D01*
X240311Y73229D01*
X240854Y73646D01*
X241271Y74189D01*
X241533Y74821D01*
X241622Y75500D01*
X241549Y76058D01*
Y98500D01*
X241355Y99476D01*
X240802Y100302D01*
X216802Y124302D01*
X215975Y124855D01*
X215000Y125049D01*
X190556D01*
X180302Y135302D01*
X178549Y137056D01*
Y143192D01*
X178622Y143750D01*
X178533Y144429D01*
X178400Y144751D01*
X178355Y144975D01*
X177802Y145802D01*
X176976Y146355D01*
X176000Y146549D01*
X175024Y146355D01*
X174198Y145802D01*
X173645Y144975D01*
X173600Y144751D01*
X173467Y144429D01*
X173378Y143750D01*
X173451Y143192D01*
Y138600D01*
X172527Y138217D01*
X165622Y145122D01*
X164878Y145619D01*
X164000Y145794D01*
X107250D01*
X101222Y151822D01*
X100478Y152320D01*
X99600Y152494D01*
D02*
G37*
G36*
X1400Y82487D02*
X368Y82351D01*
X-593Y81953D01*
X-1419Y81319D01*
X-2053Y80493D01*
X-2451Y79532D01*
X-2587Y78500D01*
X-2451Y77468D01*
X-2053Y76507D01*
X-1419Y75681D01*
X-593Y75047D01*
X368Y74649D01*
X1400Y74513D01*
X2432Y74649D01*
X3393Y75047D01*
X4219Y75681D01*
X4853Y76507D01*
X5251Y77468D01*
X5387Y78500D01*
X5251Y79532D01*
X4853Y80493D01*
X4219Y81319D01*
X3393Y81953D01*
X2432Y82351D01*
X1400Y82487D01*
D02*
G37*
G36*
X5353Y92453D02*
X-2553D01*
Y84547D01*
X5353D01*
Y92453D01*
D02*
G37*
G36*
X79799Y9083D02*
X71400D01*
Y4818D01*
X76904D01*
X77653Y4917D01*
X78351Y5206D01*
X78951Y5666D01*
X79411Y6266D01*
X79700Y6964D01*
X79799Y7713D01*
Y9083D01*
D02*
G37*
G36*
X244000Y152031D02*
X242726Y151906D01*
X241500Y151534D01*
X240371Y150931D01*
X239382Y150118D01*
X238569Y149129D01*
X237966Y148000D01*
X237594Y146774D01*
X237469Y145500D01*
X237594Y144226D01*
X237966Y143000D01*
X238569Y141871D01*
X239382Y140882D01*
X240371Y140069D01*
X241500Y139466D01*
X242726Y139094D01*
X244000Y138969D01*
X245274Y139094D01*
X246499Y139466D01*
X247629Y140069D01*
X248618Y140882D01*
X249431Y141871D01*
X250034Y143000D01*
X250406Y144226D01*
X250531Y145500D01*
X250406Y146774D01*
X250034Y148000D01*
X249431Y149129D01*
X248618Y150118D01*
X247629Y150931D01*
X246499Y151534D01*
X245274Y151906D01*
X244000Y152031D01*
D02*
G37*
G36*
X12000Y152531D02*
X10726Y152406D01*
X9500Y152034D01*
X8371Y151431D01*
X7382Y150618D01*
X6569Y149629D01*
X5966Y148500D01*
X5594Y147274D01*
X5469Y146000D01*
X5594Y144726D01*
X5966Y143500D01*
X6569Y142371D01*
X7382Y141382D01*
X8371Y140569D01*
X9500Y139966D01*
X10726Y139594D01*
X12000Y139469D01*
X13274Y139594D01*
X14500Y139966D01*
X15629Y140569D01*
X16618Y141382D01*
X17431Y142371D01*
X18034Y143500D01*
X18406Y144726D01*
X18531Y146000D01*
X18406Y147274D01*
X18034Y148500D01*
X17431Y149629D01*
X16618Y150618D01*
X15629Y151431D01*
X14500Y152034D01*
X13274Y152406D01*
X12000Y152531D01*
D02*
G37*
G36*
X70400Y9083D02*
X62001D01*
Y7713D01*
X62100Y6964D01*
X62389Y6266D01*
X62849Y5666D01*
X63449Y5206D01*
X64147Y4917D01*
X64896Y4818D01*
X70400D01*
Y9083D01*
D02*
G37*
G36*
X-7200Y142400D02*
X-8494Y142229D01*
X-9700Y141730D01*
X-10735Y140935D01*
X-11530Y139900D01*
X-12029Y138694D01*
X-12200Y137400D01*
X-12029Y136106D01*
X-11530Y134900D01*
X-10735Y133865D01*
X-9700Y133070D01*
X-8494Y132571D01*
X-7200Y132401D01*
X-5906Y132571D01*
X-4700Y133070D01*
X-3665Y133865D01*
X-2870Y134900D01*
X-2371Y136106D01*
X-2200Y137400D01*
X-2371Y138694D01*
X-2870Y139900D01*
X-3665Y140935D01*
X-4700Y141730D01*
X-5906Y142229D01*
X-7200Y142400D01*
D02*
G37*
G36*
X232553Y57953D02*
X229100D01*
Y54500D01*
X232553D01*
Y57953D01*
D02*
G37*
G36*
X1400Y62487D02*
X368Y62351D01*
X-593Y61953D01*
X-1419Y61319D01*
X-2053Y60493D01*
X-2451Y59532D01*
X-2587Y58500D01*
X-2451Y57468D01*
X-2053Y56507D01*
X-1419Y55681D01*
X-593Y55047D01*
X368Y54649D01*
X1400Y54513D01*
X2432Y54649D01*
X3393Y55047D01*
X4219Y55681D01*
X4853Y56507D01*
X5251Y57468D01*
X5387Y58500D01*
X5251Y59532D01*
X4853Y60493D01*
X4219Y61319D01*
X3393Y61953D01*
X2432Y62351D01*
X1400Y62487D01*
D02*
G37*
G36*
X232553Y53500D02*
X229100D01*
Y50047D01*
X232553D01*
Y53500D01*
D02*
G37*
G36*
X228100Y57953D02*
X224647D01*
Y54500D01*
X228100D01*
Y57953D01*
D02*
G37*
G36*
X900Y68000D02*
X-2521D01*
X-2451Y67468D01*
X-2053Y66507D01*
X-1419Y65681D01*
X-593Y65047D01*
X368Y64649D01*
X900Y64579D01*
Y68000D01*
D02*
G37*
G36*
Y72421D02*
X368Y72351D01*
X-593Y71953D01*
X-1419Y71319D01*
X-2053Y70493D01*
X-2451Y69532D01*
X-2521Y69000D01*
X900D01*
Y72421D01*
D02*
G37*
G36*
X1900D02*
Y69000D01*
X5321D01*
X5251Y69532D01*
X4853Y70493D01*
X4219Y71319D01*
X3393Y71953D01*
X2432Y72351D01*
X1900Y72421D01*
D02*
G37*
G36*
X5321Y68000D02*
X1900D01*
Y64579D01*
X2432Y64649D01*
X3393Y65047D01*
X4219Y65681D01*
X4853Y66507D01*
X5251Y67468D01*
X5321Y68000D01*
D02*
G37*
G36*
X126799Y9083D02*
X118400D01*
Y4818D01*
X123904D01*
X124653Y4917D01*
X125351Y5206D01*
X125951Y5666D01*
X126411Y6266D01*
X126700Y6964D01*
X126799Y7713D01*
Y9083D01*
D02*
G37*
%LPD*%
G36*
X96711Y116791D02*
X96727Y116294D01*
X96727Y116294D01*
D01*
X96546Y116154D01*
X96129Y115611D01*
X95867Y114979D01*
X95778Y114300D01*
X95867Y113621D01*
X96079Y113109D01*
X95862Y112784D01*
X95202Y112277D01*
X91720D01*
X91061Y113029D01*
X91122Y113500D01*
X91033Y114179D01*
X90771Y114811D01*
X90354Y115354D01*
X89927Y115682D01*
Y116909D01*
X91691Y118673D01*
X94829D01*
X96711Y116791D01*
D02*
G37*
G36*
X109427Y123125D02*
X109367Y122979D01*
X109278Y122300D01*
X109348Y121766D01*
X108209Y120627D01*
X98891D01*
X97009Y122509D01*
X96546Y122819D01*
X96000Y122927D01*
D01*
X96579Y123956D01*
X108872D01*
X109427Y123125D01*
D02*
G37*
G36*
X193878Y97878D02*
X193878D01*
X193878Y97878D01*
X193878Y97878D01*
Y97878D01*
X194622Y97381D01*
X195500Y97206D01*
X207750D01*
X236178Y68778D01*
X236922Y68281D01*
X236726Y67294D01*
X232450D01*
X230622Y69122D01*
X229878Y69619D01*
X229000Y69794D01*
X215450D01*
X205122Y80122D01*
X204378Y80619D01*
X203500Y80794D01*
X175900D01*
X175022Y80619D01*
X174278Y80122D01*
X172101Y77946D01*
X171177Y78328D01*
Y88940D01*
X171379Y88967D01*
X172011Y89229D01*
X172554Y89646D01*
X172971Y90189D01*
X173100Y90500D01*
X174100D01*
X174229Y90189D01*
X174646Y89646D01*
X175189Y89229D01*
X175821Y88967D01*
X176500Y88878D01*
X177179Y88967D01*
X177811Y89229D01*
X178354Y89646D01*
X178771Y90189D01*
X179033Y90821D01*
X179122Y91500D01*
X179033Y92179D01*
X178794Y92756D01*
Y93500D01*
X178620Y94378D01*
X178122Y95122D01*
X175962Y97282D01*
X176345Y98206D01*
X193550D01*
X193878Y97878D01*
D02*
G37*
G36*
X166546Y63346D02*
X167089Y62929D01*
X167721Y62667D01*
X168400Y62578D01*
X169079Y62667D01*
X169906Y60670D01*
Y46150D01*
X166550Y42794D01*
X158256D01*
X157679Y43033D01*
X157000Y43122D01*
X156321Y43033D01*
X155689Y42771D01*
X155146Y42354D01*
X154729Y41811D01*
X154467Y41179D01*
X154378Y40500D01*
X154467Y39821D01*
X154729Y39189D01*
X155146Y38646D01*
X155689Y38229D01*
X156321Y37967D01*
X157000Y37878D01*
X157679Y37967D01*
X158256Y38206D01*
X167500D01*
X168378Y38381D01*
X169015Y38806D01*
X169649Y38033D01*
X159155Y27539D01*
X152220D01*
Y29400D01*
X152142Y29790D01*
X151921Y30121D01*
X151590Y30342D01*
X151200Y30420D01*
X150794D01*
Y44550D01*
X164847Y58602D01*
X165344Y59346D01*
X165518Y60224D01*
Y63129D01*
X166465Y63450D01*
X166546Y63346D01*
D02*
G37*
G36*
X165038Y97282D02*
X164378Y96622D01*
X163881Y95878D01*
X163706Y95000D01*
Y88000D01*
X163881Y87122D01*
X164378Y86378D01*
X164378Y86378D01*
X164378Y86378D01*
X165206Y85550D01*
Y72450D01*
X161602Y68847D01*
X161317Y68419D01*
X160330Y68256D01*
X160311Y68271D01*
X159679Y68533D01*
X159000Y68622D01*
X158321Y68533D01*
X157689Y68271D01*
X157146Y67854D01*
X156729Y67311D01*
X156467Y66679D01*
X156378Y66000D01*
X156467Y65321D01*
X156729Y64689D01*
X156961Y64386D01*
Y61845D01*
X143558Y48442D01*
X143116Y47780D01*
X142961Y47000D01*
Y33230D01*
X142037Y32847D01*
X138039Y36845D01*
Y49155D01*
X148472Y59589D01*
X148811Y59729D01*
X149354Y60146D01*
X149771Y60689D01*
X150033Y61321D01*
X150122Y62000D01*
X150033Y62679D01*
X149771Y63311D01*
X149539Y63613D01*
Y71363D01*
X149594Y71406D01*
X150011Y71949D01*
X150273Y72581D01*
X150363Y73260D01*
X150273Y73939D01*
X150011Y74571D01*
X149594Y75114D01*
X149051Y75531D01*
X148419Y75793D01*
X147740Y75882D01*
X147061Y75793D01*
X146429Y75531D01*
X145886Y75114D01*
X145469Y74571D01*
X145207Y73939D01*
X145118Y73260D01*
X145207Y72581D01*
X145461Y71969D01*
Y63613D01*
X145229Y63311D01*
X144967Y62679D01*
X144878Y62000D01*
X144905Y61789D01*
X134558Y51442D01*
X134116Y50780D01*
X133961Y50000D01*
Y38230D01*
X133037Y37847D01*
X111539Y59345D01*
Y62500D01*
X111539Y62500D01*
X111539Y62500D01*
Y62500D01*
Y70500D01*
X111384Y71280D01*
X110942Y71942D01*
X109102Y73782D01*
X109485Y74706D01*
X117000D01*
X117878Y74881D01*
X118622Y75378D01*
X141450Y98206D01*
X164655D01*
X165038Y97282D01*
D02*
G37*
D10*
X269687Y11500D02*
G03*
X269687Y11500I-987J0D01*
G01*
X-6213Y137400D02*
G03*
X-6213Y137400I-987J0D01*
G01*
D29*
X82000Y117964D02*
Y118500D01*
Y112000D02*
X83150Y110850D01*
X109150D01*
X111300Y113000D01*
X102200Y94300D02*
X103400Y93100D01*
X102200Y94300D02*
Y101300D01*
X93100Y95400D02*
X95000Y93500D01*
X93100Y95400D02*
Y101300D01*
X115400Y87560D02*
Y99600D01*
X114500Y100500D02*
X115400Y99600D01*
X97900Y92100D02*
X99779Y90220D01*
X97900Y92100D02*
Y101400D01*
X112200Y116400D02*
X114500Y114100D01*
Y109300D02*
Y114100D01*
X100500Y116400D02*
X112200D01*
X112800Y107600D02*
X114500Y109300D01*
X98400Y114300D02*
X100500Y116400D01*
X197500Y103000D02*
X220000D01*
X27500Y127000D02*
X37000D01*
X197500Y103000D02*
X198000Y103500D01*
X104500Y104500D02*
X104900Y104100D01*
Y97600D02*
X106500Y96000D01*
X104900Y97600D02*
Y104100D01*
X108000Y100500D02*
X109500Y99000D01*
Y93500D02*
Y99000D01*
Y93500D02*
X111500Y91500D01*
X81807Y118157D02*
X82000Y117964D01*
Y112000D02*
Y117964D01*
X88500Y113500D02*
Y117500D01*
X69500Y116500D02*
X70500D01*
X76657Y118157D02*
X81807D01*
X113040Y85200D02*
X115400Y87560D01*
X70500Y116500D02*
X75500Y121500D01*
X96000D02*
X98300Y119200D01*
X108800D01*
X111900Y122300D01*
X75500Y121500D02*
X96000D01*
X113300Y117800D02*
X114000Y118500D01*
X95420Y120100D02*
X97720Y117800D01*
X91100Y120100D02*
X95420D01*
X88500Y117500D02*
X91100Y120100D01*
X97720Y117800D02*
X113300D01*
X63500Y82000D02*
X64000Y81500D01*
X105500D01*
X168400Y65200D02*
Y69218D01*
X169750Y70568D01*
Y90550D01*
X170700Y91500D01*
X27000Y113500D02*
X27700Y112800D01*
X71300D01*
X76657Y118157D01*
D30*
X195961Y17039D02*
X221686D01*
X232650Y21650D02*
X240200Y29200D01*
X243700Y41200D02*
X245000Y42500D01*
X221686Y17039D02*
X226297Y21650D01*
X232650D01*
X240200Y29200D02*
Y41200D01*
X241500Y42500D02*
X245000D01*
X190750Y22250D02*
X195961Y17039D01*
X240200Y41200D02*
X243700D01*
D32*
X117500Y96500D02*
X118500Y97500D01*
X117500Y89500D02*
Y96500D01*
X121500Y88600D02*
X122100Y88000D01*
X121500Y88600D02*
Y95500D01*
X117500Y89500D02*
X118300Y88700D01*
Y88100D02*
Y88700D01*
X121500Y87120D02*
Y87400D01*
Y87120D02*
X121520Y87100D01*
X122100D01*
X124400Y98400D02*
Y98700D01*
X121500Y95500D02*
X124400Y98400D01*
X121500Y87400D02*
X122100Y88000D01*
D33*
X109500Y58500D02*
X142000Y26000D01*
X109500Y58500D02*
Y62500D01*
X145000Y23500D02*
Y27000D01*
X136000Y36000D02*
X145000Y27000D01*
Y47000D01*
X147500Y73020D02*
X147740Y73260D01*
X136000Y50000D02*
X147500Y61500D01*
X136000Y36000D02*
Y50000D01*
X159000Y61000D02*
Y66000D01*
X145000Y47000D02*
X159000Y61000D01*
X147500Y61500D02*
Y62000D01*
Y73020D01*
X142000Y25000D02*
X144000Y23000D01*
X142000Y25000D02*
Y26000D01*
X106240Y73760D02*
X109500Y70500D01*
Y62500D02*
Y70500D01*
X97000Y62500D02*
X109500D01*
X212000Y47257D02*
Y47500D01*
X216000Y51500D01*
Y54000D01*
Y44000D02*
X227000D01*
X148500Y23500D02*
X150500Y25500D01*
X160000D01*
X144000Y19000D02*
X161500D01*
X27000Y132500D02*
X41000D01*
X49500Y124000D01*
Y116000D02*
Y124000D01*
X25000Y133500D02*
X25500Y134000D01*
X96260Y73760D02*
X96700Y73320D01*
Y73100D02*
Y73320D01*
X147500Y23000D02*
X148500D01*
X162000D01*
X199000Y68500D02*
Y71300D01*
X194650Y75650D02*
X199000Y71300D01*
X177081Y75650D02*
X194650D01*
X175050Y73620D02*
X177081Y75650D01*
X160000Y25500D02*
X175050Y40550D01*
Y73620D01*
X161500Y19000D02*
X177900Y35400D01*
X162000Y23000D02*
X180224Y41224D01*
X177900Y35400D02*
X208600D01*
X142000Y26000D02*
X145000Y23000D01*
X96260Y73760D02*
X106240D01*
X180224Y41224D02*
X193224D01*
X208600Y35400D02*
X211000Y37800D01*
Y46257D01*
X212000Y47257D01*
X25500Y134000D02*
X27000Y132500D01*
D34*
X190750Y22250D02*
X192000Y23500D01*
D36*
X173000Y97000D02*
X176500Y93500D01*
X168000Y97000D02*
X173000D01*
X166000Y95000D02*
X168000Y97000D01*
X166000Y88000D02*
Y95000D01*
Y88000D02*
X167500Y86500D01*
X163224Y60224D02*
Y64724D01*
X176500Y91500D02*
Y93500D01*
X164000Y143500D02*
X174000Y133500D01*
X178500D01*
X163224Y64724D02*
Y67224D01*
X167500Y71500D01*
Y86500D01*
X106990Y77010D02*
X107000Y77000D01*
X80500Y71000D02*
X86510Y77010D01*
X48000Y71000D02*
X80500D01*
X24000Y73500D02*
X45500D01*
X48000Y71000D01*
X86510Y77010D02*
X106990D01*
X231500Y65000D02*
X239000D01*
X203500Y78500D02*
X214500Y67500D01*
X229000D02*
X231500Y65000D01*
X214500Y67500D02*
X229000D01*
X194500Y100500D02*
X195500Y99500D01*
X140500Y100500D02*
X194500D01*
X148500Y45500D02*
X163224Y60224D01*
X148500Y23500D02*
Y45500D01*
X157000Y40500D02*
X167500D01*
X107000Y77000D02*
X117000D01*
X140500Y100500D01*
X145000Y23000D02*
X147500D01*
X148500D02*
Y23500D01*
X66807Y143907D02*
X73100Y150200D01*
X106300Y143500D02*
X164000D01*
X73100Y150200D02*
X99600D01*
X106300Y143500D01*
X94429Y125050D02*
X95629Y126250D01*
X75868Y125050D02*
X94429D01*
X74011Y123193D02*
X75868Y125050D01*
X71193Y123193D02*
X72807D01*
X74011D01*
X95629Y126250D02*
X112829D01*
X134079Y105000D01*
X190500D01*
X167500Y40500D02*
X172200Y45200D01*
Y74800D01*
X175900Y78500D01*
X203500D01*
X36150Y115050D02*
X63050D01*
X32900Y118300D02*
X36150Y115050D01*
X63050D02*
X71193Y123193D01*
X21000Y110100D02*
X23100Y108000D01*
X30000D01*
X21000Y110100D02*
Y118300D01*
X32900D01*
X208700Y99500D02*
X237800Y70400D01*
X190500Y105000D02*
X196000Y99500D01*
X195500D02*
X196000D01*
X208700D01*
X10800Y112400D02*
X18700D01*
X21000Y110100D01*
D43*
X70650Y10650D02*
D03*
X116650Y10750D02*
D03*
D47*
X216000Y54000D02*
D03*
X228600D02*
D03*
X1400Y88500D02*
D03*
D48*
X216000Y44000D02*
D03*
X228600D02*
D03*
X1400Y78500D02*
D03*
Y68500D02*
D03*
Y58500D02*
D03*
Y48500D02*
D03*
Y38500D02*
D03*
D49*
X32500Y38091D02*
D03*
Y12500D02*
D03*
X12100Y146200D02*
D03*
X244000Y145600D02*
D03*
X244100Y7900D02*
D03*
X11800D02*
D03*
D50*
X117900Y9584D02*
D03*
X70900D02*
D03*
D51*
X117900Y27300D02*
D03*
X70900D02*
D03*
D52*
X217500Y8000D02*
D03*
X188760D02*
D03*
D53*
X209429Y27882D02*
D03*
X202929D02*
D03*
X196831Y27882D02*
D03*
X206279Y23157D02*
D03*
X199929Y23382D02*
D03*
D54*
X251300Y65200D02*
D03*
X97900Y101400D02*
D03*
X93100Y101300D02*
D03*
X112300Y97000D02*
D03*
X112800Y107600D02*
D03*
X111300Y113000D02*
D03*
X98400Y114300D02*
D03*
X-10500Y153000D02*
D03*
Y159000D02*
D03*
Y165500D02*
D03*
Y172000D02*
D03*
Y145000D02*
D03*
X-2500Y153000D02*
D03*
Y159000D02*
D03*
Y165500D02*
D03*
Y172000D02*
D03*
Y145000D02*
D03*
X264000Y68000D02*
D03*
Y78000D02*
D03*
Y152000D02*
D03*
Y158000D02*
D03*
Y164500D02*
D03*
Y171000D02*
D03*
Y111500D02*
D03*
Y104000D02*
D03*
Y96500D02*
D03*
Y121000D02*
D03*
Y129000D02*
D03*
Y136500D02*
D03*
Y144000D02*
D03*
Y86500D02*
D03*
X134000Y17500D02*
D03*
X180000Y13000D02*
D03*
X179500Y31000D02*
D03*
X172000Y24500D02*
D03*
X175500Y28000D02*
D03*
X148000Y56500D02*
D03*
X132500Y54000D02*
D03*
X104000D02*
D03*
X207500Y94500D02*
D03*
X216500Y98500D02*
D03*
X72807Y123193D02*
D03*
X193500Y25000D02*
D03*
X189000D02*
D03*
X55000Y119000D02*
D03*
X207500Y117500D02*
D03*
X197500Y49000D02*
D03*
X144000Y23000D02*
D03*
X219500Y74000D02*
D03*
X-7600Y42900D02*
D03*
X190000Y93000D02*
D03*
X186000Y92500D02*
D03*
X148500Y23000D02*
D03*
X172500Y150000D02*
D03*
X59000Y48500D02*
D03*
X69500Y116500D02*
D03*
X188500Y136000D02*
D03*
X167500Y128500D02*
D03*
X109357Y131857D02*
D03*
X60500Y150500D02*
D03*
X54500Y139000D02*
D03*
X57000Y132500D02*
D03*
X58500Y128500D02*
D03*
X49236Y129236D02*
D03*
X97000Y55000D02*
D03*
X85500Y53500D02*
D03*
X81000Y55000D02*
D03*
X50000Y59500D02*
D03*
X64500Y55000D02*
D03*
X73779Y67220D02*
D03*
X96000Y68000D02*
D03*
X124721Y67220D02*
D03*
X181500Y92500D02*
D03*
X202500Y88500D02*
D03*
X215500Y78500D02*
D03*
X224500Y106000D02*
D03*
X157000Y45500D02*
D03*
X164500Y55500D02*
D03*
X147740Y73260D02*
D03*
X148500Y80500D02*
D03*
X140500Y87000D02*
D03*
X136000Y82000D02*
D03*
X124000Y77000D02*
D03*
X97000Y62500D02*
D03*
X159000Y66000D02*
D03*
X176000Y143750D02*
D03*
X30000Y108000D02*
D03*
X66807Y143907D02*
D03*
X188500Y41000D02*
D03*
X45000Y137000D02*
D03*
X35000D02*
D03*
X45000Y145500D02*
D03*
X35000Y144500D02*
D03*
X158000Y86500D02*
D03*
X151500Y90000D02*
D03*
X158500Y90500D02*
D03*
X85500Y29000D02*
D03*
Y19000D02*
D03*
Y9000D02*
D03*
X98500Y29000D02*
D03*
Y19000D02*
D03*
Y9000D02*
D03*
X208700Y48600D02*
D03*
X226000Y73000D02*
D03*
X226500Y64000D02*
D03*
X209500Y55500D02*
D03*
X231000Y87500D02*
D03*
X224500Y95000D02*
D03*
X235000Y61000D02*
D03*
X243000Y87500D02*
D03*
X253000Y87000D02*
D03*
X230500Y99000D02*
D03*
X132500Y29500D02*
D03*
Y41000D02*
D03*
X123500Y29500D02*
D03*
X123000Y39000D02*
D03*
X140500Y41000D02*
D03*
X85500Y38500D02*
D03*
X98500D02*
D03*
X108000D02*
D03*
X85500Y45500D02*
D03*
X98500D02*
D03*
X108000D02*
D03*
X59000Y52500D02*
D03*
X51000D02*
D03*
X41000D02*
D03*
X30000Y53000D02*
D03*
X59500Y85000D02*
D03*
X60500Y94500D02*
D03*
X49500Y85000D02*
D03*
X50000Y94500D02*
D03*
X74500Y106500D02*
D03*
X64500D02*
D03*
X41000Y94500D02*
D03*
Y85000D02*
D03*
Y77000D02*
D03*
Y69500D02*
D03*
Y62000D02*
D03*
X30000Y62500D02*
D03*
Y70000D02*
D03*
Y77500D02*
D03*
Y85500D02*
D03*
Y95000D02*
D03*
X232500Y144500D02*
D03*
Y137000D02*
D03*
Y129500D02*
D03*
Y121500D02*
D03*
Y112000D02*
D03*
X243000Y137000D02*
D03*
Y129500D02*
D03*
X241600Y121800D02*
D03*
X243000Y97000D02*
D03*
Y104500D02*
D03*
X241300Y112000D02*
D03*
X253000Y144500D02*
D03*
Y137000D02*
D03*
X157500Y124000D02*
D03*
Y131500D02*
D03*
Y139000D02*
D03*
X120200Y124700D02*
D03*
X119500Y131000D02*
D03*
Y138500D02*
D03*
X139500Y139000D02*
D03*
X129500D02*
D03*
X148000D02*
D03*
Y131500D02*
D03*
X129500D02*
D03*
X139500D02*
D03*
X148000Y124000D02*
D03*
X129500D02*
D03*
X139500D02*
D03*
X110000Y148500D02*
D03*
X139500D02*
D03*
X129500D02*
D03*
X119500D02*
D03*
X158000D02*
D03*
X148000D02*
D03*
X110000Y156500D02*
D03*
X139500D02*
D03*
X129500D02*
D03*
X119500D02*
D03*
X168000D02*
D03*
X158000D02*
D03*
X148000D02*
D03*
X110000Y164000D02*
D03*
X139500D02*
D03*
X129500D02*
D03*
X119500D02*
D03*
X168000D02*
D03*
X158000D02*
D03*
X148000D02*
D03*
Y171500D02*
D03*
X158000D02*
D03*
X168000D02*
D03*
X178000D02*
D03*
X119500D02*
D03*
X129500D02*
D03*
X139500D02*
D03*
X214500D02*
D03*
X204500D02*
D03*
X194500D02*
D03*
X253000D02*
D03*
X243000D02*
D03*
X233000D02*
D03*
X223000D02*
D03*
X217000Y167000D02*
D03*
X233000Y165000D02*
D03*
X243000D02*
D03*
X253000D02*
D03*
X90000Y171500D02*
D03*
X100000D02*
D03*
X110000D02*
D03*
X212000Y153000D02*
D03*
X233000Y158500D02*
D03*
X243000D02*
D03*
X253000D02*
D03*
X81500Y171500D02*
D03*
X223000Y152500D02*
D03*
X233000D02*
D03*
X238100Y154200D02*
D03*
X253000Y152500D02*
D03*
X5000Y153000D02*
D03*
X16000Y153500D02*
D03*
X25000Y153000D02*
D03*
X35000D02*
D03*
X45000D02*
D03*
X55000D02*
D03*
X65000D02*
D03*
X5000Y159000D02*
D03*
X15000D02*
D03*
X25000D02*
D03*
X35000D02*
D03*
X45000D02*
D03*
X55000D02*
D03*
X65000D02*
D03*
X5000Y165500D02*
D03*
X15000D02*
D03*
X25000D02*
D03*
X35000D02*
D03*
X45000D02*
D03*
X55000D02*
D03*
X65000D02*
D03*
Y172000D02*
D03*
X55000D02*
D03*
X45000D02*
D03*
X35000D02*
D03*
X25000D02*
D03*
X15000D02*
D03*
X5000D02*
D03*
X37000Y127000D02*
D03*
X27500D02*
D03*
X160000Y73500D02*
D03*
X193224Y41224D02*
D03*
X118500Y97500D02*
D03*
X174500Y155500D02*
D03*
X179800Y124700D02*
D03*
X206400Y146200D02*
D03*
X202000Y135500D02*
D03*
Y128000D02*
D03*
X199000Y131000D02*
D03*
Y142000D02*
D03*
X195500Y138500D02*
D03*
X188000Y140000D02*
D03*
X172000Y125000D02*
D03*
X167500Y133000D02*
D03*
X198100Y164200D02*
D03*
X225000Y162500D02*
D03*
X179000Y160400D02*
D03*
X175900Y164000D02*
D03*
X219500Y147500D02*
D03*
X212000Y148500D02*
D03*
X212500Y166500D02*
D03*
X224000Y121500D02*
D03*
X189800Y164000D02*
D03*
X227000Y129500D02*
D03*
X81807Y118157D02*
D03*
X103307Y152157D02*
D03*
X69807Y160557D02*
D03*
X62807Y125157D02*
D03*
X86307Y138657D02*
D03*
X97207Y146357D02*
D03*
X68000Y125500D02*
D03*
X68307Y155157D02*
D03*
X163224Y64724D02*
D03*
X164000Y10000D02*
D03*
X105500Y81500D02*
D03*
X147500Y62000D02*
D03*
X24000Y73500D02*
D03*
X176500Y91500D02*
D03*
X193500Y57000D02*
D03*
X90500Y86000D02*
D03*
X167500Y125000D02*
D03*
X112500Y49500D02*
D03*
X199000Y68500D02*
D03*
X254000Y18500D02*
D03*
Y12000D02*
D03*
X224000Y5500D02*
D03*
X247500Y16500D02*
D03*
X166000Y4500D02*
D03*
X173500D02*
D03*
X84700Y86800D02*
D03*
X103000Y86000D02*
D03*
X106500Y96000D02*
D03*
X95000Y93500D02*
D03*
X102000Y140000D02*
D03*
X55500Y81700D02*
D03*
X93000Y128500D02*
D03*
X100100Y122500D02*
D03*
X27000Y113500D02*
D03*
X245000Y42500D02*
D03*
X239000Y75500D02*
D03*
Y65000D02*
D03*
X234000Y5500D02*
D03*
X241500Y42500D02*
D03*
X220000Y29500D02*
D03*
X224500Y32500D02*
D03*
X229000Y36000D02*
D03*
X224000Y26000D02*
D03*
X228000Y29000D02*
D03*
X232000Y32500D02*
D03*
X217000Y33500D02*
D03*
X221500Y37000D02*
D03*
X235800Y43500D02*
D03*
X235500Y38000D02*
D03*
X236200Y54300D02*
D03*
X252500Y27500D02*
D03*
X245500Y23000D02*
D03*
X233500Y11500D02*
D03*
X252500Y38500D02*
D03*
X49500Y29500D02*
D03*
X58500D02*
D03*
Y22500D02*
D03*
X49500D02*
D03*
Y15000D02*
D03*
X58500D02*
D03*
X41500Y22500D02*
D03*
X32500D02*
D03*
X104500Y104500D02*
D03*
X108000Y100500D02*
D03*
X99779Y90220D02*
D03*
X210500Y89000D02*
D03*
X93000Y115600D02*
D03*
X88500Y113500D02*
D03*
X114000Y118500D02*
D03*
X89807Y142157D02*
D03*
X92807Y135657D02*
D03*
X89500Y131500D02*
D03*
X106000Y89500D02*
D03*
X139500Y116500D02*
D03*
X129500D02*
D03*
X148000D02*
D03*
X157500D02*
D03*
X179800Y118700D02*
D03*
X171800D02*
D03*
X179800Y112200D02*
D03*
X171800D02*
D03*
X24800Y144700D02*
D03*
X144000Y19000D02*
D03*
X157000Y40500D02*
D03*
X160800Y51200D02*
D03*
X44000Y109500D02*
D03*
X50500Y110000D02*
D03*
X57000D02*
D03*
X143900Y112700D02*
D03*
X152900Y112900D02*
D03*
X233000Y80500D02*
D03*
X253000Y78500D02*
D03*
X247000Y80000D02*
D03*
X251500Y55700D02*
D03*
X253000Y33000D02*
D03*
X22500Y95500D02*
D03*
Y85500D02*
D03*
X25000Y133500D02*
D03*
X12500Y132500D02*
D03*
X63500Y82000D02*
D03*
X217000Y133500D02*
D03*
X218300Y106500D02*
D03*
X220250Y102750D02*
D03*
X194000Y92000D02*
D03*
X114500Y100500D02*
D03*
X198000Y103500D02*
D03*
X214000Y140000D02*
D03*
X111900Y122300D02*
D03*
X103400Y93100D02*
D03*
X102200Y101300D02*
D03*
X170700Y91500D02*
D03*
X118300Y88100D02*
D03*
X113040Y85200D02*
D03*
X111900Y89700D02*
D03*
X122100Y87100D02*
D03*
X96700Y73100D02*
D03*
X184800Y47200D02*
D03*
X203000Y64000D02*
D03*
X80600Y140600D02*
D03*
X81000Y136100D02*
D03*
X168400Y65200D02*
D03*
X207600Y41100D02*
D03*
X148400Y19000D02*
D03*
X238800Y70400D02*
D03*
X10800Y112400D02*
D03*
X124400Y98700D02*
D03*
X-6400Y32300D02*
D03*
X-2400Y26300D02*
D03*
Y16300D02*
D03*
X-10400Y34800D02*
D03*
Y26300D02*
D03*
Y16300D02*
D03*
X264100Y35000D02*
D03*
Y45000D02*
D03*
Y52500D02*
D03*
Y60000D02*
D03*
Y26500D02*
D03*
Y16500D02*
D03*
X83300Y103900D02*
D03*
X69900Y102800D02*
D03*
X79300Y108900D02*
D03*
X67200Y63300D02*
D03*
X196300Y114600D02*
D03*
X204200Y111300D02*
D03*
X191300Y129500D02*
D03*
D55*
X183224Y62276D02*
D03*
X187949D02*
D03*
X183000Y67000D02*
D03*
X183224Y71724D02*
D03*
X187949D02*
D03*
Y67000D02*
D03*
X178500Y71724D02*
D03*
Y67000D02*
D03*
Y62276D02*
D03*
D56*
X239000Y75500D02*
Y98500D01*
X176000Y136000D02*
Y143750D01*
Y144000D01*
Y136000D02*
X178500Y133500D01*
X189500Y122500D01*
X215000D02*
X239000Y98500D01*
X189500Y122500D02*
X215000D01*
D57*
X190750Y23500D02*
D03*
D58*
X213750Y27750D02*
D03*
D59*
X145750Y23200D02*
D03*
M02*
