%FSLAX25Y25*%
%MOIN*%
G70*
G01*
G75*
G04 Layer_Color=16711935*
%ADD10C,0.01969*%
%ADD11R,0.03000X0.03000*%
%ADD12R,0.02500X0.02000*%
%ADD13R,0.03000X0.03200*%
%ADD14O,0.05906X0.01378*%
%ADD15R,0.03000X0.03000*%
%ADD16R,0.05118X0.05906*%
%ADD17R,0.02000X0.02500*%
%ADD18R,0.01102X0.03543*%
%ADD19R,0.03543X0.01102*%
%ADD20R,0.01102X0.03543*%
%ADD21R,0.05906X0.05118*%
%ADD22R,0.02362X0.05709*%
%ADD23O,0.07087X0.01378*%
%ADD24O,0.02756X0.00787*%
%ADD25O,0.00787X0.02756*%
%ADD26R,0.14961X0.14961*%
%ADD27R,0.05709X0.02362*%
%ADD28R,0.04331X0.04724*%
%ADD29C,0.00800*%
%ADD30C,0.05000*%
%ADD31C,0.01500*%
%ADD32C,0.01000*%
%ADD33C,0.02000*%
%ADD34C,0.07500*%
%ADD35C,0.01200*%
%ADD36C,0.02500*%
%ADD37C,0.04000*%
%ADD38C,0.00600*%
%ADD39R,0.10000X0.10000*%
%ADD40R,0.09000X0.14000*%
%ADD41R,0.10500X0.11500*%
%ADD42R,0.85500X0.12500*%
%ADD43R,0.22500X0.12500*%
%ADD44R,0.02000X0.06500*%
%ADD45R,0.07000X0.18000*%
%ADD46R,0.08500X0.07000*%
%ADD47R,0.05906X0.05906*%
%ADD48C,0.05906*%
%ADD49C,0.07874*%
G04:AMPARAMS|DCode=50|XSize=157.48mil|YSize=74.8mil|CornerRadius=18.7mil|HoleSize=0mil|Usage=FLASHONLY|Rotation=0.000|XOffset=0mil|YOffset=0mil|HoleType=Round|Shape=RoundedRectangle|*
%AMROUNDEDRECTD50*
21,1,0.15748,0.03740,0,0,0.0*
21,1,0.12008,0.07480,0,0,0.0*
1,1,0.03740,0.06004,-0.01870*
1,1,0.03740,-0.06004,-0.01870*
1,1,0.03740,-0.06004,0.01870*
1,1,0.03740,0.06004,0.01870*
%
%ADD50ROUNDEDRECTD50*%
G04:AMPARAMS|DCode=51|XSize=118.11mil|YSize=62.99mil|CornerRadius=15.75mil|HoleSize=0mil|Usage=FLASHONLY|Rotation=270.000|XOffset=0mil|YOffset=0mil|HoleType=Round|Shape=RoundedRectangle|*
%AMROUNDEDRECTD51*
21,1,0.11811,0.03150,0,0,270.0*
21,1,0.08661,0.06299,0,0,270.0*
1,1,0.03150,-0.01575,-0.04331*
1,1,0.03150,-0.01575,0.04331*
1,1,0.03150,0.01575,0.04331*
1,1,0.03150,0.01575,-0.04331*
%
%ADD51ROUNDEDRECTD51*%
G04:AMPARAMS|DCode=52|XSize=106.3mil|YSize=66.93mil|CornerRadius=16.73mil|HoleSize=0mil|Usage=FLASHONLY|Rotation=90.000|XOffset=0mil|YOffset=0mil|HoleType=Round|Shape=RoundedRectangle|*
%AMROUNDEDRECTD52*
21,1,0.10630,0.03347,0,0,90.0*
21,1,0.07284,0.06693,0,0,90.0*
1,1,0.03346,0.01673,0.03642*
1,1,0.03346,0.01673,-0.03642*
1,1,0.03346,-0.01673,-0.03642*
1,1,0.03346,-0.01673,0.03642*
%
%ADD52ROUNDEDRECTD52*%
%ADD53C,0.03937*%
%ADD54C,0.03200*%
%ADD55C,0.02598*%
%ADD56C,0.03000*%
%ADD57R,0.07500X0.07000*%
%ADD58R,0.09500X0.07500*%
%ADD59R,0.10900X0.12400*%
%ADD60C,0.02362*%
%ADD61C,0.00984*%
%ADD62C,0.00787*%
%ADD63C,0.00500*%
%ADD64C,0.00425*%
%ADD65C,0.03937*%
%ADD66R,0.03800X0.03800*%
%ADD67R,0.03300X0.02800*%
%ADD68R,0.03800X0.04000*%
%ADD69O,0.06706X0.02178*%
%ADD70R,0.03800X0.03800*%
%ADD71R,0.05918X0.06706*%
%ADD72R,0.02800X0.03300*%
%ADD73R,0.01902X0.04343*%
%ADD74R,0.04343X0.01902*%
%ADD75R,0.01902X0.04343*%
%ADD76R,0.06706X0.05918*%
%ADD77R,0.03162X0.06509*%
%ADD78O,0.07887X0.02178*%
%ADD79O,0.03556X0.01587*%
%ADD80O,0.01587X0.03556*%
%ADD81R,0.15761X0.15761*%
%ADD82R,0.06509X0.03162*%
%ADD83R,0.05131X0.05524*%
%ADD84R,0.06706X0.06706*%
%ADD85C,0.06706*%
%ADD86C,0.08674*%
G04:AMPARAMS|DCode=87|XSize=165.48mil|YSize=82.8mil|CornerRadius=22.7mil|HoleSize=0mil|Usage=FLASHONLY|Rotation=0.000|XOffset=0mil|YOffset=0mil|HoleType=Round|Shape=RoundedRectangle|*
%AMROUNDEDRECTD87*
21,1,0.16548,0.03740,0,0,0.0*
21,1,0.12008,0.08280,0,0,0.0*
1,1,0.04540,0.06004,-0.01870*
1,1,0.04540,-0.06004,-0.01870*
1,1,0.04540,-0.06004,0.01870*
1,1,0.04540,0.06004,0.01870*
%
%ADD87ROUNDEDRECTD87*%
G04:AMPARAMS|DCode=88|XSize=126.11mil|YSize=70.99mil|CornerRadius=19.75mil|HoleSize=0mil|Usage=FLASHONLY|Rotation=270.000|XOffset=0mil|YOffset=0mil|HoleType=Round|Shape=RoundedRectangle|*
%AMROUNDEDRECTD88*
21,1,0.12611,0.03150,0,0,270.0*
21,1,0.08661,0.07099,0,0,270.0*
1,1,0.03950,-0.01575,-0.04331*
1,1,0.03950,-0.01575,0.04331*
1,1,0.03950,0.01575,0.04331*
1,1,0.03950,0.01575,-0.04331*
%
%ADD88ROUNDEDRECTD88*%
G04:AMPARAMS|DCode=89|XSize=114.3mil|YSize=74.93mil|CornerRadius=20.73mil|HoleSize=0mil|Usage=FLASHONLY|Rotation=90.000|XOffset=0mil|YOffset=0mil|HoleType=Round|Shape=RoundedRectangle|*
%AMROUNDEDRECTD89*
21,1,0.11430,0.03347,0,0,90.0*
21,1,0.07284,0.07493,0,0,90.0*
1,1,0.04146,0.01673,0.03642*
1,1,0.04146,0.01673,-0.03642*
1,1,0.04146,-0.01673,-0.03642*
1,1,0.04146,-0.01673,0.03642*
%
%ADD89ROUNDEDRECTD89*%
%ADD90C,0.04737*%
%ADD91C,0.04000*%
%ADD92C,0.03398*%
D65*
X270669Y11500D02*
G03*
X270669Y11500I-1969J0D01*
G01*
X-5231Y137400D02*
G03*
X-5231Y137400I-1969J0D01*
G01*
D84*
X216000Y54000D02*
D03*
X228600D02*
D03*
X1400Y88500D02*
D03*
D85*
X216000Y44000D02*
D03*
X228600D02*
D03*
X1400Y78500D02*
D03*
Y68500D02*
D03*
Y58500D02*
D03*
Y48500D02*
D03*
Y38500D02*
D03*
D86*
X32500Y38091D02*
D03*
Y12500D02*
D03*
X12100Y146200D02*
D03*
X244000Y145600D02*
D03*
X244100Y7900D02*
D03*
X11800D02*
D03*
D87*
X117900Y9584D02*
D03*
X70900D02*
D03*
D88*
X117900Y27300D02*
D03*
X70900D02*
D03*
D89*
X217500Y8000D02*
D03*
X188760D02*
D03*
D90*
X209429Y27882D02*
D03*
X202929D02*
D03*
X196831Y27882D02*
D03*
X206279Y23157D02*
D03*
X199929Y23382D02*
D03*
D91*
X251300Y65200D02*
D03*
X97900Y101400D02*
D03*
X93100Y101300D02*
D03*
X112300Y97000D02*
D03*
X112800Y107600D02*
D03*
X111300Y113000D02*
D03*
X98400Y114300D02*
D03*
X-10500Y153000D02*
D03*
Y159000D02*
D03*
Y165500D02*
D03*
Y172000D02*
D03*
Y145000D02*
D03*
X-2500Y153000D02*
D03*
Y159000D02*
D03*
Y165500D02*
D03*
Y172000D02*
D03*
Y145000D02*
D03*
X264000Y68000D02*
D03*
Y78000D02*
D03*
Y152000D02*
D03*
Y158000D02*
D03*
Y164500D02*
D03*
Y171000D02*
D03*
Y111500D02*
D03*
Y104000D02*
D03*
Y96500D02*
D03*
Y121000D02*
D03*
Y129000D02*
D03*
Y136500D02*
D03*
Y144000D02*
D03*
Y86500D02*
D03*
X134000Y17500D02*
D03*
X180000Y13000D02*
D03*
X179500Y31000D02*
D03*
X172000Y24500D02*
D03*
X175500Y28000D02*
D03*
X148000Y56500D02*
D03*
X132500Y54000D02*
D03*
X104000D02*
D03*
X207500Y94500D02*
D03*
X216500Y98500D02*
D03*
X72807Y123193D02*
D03*
X193500Y25000D02*
D03*
X189000D02*
D03*
X55000Y119000D02*
D03*
X207500Y117500D02*
D03*
X197500Y49000D02*
D03*
X144000Y23000D02*
D03*
X219500Y74000D02*
D03*
X-7600Y42900D02*
D03*
X190000Y93000D02*
D03*
X186000Y92500D02*
D03*
X148500Y23000D02*
D03*
X172500Y150000D02*
D03*
X59000Y48500D02*
D03*
X69500Y116500D02*
D03*
X188500Y136000D02*
D03*
X167500Y128500D02*
D03*
X109357Y131857D02*
D03*
X60500Y150500D02*
D03*
X54500Y139000D02*
D03*
X57000Y132500D02*
D03*
X58500Y128500D02*
D03*
X49236Y129236D02*
D03*
X97000Y55000D02*
D03*
X85500Y53500D02*
D03*
X81000Y55000D02*
D03*
X50000Y59500D02*
D03*
X64500Y55000D02*
D03*
X73779Y67220D02*
D03*
X96000Y68000D02*
D03*
X124721Y67220D02*
D03*
X181500Y92500D02*
D03*
X202500Y88500D02*
D03*
X215500Y78500D02*
D03*
X224500Y106000D02*
D03*
X157000Y45500D02*
D03*
X164500Y55500D02*
D03*
X147740Y73260D02*
D03*
X148500Y80500D02*
D03*
X140500Y87000D02*
D03*
X136000Y82000D02*
D03*
X124000Y77000D02*
D03*
X97000Y62500D02*
D03*
X159000Y66000D02*
D03*
X176000Y143750D02*
D03*
X30000Y108000D02*
D03*
X66807Y143907D02*
D03*
X188500Y41000D02*
D03*
X45000Y137000D02*
D03*
X35000D02*
D03*
X45000Y145500D02*
D03*
X35000Y144500D02*
D03*
X158000Y86500D02*
D03*
X151500Y90000D02*
D03*
X158500Y90500D02*
D03*
X85500Y29000D02*
D03*
Y19000D02*
D03*
Y9000D02*
D03*
X98500Y29000D02*
D03*
Y19000D02*
D03*
Y9000D02*
D03*
X208700Y48600D02*
D03*
X226000Y73000D02*
D03*
X226500Y64000D02*
D03*
X209500Y55500D02*
D03*
X231000Y87500D02*
D03*
X224500Y95000D02*
D03*
X235000Y61000D02*
D03*
X243000Y87500D02*
D03*
X253000Y87000D02*
D03*
X230500Y99000D02*
D03*
X132500Y29500D02*
D03*
Y41000D02*
D03*
X123500Y29500D02*
D03*
X123000Y39000D02*
D03*
X140500Y41000D02*
D03*
X85500Y38500D02*
D03*
X98500D02*
D03*
X108000D02*
D03*
X85500Y45500D02*
D03*
X98500D02*
D03*
X108000D02*
D03*
X59000Y52500D02*
D03*
X51000D02*
D03*
X41000D02*
D03*
X30000Y53000D02*
D03*
X59500Y85000D02*
D03*
X60500Y94500D02*
D03*
X49500Y85000D02*
D03*
X50000Y94500D02*
D03*
X74500Y106500D02*
D03*
X64500D02*
D03*
X41000Y94500D02*
D03*
Y85000D02*
D03*
Y77000D02*
D03*
Y69500D02*
D03*
Y62000D02*
D03*
X30000Y62500D02*
D03*
Y70000D02*
D03*
Y77500D02*
D03*
Y85500D02*
D03*
Y95000D02*
D03*
X232500Y144500D02*
D03*
Y137000D02*
D03*
Y129500D02*
D03*
Y121500D02*
D03*
Y112000D02*
D03*
X243000Y137000D02*
D03*
Y129500D02*
D03*
X241600Y121800D02*
D03*
X243000Y97000D02*
D03*
Y104500D02*
D03*
X241300Y112000D02*
D03*
X253000Y144500D02*
D03*
Y137000D02*
D03*
X157500Y124000D02*
D03*
Y131500D02*
D03*
Y139000D02*
D03*
X120200Y124700D02*
D03*
X119500Y131000D02*
D03*
Y138500D02*
D03*
X139500Y139000D02*
D03*
X129500D02*
D03*
X148000D02*
D03*
Y131500D02*
D03*
X129500D02*
D03*
X139500D02*
D03*
X148000Y124000D02*
D03*
X129500D02*
D03*
X139500D02*
D03*
X110000Y148500D02*
D03*
X139500D02*
D03*
X129500D02*
D03*
X119500D02*
D03*
X158000D02*
D03*
X148000D02*
D03*
X110000Y156500D02*
D03*
X139500D02*
D03*
X129500D02*
D03*
X119500D02*
D03*
X168000D02*
D03*
X158000D02*
D03*
X148000D02*
D03*
X110000Y164000D02*
D03*
X139500D02*
D03*
X129500D02*
D03*
X119500D02*
D03*
X168000D02*
D03*
X158000D02*
D03*
X148000D02*
D03*
Y171500D02*
D03*
X158000D02*
D03*
X168000D02*
D03*
X178000D02*
D03*
X119500D02*
D03*
X129500D02*
D03*
X139500D02*
D03*
X214500D02*
D03*
X204500D02*
D03*
X194500D02*
D03*
X253000D02*
D03*
X243000D02*
D03*
X233000D02*
D03*
X223000D02*
D03*
X217000Y167000D02*
D03*
X233000Y165000D02*
D03*
X243000D02*
D03*
X253000D02*
D03*
X90000Y171500D02*
D03*
X100000D02*
D03*
X110000D02*
D03*
X212000Y153000D02*
D03*
X233000Y158500D02*
D03*
X243000D02*
D03*
X253000D02*
D03*
X81500Y171500D02*
D03*
X223000Y152500D02*
D03*
X233000D02*
D03*
X238100Y154200D02*
D03*
X253000Y152500D02*
D03*
X5000Y153000D02*
D03*
X16000Y153500D02*
D03*
X25000Y153000D02*
D03*
X35000D02*
D03*
X45000D02*
D03*
X55000D02*
D03*
X65000D02*
D03*
X5000Y159000D02*
D03*
X15000D02*
D03*
X25000D02*
D03*
X35000D02*
D03*
X45000D02*
D03*
X55000D02*
D03*
X65000D02*
D03*
X5000Y165500D02*
D03*
X15000D02*
D03*
X25000D02*
D03*
X35000D02*
D03*
X45000D02*
D03*
X55000D02*
D03*
X65000D02*
D03*
Y172000D02*
D03*
X55000D02*
D03*
X45000D02*
D03*
X35000D02*
D03*
X25000D02*
D03*
X15000D02*
D03*
X5000D02*
D03*
X37000Y127000D02*
D03*
X27500D02*
D03*
X160000Y73500D02*
D03*
X193224Y41224D02*
D03*
X118500Y97500D02*
D03*
X174500Y155500D02*
D03*
X179800Y124700D02*
D03*
X206400Y146200D02*
D03*
X202000Y135500D02*
D03*
Y128000D02*
D03*
X199000Y131000D02*
D03*
Y142000D02*
D03*
X195500Y138500D02*
D03*
X188000Y140000D02*
D03*
X172000Y125000D02*
D03*
X167500Y133000D02*
D03*
X198100Y164200D02*
D03*
X225000Y162500D02*
D03*
X179000Y160400D02*
D03*
X175900Y164000D02*
D03*
X219500Y147500D02*
D03*
X212000Y148500D02*
D03*
X212500Y166500D02*
D03*
X224000Y121500D02*
D03*
X189800Y164000D02*
D03*
X227000Y129500D02*
D03*
X81807Y118157D02*
D03*
X103307Y152157D02*
D03*
X69807Y160557D02*
D03*
X62807Y125157D02*
D03*
X86307Y138657D02*
D03*
X97207Y146357D02*
D03*
X68000Y125500D02*
D03*
X68307Y155157D02*
D03*
X163224Y64724D02*
D03*
X164000Y10000D02*
D03*
X105500Y81500D02*
D03*
X147500Y62000D02*
D03*
X24000Y73500D02*
D03*
X176500Y91500D02*
D03*
X193500Y57000D02*
D03*
X90500Y86000D02*
D03*
X167500Y125000D02*
D03*
X112500Y49500D02*
D03*
X199000Y68500D02*
D03*
X254000Y18500D02*
D03*
Y12000D02*
D03*
X224000Y5500D02*
D03*
X247500Y16500D02*
D03*
X166000Y4500D02*
D03*
X173500D02*
D03*
X84700Y86800D02*
D03*
X103000Y86000D02*
D03*
X106500Y96000D02*
D03*
X95000Y93500D02*
D03*
X102000Y140000D02*
D03*
X55500Y81700D02*
D03*
X93000Y128500D02*
D03*
X100100Y122500D02*
D03*
X27000Y113500D02*
D03*
X245000Y42500D02*
D03*
X239000Y75500D02*
D03*
Y65000D02*
D03*
X234000Y5500D02*
D03*
X241500Y42500D02*
D03*
X220000Y29500D02*
D03*
X224500Y32500D02*
D03*
X229000Y36000D02*
D03*
X224000Y26000D02*
D03*
X228000Y29000D02*
D03*
X232000Y32500D02*
D03*
X217000Y33500D02*
D03*
X221500Y37000D02*
D03*
X235800Y43500D02*
D03*
X235500Y38000D02*
D03*
X236200Y54300D02*
D03*
X252500Y27500D02*
D03*
X245500Y23000D02*
D03*
X233500Y11500D02*
D03*
X252500Y38500D02*
D03*
X49500Y29500D02*
D03*
X58500D02*
D03*
Y22500D02*
D03*
X49500D02*
D03*
Y15000D02*
D03*
X58500D02*
D03*
X41500Y22500D02*
D03*
X32500D02*
D03*
X104500Y104500D02*
D03*
X108000Y100500D02*
D03*
X99779Y90220D02*
D03*
X210500Y89000D02*
D03*
X93000Y115600D02*
D03*
X88500Y113500D02*
D03*
X114000Y118500D02*
D03*
X89807Y142157D02*
D03*
X92807Y135657D02*
D03*
X89500Y131500D02*
D03*
X106000Y89500D02*
D03*
X139500Y116500D02*
D03*
X129500D02*
D03*
X148000D02*
D03*
X157500D02*
D03*
X179800Y118700D02*
D03*
X171800D02*
D03*
X179800Y112200D02*
D03*
X171800D02*
D03*
X24800Y144700D02*
D03*
X144000Y19000D02*
D03*
X157000Y40500D02*
D03*
X160800Y51200D02*
D03*
X44000Y109500D02*
D03*
X50500Y110000D02*
D03*
X57000D02*
D03*
X143900Y112700D02*
D03*
X152900Y112900D02*
D03*
X233000Y80500D02*
D03*
X253000Y78500D02*
D03*
X247000Y80000D02*
D03*
X251500Y55700D02*
D03*
X253000Y33000D02*
D03*
X22500Y95500D02*
D03*
Y85500D02*
D03*
X25000Y133500D02*
D03*
X12500Y132500D02*
D03*
X63500Y82000D02*
D03*
X217000Y133500D02*
D03*
X218300Y106500D02*
D03*
X220250Y102750D02*
D03*
X194000Y92000D02*
D03*
X114500Y100500D02*
D03*
X198000Y103500D02*
D03*
X214000Y140000D02*
D03*
X111900Y122300D02*
D03*
X103400Y93100D02*
D03*
X102200Y101300D02*
D03*
X170700Y91500D02*
D03*
X118300Y88100D02*
D03*
X113040Y85200D02*
D03*
X111900Y89700D02*
D03*
X122100Y87100D02*
D03*
X96700Y73100D02*
D03*
X184800Y47200D02*
D03*
X203000Y64000D02*
D03*
X80600Y140600D02*
D03*
X81000Y136100D02*
D03*
X168400Y65200D02*
D03*
X207600Y41100D02*
D03*
X148400Y19000D02*
D03*
X238800Y70400D02*
D03*
X10800Y112400D02*
D03*
X124400Y98700D02*
D03*
X-6400Y32300D02*
D03*
X-2400Y26300D02*
D03*
Y16300D02*
D03*
X-10400Y34800D02*
D03*
Y26300D02*
D03*
Y16300D02*
D03*
X264100Y35000D02*
D03*
Y45000D02*
D03*
Y52500D02*
D03*
Y60000D02*
D03*
Y26500D02*
D03*
Y16500D02*
D03*
X83300Y103900D02*
D03*
X69900Y102800D02*
D03*
X79300Y108900D02*
D03*
X67200Y63300D02*
D03*
X196300Y114600D02*
D03*
X204200Y111300D02*
D03*
X191300Y129500D02*
D03*
D92*
X183224Y62276D02*
D03*
X187949D02*
D03*
X183000Y67000D02*
D03*
X183224Y71724D02*
D03*
X187949D02*
D03*
Y67000D02*
D03*
X178500Y71724D02*
D03*
Y67000D02*
D03*
Y62276D02*
D03*
M02*
