%FSLAX25Y25*%
%MOIN*%
G70*
G01*
G75*
G04 Layer_Color=32896*
%ADD10C,0.01969*%
%ADD11R,0.03000X0.03000*%
%ADD12R,0.02500X0.02000*%
%ADD13R,0.03000X0.03200*%
%ADD14O,0.05906X0.01378*%
%ADD15R,0.03000X0.03000*%
%ADD16R,0.05118X0.05906*%
%ADD17R,0.02000X0.02500*%
%ADD18R,0.01102X0.03543*%
%ADD19R,0.03543X0.01102*%
%ADD20R,0.01102X0.03543*%
%ADD21R,0.05906X0.05118*%
%ADD22R,0.02362X0.05709*%
%ADD23O,0.07087X0.01378*%
%ADD24O,0.02756X0.00787*%
%ADD25O,0.00787X0.02756*%
%ADD26R,0.14961X0.14961*%
%ADD27R,0.05709X0.02362*%
%ADD28R,0.04331X0.04724*%
%ADD29C,0.00800*%
%ADD30C,0.05000*%
%ADD31C,0.01500*%
%ADD32C,0.01000*%
%ADD33C,0.02000*%
%ADD34C,0.07500*%
%ADD35C,0.01200*%
%ADD36C,0.02500*%
%ADD37C,0.04000*%
%ADD38C,0.00600*%
%ADD39R,0.10000X0.10000*%
%ADD40R,0.09000X0.14000*%
%ADD41R,0.10500X0.11500*%
%ADD42R,0.85500X0.12500*%
%ADD43R,0.22500X0.12500*%
%ADD44R,0.02000X0.06500*%
%ADD45R,0.07000X0.18000*%
%ADD46R,0.08500X0.07000*%
%ADD47R,0.05906X0.05906*%
%ADD48C,0.05906*%
%ADD49C,0.07874*%
G04:AMPARAMS|DCode=50|XSize=157.48mil|YSize=74.8mil|CornerRadius=18.7mil|HoleSize=0mil|Usage=FLASHONLY|Rotation=0.000|XOffset=0mil|YOffset=0mil|HoleType=Round|Shape=RoundedRectangle|*
%AMROUNDEDRECTD50*
21,1,0.15748,0.03740,0,0,0.0*
21,1,0.12008,0.07480,0,0,0.0*
1,1,0.03740,0.06004,-0.01870*
1,1,0.03740,-0.06004,-0.01870*
1,1,0.03740,-0.06004,0.01870*
1,1,0.03740,0.06004,0.01870*
%
%ADD50ROUNDEDRECTD50*%
G04:AMPARAMS|DCode=51|XSize=118.11mil|YSize=62.99mil|CornerRadius=15.75mil|HoleSize=0mil|Usage=FLASHONLY|Rotation=270.000|XOffset=0mil|YOffset=0mil|HoleType=Round|Shape=RoundedRectangle|*
%AMROUNDEDRECTD51*
21,1,0.11811,0.03150,0,0,270.0*
21,1,0.08661,0.06299,0,0,270.0*
1,1,0.03150,-0.01575,-0.04331*
1,1,0.03150,-0.01575,0.04331*
1,1,0.03150,0.01575,0.04331*
1,1,0.03150,0.01575,-0.04331*
%
%ADD51ROUNDEDRECTD51*%
G04:AMPARAMS|DCode=52|XSize=106.3mil|YSize=66.93mil|CornerRadius=16.73mil|HoleSize=0mil|Usage=FLASHONLY|Rotation=90.000|XOffset=0mil|YOffset=0mil|HoleType=Round|Shape=RoundedRectangle|*
%AMROUNDEDRECTD52*
21,1,0.10630,0.03347,0,0,90.0*
21,1,0.07284,0.06693,0,0,90.0*
1,1,0.03346,0.01673,0.03642*
1,1,0.03346,0.01673,-0.03642*
1,1,0.03346,-0.01673,-0.03642*
1,1,0.03346,-0.01673,0.03642*
%
%ADD52ROUNDEDRECTD52*%
%ADD53C,0.03937*%
%ADD54C,0.03200*%
%ADD55C,0.02598*%
%ADD56C,0.03000*%
%ADD57R,0.07500X0.07000*%
%ADD58R,0.09500X0.07500*%
%ADD59R,0.10900X0.12400*%
%ADD60C,0.02362*%
%ADD61C,0.00984*%
%ADD62C,0.00787*%
%ADD63C,0.00500*%
%ADD64C,0.00425*%
%ADD65C,0.03937*%
%ADD66R,0.03800X0.03800*%
%ADD67R,0.03300X0.02800*%
%ADD68R,0.03800X0.04000*%
%ADD69O,0.06706X0.02178*%
%ADD70R,0.03800X0.03800*%
%ADD71R,0.05918X0.06706*%
%ADD72R,0.02800X0.03300*%
%ADD73R,0.01902X0.04343*%
%ADD74R,0.04343X0.01902*%
%ADD75R,0.01902X0.04343*%
%ADD76R,0.06706X0.05918*%
%ADD77R,0.03162X0.06509*%
%ADD78O,0.07887X0.02178*%
%ADD79O,0.03556X0.01587*%
%ADD80O,0.01587X0.03556*%
%ADD81R,0.15761X0.15761*%
%ADD82R,0.06509X0.03162*%
%ADD83R,0.05131X0.05524*%
%ADD84R,0.06706X0.06706*%
%ADD85C,0.06706*%
%ADD86C,0.08674*%
G04:AMPARAMS|DCode=87|XSize=165.48mil|YSize=82.8mil|CornerRadius=22.7mil|HoleSize=0mil|Usage=FLASHONLY|Rotation=0.000|XOffset=0mil|YOffset=0mil|HoleType=Round|Shape=RoundedRectangle|*
%AMROUNDEDRECTD87*
21,1,0.16548,0.03740,0,0,0.0*
21,1,0.12008,0.08280,0,0,0.0*
1,1,0.04540,0.06004,-0.01870*
1,1,0.04540,-0.06004,-0.01870*
1,1,0.04540,-0.06004,0.01870*
1,1,0.04540,0.06004,0.01870*
%
%ADD87ROUNDEDRECTD87*%
G04:AMPARAMS|DCode=88|XSize=126.11mil|YSize=70.99mil|CornerRadius=19.75mil|HoleSize=0mil|Usage=FLASHONLY|Rotation=270.000|XOffset=0mil|YOffset=0mil|HoleType=Round|Shape=RoundedRectangle|*
%AMROUNDEDRECTD88*
21,1,0.12611,0.03150,0,0,270.0*
21,1,0.08661,0.07099,0,0,270.0*
1,1,0.03950,-0.01575,-0.04331*
1,1,0.03950,-0.01575,0.04331*
1,1,0.03950,0.01575,0.04331*
1,1,0.03950,0.01575,-0.04331*
%
%ADD88ROUNDEDRECTD88*%
G04:AMPARAMS|DCode=89|XSize=114.3mil|YSize=74.93mil|CornerRadius=20.73mil|HoleSize=0mil|Usage=FLASHONLY|Rotation=90.000|XOffset=0mil|YOffset=0mil|HoleType=Round|Shape=RoundedRectangle|*
%AMROUNDEDRECTD89*
21,1,0.11430,0.03347,0,0,90.0*
21,1,0.07284,0.07493,0,0,90.0*
1,1,0.04146,0.01673,0.03642*
1,1,0.04146,0.01673,-0.03642*
1,1,0.04146,-0.01673,-0.03642*
1,1,0.04146,-0.01673,0.03642*
%
%ADD89ROUNDEDRECTD89*%
%ADD90C,0.04737*%
%ADD91C,0.04000*%
%ADD92C,0.03398*%
%ADD93C,0.00100*%
G36*
X265500Y73362D02*
X263991D01*
X263915Y73356D01*
X263844D01*
X263785Y73351D01*
X263725Y73345D01*
X263677Y73340D01*
X263634Y73335D01*
X263596D01*
X263563Y73329D01*
X263536Y73324D01*
X263514Y73318D01*
X263488Y73313D01*
X263477D01*
X263412Y73291D01*
X263352Y73259D01*
X263303Y73232D01*
X263266Y73199D01*
X263233Y73172D01*
X263206Y73151D01*
X263195Y73134D01*
X263190Y73129D01*
X263152Y73080D01*
X263125Y73026D01*
X263109Y72978D01*
X263092Y72934D01*
X263087Y72896D01*
X263082Y72864D01*
Y72842D01*
Y72837D01*
X263087Y72788D01*
X263092Y72745D01*
X263109Y72707D01*
X263120Y72675D01*
X263136Y72648D01*
X263152Y72626D01*
X263158Y72615D01*
X263163Y72610D01*
X263195Y72577D01*
X263233Y72545D01*
X263309Y72507D01*
X263341Y72491D01*
X263369Y72480D01*
X263390Y72474D01*
X263396D01*
X263428Y72469D01*
X263466Y72464D01*
X263552Y72453D01*
X263650Y72447D01*
X263753Y72442D01*
X263844Y72436D01*
X265500D01*
Y71798D01*
X263671D01*
X263520Y71803D01*
X263385Y71809D01*
X263271Y71820D01*
X263179Y71836D01*
X263103Y71852D01*
X263055Y71863D01*
X263022Y71868D01*
X263011Y71874D01*
X262930Y71906D01*
X262855Y71950D01*
X262790Y71993D01*
X262736Y72036D01*
X262692Y72079D01*
X262660Y72112D01*
X262638Y72134D01*
X262633Y72144D01*
X262584Y72220D01*
X262546Y72296D01*
X262525Y72377D01*
X262503Y72453D01*
X262492Y72518D01*
X262487Y72566D01*
Y72588D01*
Y72604D01*
Y72610D01*
Y72615D01*
X262492Y72702D01*
X262508Y72788D01*
X262530Y72864D01*
X262551Y72929D01*
X262573Y72983D01*
X262595Y73021D01*
X262611Y73048D01*
X262616Y73059D01*
X262671Y73129D01*
X262725Y73194D01*
X262790Y73253D01*
X262849Y73308D01*
X262903Y73351D01*
X262947Y73383D01*
X262979Y73405D01*
X262984Y73410D01*
X262557D01*
Y74000D01*
X265500D01*
Y73362D01*
D02*
G37*
G36*
X255100Y56238D02*
X251175D01*
Y55925D01*
Y55738D01*
X251187Y55575D01*
X251213Y55437D01*
X251225Y55338D01*
X251250Y55250D01*
X251275Y55200D01*
X251288Y55163D01*
Y55150D01*
X251338Y55063D01*
X251388Y54975D01*
X251513Y54825D01*
X251575Y54763D01*
X251625Y54725D01*
X251662Y54700D01*
X251675Y54688D01*
X251737Y54637D01*
X251813Y54588D01*
X251900Y54525D01*
X252012Y54462D01*
X252238Y54325D01*
X252475Y54188D01*
X252700Y54062D01*
X252800Y54013D01*
X252888Y53962D01*
X252962Y53925D01*
X253012Y53887D01*
X253050Y53875D01*
X253063Y53863D01*
X255100Y52750D01*
Y50875D01*
X253275Y51812D01*
X253075Y51912D01*
X252888Y52012D01*
X252725Y52100D01*
X252575Y52188D01*
X252437Y52263D01*
X252312Y52337D01*
X252200Y52412D01*
X252100Y52463D01*
X252012Y52525D01*
X251938Y52562D01*
X251837Y52637D01*
X251775Y52688D01*
X251750Y52700D01*
X251588Y52825D01*
X251437Y52962D01*
X251312Y53100D01*
X251187Y53237D01*
X251100Y53350D01*
X251025Y53438D01*
X250975Y53500D01*
X250962Y53525D01*
X250875Y53175D01*
X250750Y52875D01*
X250612Y52625D01*
X250475Y52412D01*
X250338Y52237D01*
X250225Y52125D01*
X250137Y52050D01*
X250125Y52025D01*
X250113D01*
X249975Y51925D01*
X249837Y51850D01*
X249550Y51713D01*
X249250Y51613D01*
X248975Y51550D01*
X248725Y51512D01*
X248612Y51500D01*
X248525D01*
X248438Y51487D01*
X248338D01*
X248025Y51500D01*
X247738Y51538D01*
X247475Y51600D01*
X247263Y51662D01*
X247075Y51725D01*
X246950Y51788D01*
X246900Y51800D01*
X246863Y51825D01*
X246850Y51837D01*
X246837D01*
X246625Y51975D01*
X246438Y52125D01*
X246287Y52275D01*
X246163Y52412D01*
X246075Y52538D01*
X246012Y52637D01*
X245975Y52700D01*
X245963Y52713D01*
Y52725D01*
X245913Y52838D01*
X245875Y52950D01*
X245813Y53225D01*
X245762Y53525D01*
X245738Y53825D01*
X245712Y54088D01*
Y54200D01*
X245700Y54312D01*
Y54387D01*
Y54462D01*
Y54500D01*
Y54513D01*
Y57788D01*
X255100D01*
Y56238D01*
D02*
G37*
G36*
X265500Y70467D02*
X263801D01*
Y70332D01*
Y70251D01*
X263807Y70180D01*
X263818Y70121D01*
X263823Y70078D01*
X263834Y70040D01*
X263844Y70018D01*
X263850Y70002D01*
Y69997D01*
X263872Y69959D01*
X263893Y69921D01*
X263947Y69856D01*
X263974Y69829D01*
X263996Y69813D01*
X264012Y69802D01*
X264018Y69796D01*
X264045Y69775D01*
X264077Y69753D01*
X264115Y69726D01*
X264164Y69699D01*
X264261Y69639D01*
X264364Y69580D01*
X264461Y69526D01*
X264505Y69504D01*
X264542Y69483D01*
X264575Y69466D01*
X264597Y69450D01*
X264613Y69445D01*
X264618Y69439D01*
X265500Y68958D01*
Y68146D01*
X264710Y68552D01*
X264624Y68595D01*
X264542Y68639D01*
X264472Y68677D01*
X264407Y68714D01*
X264348Y68747D01*
X264294Y68779D01*
X264245Y68812D01*
X264202Y68834D01*
X264164Y68861D01*
X264131Y68877D01*
X264088Y68909D01*
X264061Y68931D01*
X264050Y68936D01*
X263980Y68990D01*
X263915Y69050D01*
X263861Y69109D01*
X263807Y69169D01*
X263769Y69218D01*
X263736Y69255D01*
X263715Y69283D01*
X263709Y69293D01*
X263671Y69142D01*
X263617Y69012D01*
X263558Y68904D01*
X263498Y68812D01*
X263439Y68736D01*
X263390Y68687D01*
X263352Y68655D01*
X263347Y68644D01*
X263341D01*
X263282Y68601D01*
X263222Y68568D01*
X263098Y68509D01*
X262968Y68466D01*
X262849Y68439D01*
X262741Y68422D01*
X262692Y68417D01*
X262654D01*
X262616Y68411D01*
X262573D01*
X262438Y68417D01*
X262314Y68433D01*
X262200Y68460D01*
X262108Y68487D01*
X262027Y68514D01*
X261973Y68541D01*
X261951Y68547D01*
X261935Y68558D01*
X261929Y68563D01*
X261924D01*
X261832Y68622D01*
X261751Y68687D01*
X261686Y68752D01*
X261632Y68812D01*
X261594Y68866D01*
X261567Y68909D01*
X261551Y68936D01*
X261545Y68942D01*
Y68947D01*
X261524Y68996D01*
X261507Y69044D01*
X261480Y69164D01*
X261459Y69293D01*
X261448Y69423D01*
X261437Y69537D01*
Y69585D01*
X261432Y69634D01*
Y69667D01*
Y69699D01*
Y69715D01*
Y69721D01*
Y71138D01*
X265500D01*
Y70467D01*
D02*
G37*
G36*
X255100Y47125D02*
X255087Y46788D01*
X255063Y46488D01*
X255012Y46225D01*
X254962Y46000D01*
X254925Y45825D01*
X254900Y45750D01*
X254875Y45700D01*
X254862Y45650D01*
X254850Y45612D01*
X254837Y45600D01*
Y45588D01*
X254725Y45375D01*
X254600Y45175D01*
X254475Y45000D01*
X254350Y44850D01*
X254225Y44737D01*
X254137Y44650D01*
X254075Y44587D01*
X254050Y44575D01*
X253837Y44425D01*
X253600Y44287D01*
X253362Y44162D01*
X253137Y44063D01*
X252938Y43988D01*
X252850Y43950D01*
X252775Y43925D01*
X252712Y43900D01*
X252662Y43887D01*
X252638Y43875D01*
X252625D01*
X252275Y43775D01*
X251912Y43712D01*
X251562Y43663D01*
X251225Y43625D01*
X251075Y43613D01*
X250938Y43600D01*
X250813D01*
X250700Y43587D01*
X250500D01*
X250012Y43600D01*
X249787Y43613D01*
X249575Y43625D01*
X249375Y43650D01*
X249187Y43675D01*
X249012Y43700D01*
X248863Y43712D01*
X248725Y43738D01*
X248600Y43762D01*
X248487Y43788D01*
X248400Y43813D01*
X248325Y43825D01*
X248275Y43837D01*
X248250Y43850D01*
X248237D01*
X247913Y43950D01*
X247625Y44075D01*
X247375Y44200D01*
X247163Y44313D01*
X246988Y44412D01*
X246863Y44500D01*
X246825Y44525D01*
X246788Y44550D01*
X246762Y44575D01*
X246563Y44750D01*
X246388Y44925D01*
X246250Y45100D01*
X246137Y45250D01*
X246050Y45388D01*
X246000Y45500D01*
X245963Y45562D01*
X245950Y45575D01*
Y45588D01*
X245863Y45812D01*
X245800Y46075D01*
X245762Y46338D01*
X245725Y46600D01*
X245712Y46837D01*
Y46950D01*
X245700Y47038D01*
Y47113D01*
Y47163D01*
Y47200D01*
Y47212D01*
Y50037D01*
X255100D01*
Y47125D01*
D02*
G37*
G36*
X258677Y39695D02*
X258850Y39679D01*
X259012Y39658D01*
X259164Y39625D01*
X259304Y39593D01*
X259434Y39549D01*
X259553Y39506D01*
X259656Y39463D01*
X259753Y39419D01*
X259835Y39376D01*
X259910Y39333D01*
X259964Y39301D01*
X260013Y39268D01*
X260046Y39246D01*
X260067Y39230D01*
X260073Y39225D01*
X260159Y39144D01*
X260235Y39057D01*
X260305Y38965D01*
X260359Y38873D01*
X260408Y38776D01*
X260451Y38678D01*
X260484Y38586D01*
X260505Y38500D01*
X260527Y38413D01*
X260543Y38332D01*
X260554Y38262D01*
X260565Y38202D01*
Y38154D01*
X260570Y38116D01*
Y38089D01*
Y38083D01*
X260565Y37953D01*
X260549Y37829D01*
X260522Y37710D01*
X260489Y37602D01*
X260451Y37499D01*
X260413Y37407D01*
X260365Y37320D01*
X260316Y37245D01*
X260273Y37174D01*
X260224Y37115D01*
X260186Y37066D01*
X260143Y37023D01*
X260116Y36990D01*
X260089Y36969D01*
X260073Y36952D01*
X260067Y36947D01*
X259954Y36861D01*
X259835Y36790D01*
X259705Y36725D01*
X259575Y36671D01*
X259440Y36623D01*
X259304Y36585D01*
X259174Y36552D01*
X259050Y36525D01*
X258931Y36503D01*
X258818Y36493D01*
X258720Y36482D01*
X258634Y36471D01*
X258563D01*
X258509Y36466D01*
X258466D01*
X258282Y36471D01*
X258109Y36487D01*
X257946Y36509D01*
X257800Y36536D01*
X257660Y36568D01*
X257530Y36612D01*
X257416Y36650D01*
X257313Y36693D01*
X257222Y36736D01*
X257140Y36774D01*
X257070Y36812D01*
X257016Y36850D01*
X256973Y36877D01*
X256940Y36898D01*
X256919Y36915D01*
X256913Y36920D01*
X256816Y37007D01*
X256729Y37099D01*
X256659Y37196D01*
X256594Y37293D01*
X256540Y37391D01*
X256497Y37483D01*
X256459Y37580D01*
X256432Y37672D01*
X256410Y37753D01*
X256388Y37834D01*
X256378Y37905D01*
X256372Y37964D01*
X256367Y38013D01*
X256361Y38051D01*
Y38072D01*
Y38083D01*
Y38175D01*
X256372Y38262D01*
X256399Y38424D01*
X256437Y38570D01*
X256453Y38635D01*
X256475Y38689D01*
X256497Y38743D01*
X256518Y38792D01*
X256540Y38830D01*
X256556Y38868D01*
X256572Y38889D01*
X256583Y38911D01*
X256589Y38922D01*
X256594Y38927D01*
X256643Y38992D01*
X256691Y39052D01*
X256800Y39160D01*
X256919Y39257D01*
X257032Y39338D01*
X257135Y39403D01*
X257178Y39430D01*
X257222Y39452D01*
X257254Y39468D01*
X257276Y39479D01*
X257292Y39490D01*
X257297D01*
X257389Y39528D01*
X257481Y39560D01*
X257681Y39614D01*
X257882Y39647D01*
X257979Y39663D01*
X258071Y39674D01*
X258157Y39685D01*
X258239Y39690D01*
X258309Y39695D01*
X258374D01*
X258423Y39701D01*
X258493D01*
X258677Y39695D01*
D02*
G37*
G36*
X260500Y35265D02*
X258801D01*
Y35129D01*
Y35048D01*
X258807Y34978D01*
X258818Y34918D01*
X258823Y34875D01*
X258834Y34837D01*
X258844Y34816D01*
X258850Y34799D01*
Y34794D01*
X258872Y34756D01*
X258893Y34718D01*
X258947Y34653D01*
X258974Y34626D01*
X258996Y34610D01*
X259012Y34599D01*
X259018Y34594D01*
X259045Y34572D01*
X259077Y34550D01*
X259115Y34523D01*
X259164Y34496D01*
X259261Y34437D01*
X259364Y34377D01*
X259461Y34323D01*
X259505Y34302D01*
X259542Y34280D01*
X259575Y34264D01*
X259596Y34247D01*
X259613Y34242D01*
X259618Y34237D01*
X260500Y33755D01*
Y32944D01*
X259710Y33349D01*
X259624Y33393D01*
X259542Y33436D01*
X259472Y33474D01*
X259407Y33512D01*
X259348Y33544D01*
X259294Y33577D01*
X259245Y33609D01*
X259202Y33631D01*
X259164Y33658D01*
X259131Y33674D01*
X259088Y33707D01*
X259061Y33728D01*
X259050Y33734D01*
X258980Y33788D01*
X258915Y33847D01*
X258861Y33907D01*
X258807Y33966D01*
X258769Y34015D01*
X258736Y34053D01*
X258715Y34080D01*
X258709Y34091D01*
X258671Y33939D01*
X258617Y33809D01*
X258558Y33701D01*
X258498Y33609D01*
X258439Y33533D01*
X258390Y33485D01*
X258352Y33452D01*
X258347Y33441D01*
X258341D01*
X258282Y33398D01*
X258222Y33366D01*
X258098Y33306D01*
X257968Y33263D01*
X257849Y33236D01*
X257741Y33220D01*
X257692Y33214D01*
X257654D01*
X257616Y33209D01*
X257573D01*
X257438Y33214D01*
X257313Y33231D01*
X257200Y33257D01*
X257108Y33285D01*
X257027Y33312D01*
X256973Y33339D01*
X256951Y33344D01*
X256935Y33355D01*
X256929Y33360D01*
X256924D01*
X256832Y33420D01*
X256751Y33485D01*
X256686Y33550D01*
X256632Y33609D01*
X256594Y33663D01*
X256567Y33707D01*
X256551Y33734D01*
X256545Y33739D01*
Y33744D01*
X256524Y33793D01*
X256507Y33842D01*
X256480Y33961D01*
X256459Y34091D01*
X256448Y34220D01*
X256437Y34334D01*
Y34383D01*
X256432Y34431D01*
Y34464D01*
Y34496D01*
Y34513D01*
Y34518D01*
Y35936D01*
X260500D01*
Y35265D01*
D02*
G37*
G36*
X265500Y67102D02*
X263769D01*
Y65706D01*
X263082D01*
Y67102D01*
X262119D01*
Y65490D01*
X261432D01*
Y67773D01*
X265500D01*
Y67102D01*
D02*
G37*
G36*
X250887Y66475D02*
X251288Y66438D01*
X251662Y66387D01*
X252012Y66312D01*
X252338Y66237D01*
X252638Y66137D01*
X252912Y66037D01*
X253150Y65938D01*
X253375Y65838D01*
X253562Y65737D01*
X253737Y65637D01*
X253863Y65562D01*
X253975Y65487D01*
X254050Y65438D01*
X254100Y65400D01*
X254113Y65387D01*
X254312Y65200D01*
X254487Y65000D01*
X254650Y64788D01*
X254775Y64575D01*
X254888Y64350D01*
X254988Y64125D01*
X255063Y63912D01*
X255113Y63713D01*
X255163Y63512D01*
X255200Y63325D01*
X255225Y63162D01*
X255250Y63025D01*
Y62912D01*
X255262Y62825D01*
Y62762D01*
Y62750D01*
X255250Y62450D01*
X255212Y62163D01*
X255150Y61888D01*
X255075Y61638D01*
X254988Y61400D01*
X254900Y61187D01*
X254787Y60988D01*
X254675Y60812D01*
X254575Y60650D01*
X254463Y60513D01*
X254375Y60400D01*
X254275Y60300D01*
X254212Y60225D01*
X254150Y60175D01*
X254113Y60137D01*
X254100Y60125D01*
X253837Y59925D01*
X253562Y59763D01*
X253262Y59613D01*
X252962Y59487D01*
X252650Y59375D01*
X252338Y59288D01*
X252038Y59212D01*
X251750Y59150D01*
X251475Y59100D01*
X251213Y59075D01*
X250988Y59050D01*
X250787Y59025D01*
X250625D01*
X250500Y59013D01*
X250400D01*
X249975Y59025D01*
X249575Y59062D01*
X249200Y59113D01*
X248863Y59175D01*
X248537Y59250D01*
X248237Y59350D01*
X247975Y59438D01*
X247738Y59538D01*
X247525Y59637D01*
X247338Y59725D01*
X247175Y59812D01*
X247050Y59900D01*
X246950Y59962D01*
X246875Y60013D01*
X246825Y60050D01*
X246813Y60062D01*
X246587Y60263D01*
X246388Y60475D01*
X246225Y60700D01*
X246075Y60925D01*
X245950Y61150D01*
X245850Y61362D01*
X245762Y61588D01*
X245700Y61800D01*
X245650Y61988D01*
X245600Y62175D01*
X245575Y62337D01*
X245563Y62475D01*
X245550Y62587D01*
X245537Y62675D01*
Y62725D01*
Y62750D01*
Y62963D01*
X245563Y63162D01*
X245625Y63538D01*
X245712Y63875D01*
X245750Y64025D01*
X245800Y64150D01*
X245850Y64275D01*
X245900Y64388D01*
X245950Y64475D01*
X245988Y64562D01*
X246025Y64613D01*
X246050Y64662D01*
X246062Y64688D01*
X246075Y64700D01*
X246187Y64850D01*
X246300Y64987D01*
X246550Y65237D01*
X246825Y65462D01*
X247088Y65650D01*
X247325Y65800D01*
X247425Y65863D01*
X247525Y65912D01*
X247600Y65950D01*
X247650Y65975D01*
X247688Y66000D01*
X247700D01*
X247913Y66088D01*
X248125Y66163D01*
X248587Y66287D01*
X249050Y66363D01*
X249275Y66400D01*
X249487Y66425D01*
X249688Y66450D01*
X249875Y66462D01*
X250038Y66475D01*
X250187D01*
X250300Y66487D01*
X250463D01*
X250887Y66475D01*
D02*
G37*
G36*
X264440Y57299D02*
X264537Y57288D01*
X264629Y57278D01*
X264716Y57256D01*
X264797Y57234D01*
X264872Y57207D01*
X264937Y57175D01*
X265002Y57148D01*
X265056Y57121D01*
X265105Y57088D01*
X265143Y57061D01*
X265181Y57040D01*
X265208Y57018D01*
X265224Y57002D01*
X265235Y56996D01*
X265240Y56991D01*
X265300Y56931D01*
X265349Y56867D01*
X265392Y56802D01*
X265430Y56737D01*
X265462Y56666D01*
X265489Y56601D01*
X265527Y56477D01*
X265543Y56418D01*
X265554Y56363D01*
X265560Y56315D01*
X265565Y56277D01*
X265570Y56244D01*
Y56217D01*
Y56201D01*
Y56196D01*
X265565Y56082D01*
X265549Y55979D01*
X265522Y55887D01*
X265495Y55806D01*
X265468Y55736D01*
X265441Y55687D01*
X265424Y55655D01*
X265419Y55644D01*
X265354Y55557D01*
X265284Y55476D01*
X265213Y55411D01*
X265143Y55357D01*
X265078Y55314D01*
X265029Y55281D01*
X265008Y55271D01*
X264991Y55260D01*
X264986Y55254D01*
X264981D01*
X264867Y55206D01*
X264753Y55173D01*
X264640Y55146D01*
X264537Y55130D01*
X264451Y55119D01*
X264413D01*
X264380Y55114D01*
X264315D01*
X264185Y55119D01*
X264061Y55135D01*
X263958Y55162D01*
X263866Y55184D01*
X263796Y55211D01*
X263742Y55238D01*
X263725Y55243D01*
X263709Y55254D01*
X263704Y55260D01*
X263699D01*
X263607Y55319D01*
X263531Y55384D01*
X263466Y55454D01*
X263406Y55525D01*
X263363Y55584D01*
X263336Y55633D01*
X263314Y55671D01*
X263309Y55676D01*
Y55682D01*
X263260Y55606D01*
X263212Y55541D01*
X263152Y55482D01*
X263103Y55433D01*
X263055Y55395D01*
X263017Y55368D01*
X262990Y55352D01*
X262979Y55346D01*
X262892Y55303D01*
X262806Y55276D01*
X262719Y55254D01*
X262638Y55238D01*
X262568Y55227D01*
X262514Y55222D01*
X262465D01*
X262384Y55227D01*
X262308Y55233D01*
X262162Y55260D01*
X262038Y55303D01*
X261929Y55352D01*
X261886Y55373D01*
X261843Y55400D01*
X261805Y55422D01*
X261778Y55438D01*
X261756Y55460D01*
X261740Y55471D01*
X261729Y55476D01*
X261724Y55482D01*
X261670Y55530D01*
X261621Y55584D01*
X261583Y55644D01*
X261551Y55703D01*
X261497Y55828D01*
X261459Y55947D01*
X261437Y56055D01*
X261432Y56104D01*
X261426Y56142D01*
X261421Y56174D01*
Y56201D01*
Y56217D01*
Y56223D01*
X261426Y56304D01*
X261432Y56385D01*
X261464Y56531D01*
X261513Y56656D01*
X261561Y56758D01*
X261589Y56807D01*
X261616Y56845D01*
X261643Y56877D01*
X261664Y56904D01*
X261681Y56926D01*
X261697Y56942D01*
X261702Y56948D01*
X261708Y56953D01*
X261762Y57002D01*
X261821Y57040D01*
X261881Y57077D01*
X261946Y57110D01*
X262070Y57159D01*
X262194Y57191D01*
X262303Y57207D01*
X262351Y57213D01*
X262389Y57218D01*
X262422Y57224D01*
X262470D01*
X262573Y57218D01*
X262671Y57207D01*
X262757Y57186D01*
X262833Y57164D01*
X262892Y57142D01*
X262936Y57121D01*
X262963Y57110D01*
X262973Y57105D01*
X263049Y57056D01*
X263114Y57002D01*
X263174Y56942D01*
X263222Y56883D01*
X263260Y56834D01*
X263287Y56791D01*
X263303Y56764D01*
X263309Y56753D01*
X263363Y56845D01*
X263428Y56931D01*
X263493Y57002D01*
X263558Y57056D01*
X263617Y57105D01*
X263666Y57137D01*
X263699Y57159D01*
X263704Y57164D01*
X263709D01*
X263812Y57213D01*
X263920Y57245D01*
X264023Y57272D01*
X264120Y57288D01*
X264207Y57299D01*
X264245D01*
X264277Y57305D01*
X264337D01*
X264440Y57299D01*
D02*
G37*
G36*
X255100Y72450D02*
X248975D01*
X255100Y69362D01*
Y67787D01*
X245700D01*
Y69238D01*
X251988D01*
X245700Y72387D01*
Y73900D01*
X255100D01*
Y72450D01*
D02*
G37*
G36*
X265500Y62915D02*
X264775D01*
Y64186D01*
X264699Y64143D01*
X264629Y64105D01*
X264602Y64083D01*
X264580Y64067D01*
X264569Y64062D01*
X264564Y64056D01*
X264542Y64040D01*
X264510Y64019D01*
X264445Y63959D01*
X264369Y63899D01*
X264294Y63829D01*
X264218Y63770D01*
X264158Y63716D01*
X264137Y63694D01*
X264120Y63678D01*
X264110Y63672D01*
X264104Y63667D01*
X263974Y63553D01*
X263855Y63456D01*
X263753Y63375D01*
X263661Y63310D01*
X263590Y63256D01*
X263542Y63223D01*
X263509Y63202D01*
X263498Y63196D01*
X263412Y63147D01*
X263325Y63104D01*
X263244Y63066D01*
X263174Y63039D01*
X263114Y63012D01*
X263066Y62996D01*
X263038Y62991D01*
X263028Y62985D01*
X262941Y62964D01*
X262855Y62942D01*
X262773Y62931D01*
X262698Y62926D01*
X262638Y62920D01*
X262589Y62915D01*
X262546D01*
X262465Y62920D01*
X262384Y62926D01*
X262238Y62958D01*
X262103Y63002D01*
X261989Y63050D01*
X261935Y63077D01*
X261892Y63099D01*
X261854Y63121D01*
X261821Y63142D01*
X261794Y63158D01*
X261778Y63175D01*
X261767Y63180D01*
X261762Y63185D01*
X261702Y63240D01*
X261648Y63294D01*
X261605Y63358D01*
X261567Y63418D01*
X261529Y63488D01*
X261502Y63553D01*
X261464Y63678D01*
X261437Y63797D01*
X261432Y63845D01*
X261426Y63889D01*
X261421Y63927D01*
Y63954D01*
Y63970D01*
Y63975D01*
X261426Y64062D01*
X261432Y64143D01*
X261464Y64294D01*
X261513Y64424D01*
X261540Y64484D01*
X261567Y64533D01*
X261594Y64581D01*
X261621Y64625D01*
X261643Y64657D01*
X261670Y64684D01*
X261686Y64706D01*
X261702Y64727D01*
X261708Y64733D01*
X261713Y64738D01*
X261772Y64787D01*
X261832Y64836D01*
X261973Y64911D01*
X262124Y64971D01*
X262270Y65014D01*
X262341Y65030D01*
X262405Y65047D01*
X262465Y65057D01*
X262514Y65068D01*
X262557Y65074D01*
X262589D01*
X262611Y65079D01*
X262616D01*
X262698Y64446D01*
X262584Y64435D01*
X262487Y64419D01*
X262405Y64392D01*
X262330Y64359D01*
X262270Y64327D01*
X262222Y64289D01*
X262178Y64246D01*
X262146Y64208D01*
X262119Y64165D01*
X262097Y64127D01*
X262086Y64089D01*
X262075Y64056D01*
X262070Y64029D01*
X262065Y64008D01*
Y63997D01*
Y63991D01*
X262070Y63921D01*
X262086Y63862D01*
X262108Y63808D01*
X262135Y63759D01*
X262162Y63726D01*
X262184Y63699D01*
X262200Y63683D01*
X262205Y63678D01*
X262259Y63634D01*
X262324Y63607D01*
X262389Y63586D01*
X262454Y63569D01*
X262514Y63559D01*
X262562Y63553D01*
X262606D01*
X262698Y63559D01*
X262790Y63575D01*
X262871Y63602D01*
X262947Y63624D01*
X263011Y63651D01*
X263060Y63678D01*
X263092Y63694D01*
X263098Y63699D01*
X263103D01*
X263136Y63721D01*
X263179Y63748D01*
X263228Y63786D01*
X263277Y63824D01*
X263385Y63905D01*
X263493Y63997D01*
X263590Y64078D01*
X263634Y64116D01*
X263677Y64148D01*
X263709Y64181D01*
X263731Y64202D01*
X263747Y64213D01*
X263753Y64219D01*
X263861Y64316D01*
X263969Y64403D01*
X264066Y64484D01*
X264158Y64560D01*
X264245Y64625D01*
X264326Y64684D01*
X264396Y64733D01*
X264467Y64781D01*
X264526Y64819D01*
X264575Y64852D01*
X264624Y64879D01*
X264656Y64900D01*
X264688Y64917D01*
X264710Y64927D01*
X264721Y64938D01*
X264726D01*
X264867Y64998D01*
X265002Y65052D01*
X265132Y65090D01*
X265251Y65117D01*
X265305Y65128D01*
X265354Y65133D01*
X265392Y65144D01*
X265430D01*
X265462Y65149D01*
X265484Y65155D01*
X265500D01*
Y62915D01*
D02*
G37*
G36*
X262216Y61032D02*
X262481Y61194D01*
X262757Y61335D01*
X263017Y61460D01*
X263141Y61514D01*
X263260Y61562D01*
X263369Y61606D01*
X263471Y61644D01*
X263558Y61676D01*
X263634Y61703D01*
X263693Y61725D01*
X263742Y61741D01*
X263769Y61746D01*
X263780Y61752D01*
X263942Y61800D01*
X264099Y61838D01*
X264413Y61909D01*
X264559Y61936D01*
X264699Y61957D01*
X264835Y61979D01*
X264964Y61995D01*
X265078Y62006D01*
X265181Y62017D01*
X265273Y62028D01*
X265354Y62033D01*
X265413D01*
X265462Y62038D01*
X265500D01*
Y61422D01*
X265289Y61416D01*
X265073Y61400D01*
X264862Y61373D01*
X264764Y61362D01*
X264672Y61346D01*
X264586Y61335D01*
X264505Y61324D01*
X264434Y61308D01*
X264375Y61297D01*
X264326Y61286D01*
X264294Y61281D01*
X264266Y61276D01*
X264261D01*
X264012Y61216D01*
X263774Y61146D01*
X263661Y61108D01*
X263558Y61076D01*
X263460Y61038D01*
X263369Y61005D01*
X263282Y60973D01*
X263206Y60946D01*
X263141Y60919D01*
X263087Y60892D01*
X263044Y60875D01*
X263011Y60859D01*
X262990Y60854D01*
X262984Y60848D01*
X262876Y60794D01*
X262773Y60746D01*
X262676Y60691D01*
X262584Y60643D01*
X262503Y60594D01*
X262427Y60551D01*
X262357Y60508D01*
X262297Y60464D01*
X262243Y60432D01*
X262194Y60399D01*
X262151Y60367D01*
X262119Y60345D01*
X262092Y60324D01*
X262075Y60307D01*
X262065Y60302D01*
X262059Y60296D01*
X261491D01*
Y62488D01*
X262216D01*
Y61032D01*
D02*
G37*
G36*
X264440Y59891D02*
X264537Y59880D01*
X264629Y59869D01*
X264716Y59847D01*
X264797Y59826D01*
X264872Y59799D01*
X264937Y59766D01*
X265002Y59739D01*
X265056Y59712D01*
X265105Y59680D01*
X265143Y59653D01*
X265181Y59631D01*
X265208Y59609D01*
X265224Y59593D01*
X265235Y59588D01*
X265240Y59582D01*
X265300Y59523D01*
X265349Y59458D01*
X265392Y59393D01*
X265430Y59328D01*
X265462Y59258D01*
X265489Y59193D01*
X265527Y59068D01*
X265543Y59009D01*
X265554Y58955D01*
X265560Y58906D01*
X265565Y58868D01*
X265570Y58836D01*
Y58809D01*
Y58793D01*
Y58787D01*
X265565Y58674D01*
X265549Y58571D01*
X265522Y58479D01*
X265495Y58398D01*
X265468Y58327D01*
X265441Y58279D01*
X265424Y58246D01*
X265419Y58235D01*
X265354Y58149D01*
X265284Y58068D01*
X265213Y58003D01*
X265143Y57948D01*
X265078Y57905D01*
X265029Y57873D01*
X265008Y57862D01*
X264991Y57851D01*
X264986Y57846D01*
X264981D01*
X264867Y57797D01*
X264753Y57765D01*
X264640Y57737D01*
X264537Y57721D01*
X264451Y57710D01*
X264413D01*
X264380Y57705D01*
X264315D01*
X264185Y57710D01*
X264061Y57727D01*
X263958Y57754D01*
X263866Y57775D01*
X263796Y57802D01*
X263742Y57829D01*
X263725Y57835D01*
X263709Y57846D01*
X263704Y57851D01*
X263699D01*
X263607Y57911D01*
X263531Y57976D01*
X263466Y58046D01*
X263406Y58116D01*
X263363Y58176D01*
X263336Y58224D01*
X263314Y58262D01*
X263309Y58268D01*
Y58273D01*
X263260Y58197D01*
X263212Y58132D01*
X263152Y58073D01*
X263103Y58024D01*
X263055Y57986D01*
X263017Y57959D01*
X262990Y57943D01*
X262979Y57938D01*
X262892Y57894D01*
X262806Y57867D01*
X262719Y57846D01*
X262638Y57829D01*
X262568Y57819D01*
X262514Y57813D01*
X262465D01*
X262384Y57819D01*
X262308Y57824D01*
X262162Y57851D01*
X262038Y57894D01*
X261929Y57943D01*
X261886Y57965D01*
X261843Y57992D01*
X261805Y58013D01*
X261778Y58030D01*
X261756Y58051D01*
X261740Y58062D01*
X261729Y58068D01*
X261724Y58073D01*
X261670Y58122D01*
X261621Y58176D01*
X261583Y58235D01*
X261551Y58295D01*
X261497Y58419D01*
X261459Y58538D01*
X261437Y58646D01*
X261432Y58695D01*
X261426Y58733D01*
X261421Y58765D01*
Y58793D01*
Y58809D01*
Y58814D01*
X261426Y58895D01*
X261432Y58976D01*
X261464Y59123D01*
X261513Y59247D01*
X261561Y59350D01*
X261589Y59398D01*
X261616Y59436D01*
X261643Y59469D01*
X261664Y59496D01*
X261681Y59517D01*
X261697Y59534D01*
X261702Y59539D01*
X261708Y59544D01*
X261762Y59593D01*
X261821Y59631D01*
X261881Y59669D01*
X261946Y59701D01*
X262070Y59750D01*
X262194Y59782D01*
X262303Y59799D01*
X262351Y59804D01*
X262389Y59810D01*
X262422Y59815D01*
X262470D01*
X262573Y59810D01*
X262671Y59799D01*
X262757Y59777D01*
X262833Y59755D01*
X262892Y59734D01*
X262936Y59712D01*
X262963Y59701D01*
X262973Y59696D01*
X263049Y59647D01*
X263114Y59593D01*
X263174Y59534D01*
X263222Y59474D01*
X263260Y59425D01*
X263287Y59382D01*
X263303Y59355D01*
X263309Y59344D01*
X263363Y59436D01*
X263428Y59523D01*
X263493Y59593D01*
X263558Y59647D01*
X263617Y59696D01*
X263666Y59728D01*
X263699Y59750D01*
X263704Y59755D01*
X263709D01*
X263812Y59804D01*
X263920Y59837D01*
X264023Y59864D01*
X264120Y59880D01*
X264207Y59891D01*
X264245D01*
X264277Y59896D01*
X264337D01*
X264440Y59891D01*
D02*
G37*
G36*
X258682Y62942D02*
X258855Y62926D01*
X259012Y62904D01*
X259164Y62877D01*
X259304Y62839D01*
X259434Y62801D01*
X259553Y62758D01*
X259656Y62715D01*
X259753Y62672D01*
X259835Y62628D01*
X259905Y62590D01*
X259964Y62553D01*
X260013Y62526D01*
X260046Y62504D01*
X260067Y62488D01*
X260073Y62482D01*
X260159Y62401D01*
X260235Y62320D01*
X260305Y62234D01*
X260359Y62147D01*
X260408Y62060D01*
X260451Y61968D01*
X260484Y61887D01*
X260505Y61801D01*
X260527Y61725D01*
X260543Y61655D01*
X260554Y61590D01*
X260565Y61536D01*
Y61492D01*
X260570Y61454D01*
Y61433D01*
Y61427D01*
X260565Y61330D01*
X260554Y61238D01*
X260543Y61151D01*
X260522Y61070D01*
X260500Y60995D01*
X260473Y60924D01*
X260440Y60859D01*
X260413Y60794D01*
X260386Y60740D01*
X260354Y60697D01*
X260327Y60654D01*
X260305Y60621D01*
X260284Y60594D01*
X260267Y60573D01*
X260262Y60562D01*
X260257Y60556D01*
X260192Y60491D01*
X260121Y60432D01*
X260046Y60378D01*
X259970Y60324D01*
X259802Y60237D01*
X259640Y60167D01*
X259564Y60134D01*
X259494Y60113D01*
X259429Y60091D01*
X259375Y60075D01*
X259326Y60059D01*
X259288Y60048D01*
X259266Y60042D01*
X259261D01*
X259007Y60697D01*
X259088Y60713D01*
X259164Y60735D01*
X259234Y60756D01*
X259299Y60778D01*
X259359Y60800D01*
X259413Y60821D01*
X259505Y60870D01*
X259575Y60913D01*
X259624Y60946D01*
X259651Y60967D01*
X259662Y60978D01*
X259732Y61054D01*
X259781Y61130D01*
X259818Y61211D01*
X259840Y61281D01*
X259856Y61346D01*
X259862Y61395D01*
X259867Y61427D01*
Y61433D01*
Y61438D01*
X259862Y61503D01*
X259851Y61568D01*
X259835Y61628D01*
X259818Y61682D01*
X259764Y61784D01*
X259705Y61871D01*
X259645Y61936D01*
X259591Y61985D01*
X259575Y62006D01*
X259559Y62017D01*
X259548Y62023D01*
X259542Y62028D01*
X259477Y62066D01*
X259402Y62104D01*
X259321Y62131D01*
X259234Y62158D01*
X259055Y62201D01*
X258872Y62228D01*
X258790Y62234D01*
X258709Y62244D01*
X258639Y62250D01*
X258574D01*
X258520Y62255D01*
X258450D01*
X258314Y62250D01*
X258190Y62244D01*
X258076Y62234D01*
X257974Y62217D01*
X257876Y62201D01*
X257790Y62179D01*
X257708Y62158D01*
X257644Y62136D01*
X257579Y62114D01*
X257530Y62098D01*
X257487Y62077D01*
X257449Y62060D01*
X257422Y62044D01*
X257405Y62033D01*
X257395Y62023D01*
X257389D01*
X257330Y61979D01*
X257281Y61931D01*
X257238Y61882D01*
X257200Y61828D01*
X257167Y61779D01*
X257146Y61730D01*
X257102Y61633D01*
X257081Y61552D01*
X257076Y61514D01*
X257070Y61481D01*
X257065Y61460D01*
Y61438D01*
Y61427D01*
Y61422D01*
X257070Y61330D01*
X257092Y61243D01*
X257119Y61168D01*
X257151Y61097D01*
X257189Y61049D01*
X257216Y61005D01*
X257238Y60984D01*
X257243Y60973D01*
X257313Y60908D01*
X257395Y60848D01*
X257481Y60805D01*
X257562Y60767D01*
X257633Y60746D01*
X257692Y60724D01*
X257714Y60719D01*
X257730D01*
X257741Y60713D01*
X257746D01*
X257552Y60048D01*
X257454Y60075D01*
X257362Y60102D01*
X257281Y60134D01*
X257200Y60161D01*
X257130Y60199D01*
X257065Y60232D01*
X257005Y60264D01*
X256951Y60291D01*
X256902Y60324D01*
X256859Y60351D01*
X256827Y60378D01*
X256794Y60400D01*
X256772Y60416D01*
X256756Y60432D01*
X256751Y60437D01*
X256746Y60443D01*
X256675Y60513D01*
X256621Y60594D01*
X256567Y60670D01*
X256524Y60751D01*
X256486Y60827D01*
X256453Y60908D01*
X256432Y60984D01*
X256410Y61054D01*
X256394Y61124D01*
X256383Y61184D01*
X256372Y61243D01*
X256367Y61292D01*
X256361Y61330D01*
Y61357D01*
Y61379D01*
Y61384D01*
X256367Y61509D01*
X256383Y61628D01*
X256410Y61741D01*
X256442Y61844D01*
X256480Y61941D01*
X256524Y62033D01*
X256572Y62114D01*
X256616Y62190D01*
X256664Y62255D01*
X256713Y62315D01*
X256756Y62363D01*
X256794Y62407D01*
X256827Y62439D01*
X256854Y62461D01*
X256870Y62477D01*
X256875Y62482D01*
X256989Y62564D01*
X257113Y62634D01*
X257243Y62699D01*
X257378Y62753D01*
X257514Y62796D01*
X257649Y62834D01*
X257784Y62866D01*
X257909Y62888D01*
X258033Y62910D01*
X258141Y62920D01*
X258244Y62931D01*
X258331Y62942D01*
X258406D01*
X258460Y62948D01*
X258504D01*
X258682Y62942D01*
D02*
G37*
G36*
X250900Y39538D02*
X251300Y39500D01*
X251662Y39450D01*
X252012Y39388D01*
X252338Y39300D01*
X252638Y39213D01*
X252912Y39112D01*
X253150Y39013D01*
X253375Y38912D01*
X253562Y38813D01*
X253725Y38725D01*
X253863Y38638D01*
X253975Y38575D01*
X254050Y38525D01*
X254100Y38487D01*
X254113Y38475D01*
X254312Y38287D01*
X254487Y38100D01*
X254650Y37900D01*
X254775Y37700D01*
X254888Y37500D01*
X254988Y37288D01*
X255063Y37100D01*
X255113Y36900D01*
X255163Y36725D01*
X255200Y36562D01*
X255225Y36413D01*
X255250Y36288D01*
Y36187D01*
X255262Y36100D01*
Y36050D01*
Y36037D01*
X255250Y35813D01*
X255225Y35600D01*
X255200Y35400D01*
X255150Y35212D01*
X255100Y35037D01*
X255037Y34875D01*
X254962Y34725D01*
X254900Y34575D01*
X254837Y34450D01*
X254763Y34350D01*
X254700Y34250D01*
X254650Y34175D01*
X254600Y34113D01*
X254562Y34062D01*
X254550Y34038D01*
X254538Y34025D01*
X254387Y33875D01*
X254225Y33737D01*
X254050Y33612D01*
X253875Y33487D01*
X253487Y33288D01*
X253113Y33125D01*
X252938Y33050D01*
X252775Y33000D01*
X252625Y32950D01*
X252500Y32912D01*
X252387Y32875D01*
X252300Y32850D01*
X252250Y32838D01*
X252238D01*
X251650Y34350D01*
X251837Y34387D01*
X252012Y34438D01*
X252175Y34488D01*
X252325Y34538D01*
X252463Y34587D01*
X252588Y34637D01*
X252800Y34750D01*
X252962Y34850D01*
X253075Y34925D01*
X253137Y34975D01*
X253163Y35000D01*
X253325Y35175D01*
X253437Y35350D01*
X253525Y35537D01*
X253575Y35700D01*
X253612Y35850D01*
X253625Y35963D01*
X253638Y36037D01*
Y36050D01*
Y36062D01*
X253625Y36213D01*
X253600Y36362D01*
X253562Y36500D01*
X253525Y36625D01*
X253400Y36862D01*
X253262Y37062D01*
X253125Y37212D01*
X253000Y37325D01*
X252962Y37375D01*
X252925Y37400D01*
X252900Y37413D01*
X252888Y37425D01*
X252737Y37512D01*
X252562Y37600D01*
X252375Y37663D01*
X252175Y37725D01*
X251763Y37825D01*
X251338Y37887D01*
X251150Y37900D01*
X250962Y37925D01*
X250800Y37938D01*
X250650D01*
X250525Y37950D01*
X250362D01*
X250050Y37938D01*
X249763Y37925D01*
X249500Y37900D01*
X249262Y37863D01*
X249038Y37825D01*
X248837Y37775D01*
X248650Y37725D01*
X248500Y37675D01*
X248350Y37625D01*
X248237Y37587D01*
X248137Y37538D01*
X248050Y37500D01*
X247988Y37462D01*
X247950Y37437D01*
X247925Y37413D01*
X247913D01*
X247775Y37312D01*
X247662Y37200D01*
X247563Y37088D01*
X247475Y36963D01*
X247400Y36850D01*
X247350Y36737D01*
X247250Y36513D01*
X247200Y36325D01*
X247187Y36237D01*
X247175Y36162D01*
X247163Y36112D01*
Y36062D01*
Y36037D01*
Y36025D01*
X247175Y35813D01*
X247225Y35612D01*
X247288Y35438D01*
X247362Y35275D01*
X247450Y35162D01*
X247513Y35063D01*
X247563Y35013D01*
X247575Y34988D01*
X247738Y34837D01*
X247925Y34700D01*
X248125Y34600D01*
X248312Y34512D01*
X248475Y34462D01*
X248612Y34413D01*
X248662Y34400D01*
X248700D01*
X248725Y34387D01*
X248738D01*
X248288Y32850D01*
X248062Y32912D01*
X247850Y32975D01*
X247662Y33050D01*
X247475Y33112D01*
X247312Y33200D01*
X247163Y33275D01*
X247025Y33350D01*
X246900Y33413D01*
X246788Y33487D01*
X246688Y33550D01*
X246613Y33612D01*
X246537Y33663D01*
X246487Y33700D01*
X246450Y33737D01*
X246438Y33750D01*
X246425Y33762D01*
X246263Y33925D01*
X246137Y34113D01*
X246012Y34288D01*
X245913Y34475D01*
X245825Y34650D01*
X245750Y34837D01*
X245700Y35013D01*
X245650Y35175D01*
X245613Y35337D01*
X245587Y35475D01*
X245563Y35612D01*
X245550Y35725D01*
X245537Y35813D01*
Y35875D01*
Y35925D01*
Y35938D01*
X245550Y36225D01*
X245587Y36500D01*
X245650Y36762D01*
X245725Y37000D01*
X245813Y37225D01*
X245913Y37437D01*
X246025Y37625D01*
X246125Y37800D01*
X246237Y37950D01*
X246350Y38087D01*
X246450Y38200D01*
X246537Y38300D01*
X246613Y38375D01*
X246675Y38425D01*
X246712Y38462D01*
X246725Y38475D01*
X246988Y38662D01*
X247275Y38825D01*
X247575Y38975D01*
X247887Y39100D01*
X248200Y39200D01*
X248513Y39287D01*
X248825Y39362D01*
X249113Y39413D01*
X249400Y39463D01*
X249650Y39487D01*
X249887Y39513D01*
X250087Y39538D01*
X250262D01*
X250388Y39550D01*
X250487D01*
X250900Y39538D01*
D02*
G37*
G36*
X258677Y59604D02*
X258850Y59588D01*
X259012Y59566D01*
X259164Y59534D01*
X259304Y59501D01*
X259434Y59458D01*
X259553Y59415D01*
X259656Y59372D01*
X259753Y59328D01*
X259835Y59285D01*
X259910Y59242D01*
X259964Y59209D01*
X260013Y59177D01*
X260046Y59155D01*
X260067Y59139D01*
X260073Y59133D01*
X260159Y59052D01*
X260235Y58966D01*
X260305Y58874D01*
X260359Y58782D01*
X260408Y58684D01*
X260451Y58587D01*
X260484Y58495D01*
X260505Y58409D01*
X260527Y58322D01*
X260543Y58241D01*
X260554Y58171D01*
X260565Y58111D01*
Y58062D01*
X260570Y58025D01*
Y57997D01*
Y57992D01*
X260565Y57862D01*
X260549Y57738D01*
X260522Y57619D01*
X260489Y57511D01*
X260451Y57408D01*
X260413Y57316D01*
X260365Y57229D01*
X260316Y57153D01*
X260273Y57083D01*
X260224Y57024D01*
X260186Y56975D01*
X260143Y56932D01*
X260116Y56899D01*
X260089Y56878D01*
X260073Y56861D01*
X260067Y56856D01*
X259954Y56769D01*
X259835Y56699D01*
X259705Y56634D01*
X259575Y56580D01*
X259440Y56531D01*
X259304Y56494D01*
X259174Y56461D01*
X259050Y56434D01*
X258931Y56412D01*
X258818Y56401D01*
X258720Y56391D01*
X258634Y56380D01*
X258563D01*
X258509Y56374D01*
X258466D01*
X258282Y56380D01*
X258109Y56396D01*
X257946Y56418D01*
X257800Y56445D01*
X257660Y56477D01*
X257530Y56520D01*
X257416Y56558D01*
X257313Y56602D01*
X257222Y56645D01*
X257140Y56683D01*
X257070Y56721D01*
X257016Y56759D01*
X256973Y56786D01*
X256940Y56807D01*
X256919Y56823D01*
X256913Y56829D01*
X256816Y56915D01*
X256729Y57007D01*
X256659Y57105D01*
X256594Y57202D01*
X256540Y57300D01*
X256497Y57392D01*
X256459Y57489D01*
X256432Y57581D01*
X256410Y57662D01*
X256388Y57743D01*
X256378Y57814D01*
X256372Y57873D01*
X256367Y57922D01*
X256361Y57960D01*
Y57981D01*
Y57992D01*
Y58084D01*
X256372Y58171D01*
X256399Y58333D01*
X256437Y58479D01*
X256453Y58544D01*
X256475Y58598D01*
X256497Y58652D01*
X256518Y58701D01*
X256540Y58739D01*
X256556Y58776D01*
X256572Y58798D01*
X256583Y58820D01*
X256589Y58831D01*
X256594Y58836D01*
X256643Y58901D01*
X256691Y58960D01*
X256800Y59069D01*
X256919Y59166D01*
X257032Y59247D01*
X257135Y59312D01*
X257178Y59339D01*
X257222Y59361D01*
X257254Y59377D01*
X257276Y59388D01*
X257292Y59399D01*
X257297D01*
X257389Y59437D01*
X257481Y59469D01*
X257681Y59523D01*
X257882Y59556D01*
X257979Y59572D01*
X258071Y59583D01*
X258157Y59593D01*
X258239Y59599D01*
X258309Y59604D01*
X258374D01*
X258423Y59610D01*
X258493D01*
X258677Y59604D01*
D02*
G37*
G36*
X260500Y63472D02*
X256432D01*
Y64143D01*
X260500D01*
Y63472D01*
D02*
G37*
G36*
X259299Y74363D02*
X259418Y74341D01*
X259532Y74314D01*
X259634Y74282D01*
X259732Y74244D01*
X259824Y74206D01*
X259905Y74157D01*
X259981Y74108D01*
X260051Y74060D01*
X260116Y74006D01*
X260175Y73946D01*
X260229Y73892D01*
X260321Y73768D01*
X260397Y73649D01*
X260451Y73529D01*
X260495Y73416D01*
X260527Y73308D01*
X260549Y73216D01*
X260560Y73135D01*
X260565Y73102D01*
Y73075D01*
X260570Y73053D01*
Y73037D01*
Y73026D01*
Y73021D01*
X260565Y72897D01*
X260554Y72778D01*
X260538Y72669D01*
X260516Y72572D01*
X260489Y72480D01*
X260457Y72393D01*
X260424Y72318D01*
X260392Y72253D01*
X260359Y72193D01*
X260327Y72145D01*
X260294Y72101D01*
X260267Y72063D01*
X260246Y72036D01*
X260229Y72020D01*
X260219Y72009D01*
X260213Y72004D01*
X260143Y71944D01*
X260073Y71896D01*
X259997Y71852D01*
X259921Y71815D01*
X259845Y71782D01*
X259770Y71755D01*
X259629Y71717D01*
X259564Y71701D01*
X259510Y71690D01*
X259456Y71685D01*
X259407Y71679D01*
X259369Y71674D01*
X259321D01*
X259191Y71679D01*
X259072Y71696D01*
X258964Y71712D01*
X258877Y71733D01*
X258801Y71760D01*
X258747Y71777D01*
X258731Y71788D01*
X258715Y71793D01*
X258709Y71798D01*
X258704D01*
X258612Y71847D01*
X258531Y71901D01*
X258455Y71961D01*
X258396Y72015D01*
X258347Y72069D01*
X258309Y72107D01*
X258287Y72134D01*
X258282Y72145D01*
X258249Y72188D01*
X258222Y72242D01*
X258163Y72350D01*
X258114Y72475D01*
X258066Y72594D01*
X258028Y72702D01*
X258011Y72751D01*
X258001Y72794D01*
X257990Y72826D01*
X257979Y72853D01*
X257974Y72869D01*
Y72875D01*
X257946Y72961D01*
X257919Y73037D01*
X257898Y73108D01*
X257876Y73172D01*
X257855Y73232D01*
X257833Y73281D01*
X257811Y73324D01*
X257795Y73362D01*
X257779Y73394D01*
X257763Y73421D01*
X257741Y73459D01*
X257725Y73481D01*
X257719Y73486D01*
X257676Y73529D01*
X257627Y73562D01*
X257584Y73584D01*
X257541Y73600D01*
X257503Y73611D01*
X257470Y73616D01*
X257443D01*
X257384Y73611D01*
X257324Y73594D01*
X257276Y73567D01*
X257232Y73540D01*
X257200Y73519D01*
X257178Y73492D01*
X257162Y73475D01*
X257157Y73470D01*
X257119Y73410D01*
X257092Y73346D01*
X257070Y73275D01*
X257059Y73205D01*
X257048Y73145D01*
X257043Y73097D01*
Y73064D01*
Y73059D01*
Y73053D01*
X257048Y72956D01*
X257065Y72875D01*
X257086Y72805D01*
X257108Y72745D01*
X257130Y72696D01*
X257151Y72664D01*
X257167Y72642D01*
X257173Y72637D01*
X257227Y72588D01*
X257297Y72545D01*
X257373Y72513D01*
X257449Y72485D01*
X257519Y72464D01*
X257573Y72453D01*
X257595Y72448D01*
X257611Y72442D01*
X257627D01*
X257589Y71766D01*
X257481Y71771D01*
X257378Y71788D01*
X257287Y71804D01*
X257200Y71831D01*
X257119Y71858D01*
X257043Y71885D01*
X256973Y71917D01*
X256913Y71950D01*
X256859Y71982D01*
X256810Y72009D01*
X256772Y72042D01*
X256740Y72063D01*
X256713Y72085D01*
X256697Y72101D01*
X256686Y72112D01*
X256680Y72118D01*
X256626Y72183D01*
X256572Y72253D01*
X256535Y72323D01*
X256497Y72399D01*
X256464Y72475D01*
X256437Y72556D01*
X256399Y72702D01*
X256388Y72772D01*
X256378Y72832D01*
X256372Y72891D01*
X256367Y72940D01*
X256361Y72983D01*
Y73010D01*
Y73032D01*
Y73037D01*
X256367Y73178D01*
X256383Y73302D01*
X256405Y73416D01*
X256432Y73513D01*
X256459Y73589D01*
X256469Y73621D01*
X256480Y73649D01*
X256491Y73670D01*
X256497Y73686D01*
X256502Y73692D01*
Y73697D01*
X256556Y73789D01*
X256621Y73876D01*
X256686Y73946D01*
X256751Y74006D01*
X256810Y74054D01*
X256859Y74087D01*
X256891Y74108D01*
X256897Y74114D01*
X256902D01*
X257005Y74163D01*
X257108Y74200D01*
X257211Y74222D01*
X257303Y74244D01*
X257384Y74255D01*
X257416D01*
X257449Y74260D01*
X257503D01*
X257606Y74255D01*
X257708Y74244D01*
X257800Y74222D01*
X257876Y74200D01*
X257946Y74184D01*
X257995Y74163D01*
X258028Y74152D01*
X258033Y74146D01*
X258038D01*
X258125Y74098D01*
X258206Y74044D01*
X258271Y73995D01*
X258331Y73941D01*
X258374Y73897D01*
X258412Y73860D01*
X258433Y73838D01*
X258439Y73827D01*
X258493Y73741D01*
X258547Y73643D01*
X258596Y73540D01*
X258634Y73438D01*
X258671Y73346D01*
X258688Y73302D01*
X258699Y73270D01*
X258709Y73243D01*
X258715Y73216D01*
X258720Y73205D01*
Y73199D01*
X258747Y73113D01*
X258769Y73037D01*
X258796Y72967D01*
X258812Y72902D01*
X258834Y72848D01*
X258850Y72794D01*
X258866Y72751D01*
X258882Y72718D01*
X258893Y72686D01*
X258904Y72658D01*
X258920Y72621D01*
X258926Y72599D01*
X258931Y72594D01*
X258953Y72550D01*
X258980Y72513D01*
X259007Y72480D01*
X259034Y72453D01*
X259055Y72437D01*
X259072Y72421D01*
X259083Y72410D01*
X259088D01*
X259126Y72388D01*
X259164Y72372D01*
X259245Y72350D01*
X259277D01*
X259304Y72345D01*
X259326D01*
X259413Y72350D01*
X259488Y72372D01*
X259553Y72399D01*
X259613Y72431D01*
X259656Y72469D01*
X259694Y72496D01*
X259716Y72518D01*
X259721Y72523D01*
X259775Y72594D01*
X259813Y72669D01*
X259840Y72751D01*
X259856Y72826D01*
X259867Y72897D01*
X259878Y72951D01*
Y72972D01*
Y72983D01*
Y72994D01*
Y72999D01*
X259867Y73108D01*
X259845Y73205D01*
X259807Y73297D01*
X259753Y73373D01*
X259699Y73443D01*
X259629Y73497D01*
X259559Y73551D01*
X259488Y73594D01*
X259418Y73627D01*
X259348Y73659D01*
X259277Y73681D01*
X259218Y73697D01*
X259169Y73708D01*
X259131Y73719D01*
X259110Y73724D01*
X259099D01*
X259174Y74379D01*
X259299Y74363D01*
D02*
G37*
G36*
X260500Y68569D02*
X259813D01*
Y70435D01*
X258709D01*
Y68758D01*
X258022D01*
Y70435D01*
X257119D01*
Y68628D01*
X256432D01*
Y71106D01*
X260500D01*
Y68569D01*
D02*
G37*
G36*
Y67384D02*
X257297D01*
X260500Y66729D01*
Y66080D01*
X257297Y65420D01*
X260500D01*
Y64792D01*
X256432D01*
Y65810D01*
X259212Y66405D01*
X256432Y67005D01*
Y68011D01*
X260500D01*
Y67384D01*
D02*
G37*
G36*
X258920Y49125D02*
X259061Y49120D01*
X259191Y49109D01*
X259304Y49098D01*
X259407Y49087D01*
X259499Y49076D01*
X259575Y49066D01*
X259645Y49055D01*
X259705Y49044D01*
X259753Y49033D01*
X259791Y49022D01*
X259824Y49011D01*
X259845Y49006D01*
X259856Y49001D01*
X259862D01*
X259981Y48946D01*
X260083Y48882D01*
X260175Y48811D01*
X260251Y48741D01*
X260311Y48676D01*
X260354Y48627D01*
X260365Y48606D01*
X260376Y48589D01*
X260386Y48584D01*
Y48579D01*
X260446Y48460D01*
X260495Y48324D01*
X260527Y48189D01*
X260549Y48059D01*
X260554Y48000D01*
X260560Y47940D01*
X260565Y47892D01*
Y47848D01*
X260570Y47810D01*
Y47783D01*
Y47767D01*
Y47762D01*
X260560Y47583D01*
X260538Y47421D01*
X260516Y47351D01*
X260500Y47280D01*
X260478Y47221D01*
X260457Y47167D01*
X260440Y47118D01*
X260419Y47075D01*
X260397Y47037D01*
X260381Y47004D01*
X260370Y46983D01*
X260359Y46966D01*
X260349Y46956D01*
Y46950D01*
X260257Y46842D01*
X260159Y46761D01*
X260062Y46690D01*
X259970Y46636D01*
X259883Y46599D01*
X259851Y46582D01*
X259818Y46571D01*
X259791Y46566D01*
X259775Y46561D01*
X259764Y46555D01*
X259759D01*
X259683Y46539D01*
X259602Y46523D01*
X259515Y46512D01*
X259418Y46501D01*
X259223Y46485D01*
X259029Y46474D01*
X258937Y46469D01*
X258850D01*
X258774Y46463D01*
X256432D01*
Y47134D01*
X258893D01*
X258980Y47140D01*
X259066Y47145D01*
X259137Y47150D01*
X259202D01*
X259261Y47156D01*
X259310Y47161D01*
X259353Y47167D01*
X259385Y47172D01*
X259418Y47177D01*
X259440Y47183D01*
X259456Y47188D01*
X259467D01*
X259477Y47194D01*
X259542Y47215D01*
X259602Y47248D01*
X259651Y47280D01*
X259688Y47313D01*
X259721Y47345D01*
X259743Y47372D01*
X259759Y47388D01*
X259764Y47394D01*
X259797Y47453D01*
X259824Y47513D01*
X259840Y47578D01*
X259856Y47643D01*
X259862Y47697D01*
X259867Y47740D01*
Y47767D01*
Y47772D01*
Y47778D01*
X259862Y47875D01*
X259845Y47962D01*
X259818Y48043D01*
X259791Y48108D01*
X259770Y48157D01*
X259743Y48195D01*
X259726Y48216D01*
X259721Y48227D01*
X259662Y48287D01*
X259596Y48330D01*
X259526Y48368D01*
X259456Y48395D01*
X259396Y48416D01*
X259348Y48427D01*
X259315Y48438D01*
X259304D01*
X259272Y48443D01*
X259234D01*
X259185Y48449D01*
X259137D01*
X259029Y48454D01*
X258915D01*
X258812Y48460D01*
X256432D01*
Y49130D01*
X258769D01*
X258920Y49125D01*
D02*
G37*
G36*
X257119Y41659D02*
X260500D01*
Y40988D01*
X257119D01*
Y39998D01*
X256432D01*
Y42649D01*
X257119D01*
Y41659D01*
D02*
G37*
G36*
X258682Y45879D02*
X258855Y45863D01*
X259012Y45841D01*
X259164Y45814D01*
X259304Y45776D01*
X259434Y45738D01*
X259553Y45695D01*
X259656Y45652D01*
X259753Y45608D01*
X259835Y45565D01*
X259905Y45527D01*
X259964Y45489D01*
X260013Y45463D01*
X260046Y45441D01*
X260067Y45425D01*
X260073Y45419D01*
X260159Y45338D01*
X260235Y45257D01*
X260305Y45170D01*
X260359Y45084D01*
X260408Y44997D01*
X260451Y44905D01*
X260484Y44824D01*
X260505Y44737D01*
X260527Y44662D01*
X260543Y44592D01*
X260554Y44526D01*
X260565Y44472D01*
Y44429D01*
X260570Y44391D01*
Y44370D01*
Y44364D01*
X260565Y44267D01*
X260554Y44175D01*
X260543Y44088D01*
X260522Y44007D01*
X260500Y43931D01*
X260473Y43861D01*
X260440Y43796D01*
X260413Y43731D01*
X260386Y43677D01*
X260354Y43634D01*
X260327Y43591D01*
X260305Y43558D01*
X260284Y43531D01*
X260267Y43510D01*
X260262Y43499D01*
X260257Y43493D01*
X260192Y43428D01*
X260121Y43369D01*
X260046Y43315D01*
X259970Y43261D01*
X259802Y43174D01*
X259640Y43104D01*
X259564Y43071D01*
X259494Y43050D01*
X259429Y43028D01*
X259375Y43012D01*
X259326Y42996D01*
X259288Y42985D01*
X259266Y42979D01*
X259261D01*
X259007Y43634D01*
X259088Y43650D01*
X259164Y43672D01*
X259234Y43693D01*
X259299Y43715D01*
X259359Y43737D01*
X259413Y43758D01*
X259505Y43807D01*
X259575Y43850D01*
X259624Y43883D01*
X259651Y43904D01*
X259662Y43915D01*
X259732Y43991D01*
X259781Y44067D01*
X259818Y44148D01*
X259840Y44218D01*
X259856Y44283D01*
X259862Y44332D01*
X259867Y44364D01*
Y44370D01*
Y44375D01*
X259862Y44440D01*
X259851Y44505D01*
X259835Y44564D01*
X259818Y44618D01*
X259764Y44721D01*
X259705Y44808D01*
X259645Y44873D01*
X259591Y44921D01*
X259575Y44943D01*
X259559Y44954D01*
X259548Y44959D01*
X259542Y44965D01*
X259477Y45003D01*
X259402Y45041D01*
X259321Y45068D01*
X259234Y45095D01*
X259055Y45138D01*
X258872Y45165D01*
X258790Y45170D01*
X258709Y45181D01*
X258639Y45187D01*
X258574D01*
X258520Y45192D01*
X258450D01*
X258314Y45187D01*
X258190Y45181D01*
X258076Y45170D01*
X257974Y45154D01*
X257876Y45138D01*
X257790Y45116D01*
X257708Y45095D01*
X257644Y45073D01*
X257579Y45051D01*
X257530Y45035D01*
X257487Y45013D01*
X257449Y44997D01*
X257422Y44981D01*
X257405Y44970D01*
X257395Y44959D01*
X257389D01*
X257330Y44916D01*
X257281Y44867D01*
X257238Y44819D01*
X257200Y44765D01*
X257167Y44716D01*
X257146Y44667D01*
X257102Y44570D01*
X257081Y44489D01*
X257076Y44451D01*
X257070Y44418D01*
X257065Y44397D01*
Y44375D01*
Y44364D01*
Y44359D01*
X257070Y44267D01*
X257092Y44180D01*
X257119Y44105D01*
X257151Y44034D01*
X257189Y43986D01*
X257216Y43942D01*
X257238Y43921D01*
X257243Y43910D01*
X257313Y43845D01*
X257395Y43785D01*
X257481Y43742D01*
X257562Y43704D01*
X257633Y43683D01*
X257692Y43661D01*
X257714Y43655D01*
X257730D01*
X257741Y43650D01*
X257746D01*
X257552Y42985D01*
X257454Y43012D01*
X257362Y43039D01*
X257281Y43071D01*
X257200Y43098D01*
X257130Y43136D01*
X257065Y43169D01*
X257005Y43201D01*
X256951Y43228D01*
X256902Y43261D01*
X256859Y43288D01*
X256827Y43315D01*
X256794Y43336D01*
X256772Y43353D01*
X256756Y43369D01*
X256751Y43374D01*
X256746Y43380D01*
X256675Y43450D01*
X256621Y43531D01*
X256567Y43607D01*
X256524Y43688D01*
X256486Y43764D01*
X256453Y43845D01*
X256432Y43921D01*
X256410Y43991D01*
X256394Y44061D01*
X256383Y44121D01*
X256372Y44180D01*
X256367Y44229D01*
X256361Y44267D01*
Y44294D01*
Y44316D01*
Y44321D01*
X256367Y44445D01*
X256383Y44564D01*
X256410Y44678D01*
X256442Y44781D01*
X256480Y44878D01*
X256524Y44970D01*
X256572Y45051D01*
X256616Y45127D01*
X256664Y45192D01*
X256713Y45252D01*
X256756Y45300D01*
X256794Y45344D01*
X256827Y45376D01*
X256854Y45398D01*
X256870Y45414D01*
X256875Y45419D01*
X256989Y45500D01*
X257113Y45571D01*
X257243Y45636D01*
X257378Y45690D01*
X257514Y45733D01*
X257649Y45771D01*
X257784Y45803D01*
X257909Y45825D01*
X258033Y45847D01*
X258141Y45857D01*
X258244Y45868D01*
X258331Y45879D01*
X258406D01*
X258460Y45884D01*
X258504D01*
X258682Y45879D01*
D02*
G37*
G36*
X260500Y55206D02*
X257849D01*
X260500Y53870D01*
Y53188D01*
X256432D01*
Y53816D01*
X259153D01*
X256432Y55179D01*
Y55833D01*
X260500D01*
Y55206D01*
D02*
G37*
G36*
X255100Y40762D02*
X245700D01*
Y42312D01*
X255100D01*
Y40762D01*
D02*
G37*
G36*
X260500Y51230D02*
X260495Y51083D01*
X260484Y50954D01*
X260462Y50840D01*
X260440Y50743D01*
X260424Y50667D01*
X260413Y50634D01*
X260403Y50613D01*
X260397Y50591D01*
X260392Y50575D01*
X260386Y50569D01*
Y50564D01*
X260338Y50472D01*
X260284Y50386D01*
X260229Y50310D01*
X260175Y50245D01*
X260121Y50196D01*
X260083Y50158D01*
X260056Y50131D01*
X260046Y50126D01*
X259954Y50061D01*
X259851Y50002D01*
X259748Y49947D01*
X259651Y49904D01*
X259564Y49872D01*
X259526Y49855D01*
X259494Y49845D01*
X259467Y49834D01*
X259445Y49828D01*
X259434Y49823D01*
X259429D01*
X259277Y49780D01*
X259120Y49753D01*
X258969Y49731D01*
X258823Y49715D01*
X258758Y49709D01*
X258699Y49704D01*
X258644D01*
X258596Y49698D01*
X258509D01*
X258298Y49704D01*
X258201Y49709D01*
X258109Y49715D01*
X258022Y49725D01*
X257941Y49736D01*
X257865Y49747D01*
X257800Y49753D01*
X257741Y49763D01*
X257687Y49774D01*
X257638Y49785D01*
X257600Y49796D01*
X257568Y49801D01*
X257546Y49807D01*
X257535Y49812D01*
X257530D01*
X257389Y49855D01*
X257265Y49909D01*
X257157Y49964D01*
X257065Y50012D01*
X256989Y50056D01*
X256935Y50093D01*
X256919Y50104D01*
X256902Y50115D01*
X256891Y50126D01*
X256805Y50202D01*
X256729Y50277D01*
X256670Y50353D01*
X256621Y50418D01*
X256583Y50477D01*
X256561Y50526D01*
X256545Y50553D01*
X256540Y50559D01*
Y50564D01*
X256502Y50661D01*
X256475Y50775D01*
X256459Y50889D01*
X256442Y51002D01*
X256437Y51105D01*
Y51154D01*
X256432Y51192D01*
Y51224D01*
Y51246D01*
Y51262D01*
Y51267D01*
Y52490D01*
X260500D01*
Y51230D01*
D02*
G37*
%LPC*%
G36*
X250550Y64887D02*
X250400D01*
X250100Y64875D01*
X249825Y64863D01*
X249563Y64837D01*
X249325Y64800D01*
X249100Y64750D01*
X248900Y64700D01*
X248725Y64650D01*
X248563Y64587D01*
X248425Y64538D01*
X248300Y64487D01*
X248200Y64438D01*
X248113Y64388D01*
X248050Y64350D01*
X248000Y64325D01*
X247975Y64300D01*
X247962D01*
X247825Y64188D01*
X247700Y64062D01*
X247587Y63937D01*
X247500Y63800D01*
X247425Y63675D01*
X247362Y63550D01*
X247263Y63300D01*
X247200Y63087D01*
X247187Y62988D01*
X247175Y62912D01*
X247163Y62837D01*
Y62787D01*
Y62762D01*
Y62750D01*
X247175Y62575D01*
X247200Y62413D01*
X247237Y62250D01*
X247288Y62112D01*
X247412Y61850D01*
X247550Y61625D01*
X247700Y61450D01*
X247825Y61313D01*
X247875Y61275D01*
X247913Y61238D01*
X247937Y61225D01*
X247950Y61212D01*
X248113Y61112D01*
X248275Y61013D01*
X248662Y60862D01*
X249062Y60763D01*
X249450Y60688D01*
X249638Y60663D01*
X249813Y60637D01*
X249962Y60625D01*
X250100D01*
X250213Y60612D01*
X250362D01*
X250662Y60625D01*
X250950Y60637D01*
X251213Y60663D01*
X251450Y60712D01*
X251675Y60750D01*
X251887Y60800D01*
X252063Y60862D01*
X252225Y60913D01*
X252375Y60975D01*
X252500Y61025D01*
X252600Y61088D01*
X252688Y61125D01*
X252750Y61163D01*
X252800Y61200D01*
X252825Y61212D01*
X252837Y61225D01*
X252975Y61338D01*
X253100Y61462D01*
X253212Y61588D01*
X253300Y61712D01*
X253375Y61850D01*
X253437Y61975D01*
X253538Y62213D01*
X253600Y62425D01*
X253612Y62512D01*
X253625Y62600D01*
X253638Y62663D01*
Y62713D01*
Y62738D01*
Y62750D01*
X253625Y62912D01*
X253600Y63075D01*
X253562Y63225D01*
X253513Y63375D01*
X253387Y63638D01*
X253238Y63850D01*
X253087Y64038D01*
X253025Y64100D01*
X252962Y64162D01*
X252912Y64213D01*
X252875Y64250D01*
X252850Y64262D01*
X252837Y64275D01*
X252675Y64388D01*
X252500Y64475D01*
X252312Y64562D01*
X252113Y64625D01*
X251712Y64737D01*
X251312Y64812D01*
X251125Y64837D01*
X250962Y64850D01*
X250800Y64863D01*
X250662Y64875D01*
X250550Y64887D01*
D02*
G37*
G36*
X249675Y56238D02*
X247288D01*
Y55025D01*
Y54838D01*
Y54675D01*
X247300Y54513D01*
Y54387D01*
Y54263D01*
X247312Y54163D01*
Y54075D01*
X247325Y54000D01*
X247338Y53887D01*
X247350Y53812D01*
X247362Y53775D01*
Y53763D01*
X247412Y53650D01*
X247463Y53550D01*
X247525Y53475D01*
X247587Y53400D01*
X247650Y53350D01*
X247688Y53312D01*
X247725Y53288D01*
X247738Y53275D01*
X247850Y53212D01*
X247962Y53162D01*
X248088Y53137D01*
X248200Y53113D01*
X248300Y53100D01*
X248388Y53088D01*
X248463D01*
X248625Y53100D01*
X248775Y53113D01*
X248900Y53150D01*
X249012Y53175D01*
X249100Y53212D01*
X249163Y53250D01*
X249200Y53263D01*
X249213Y53275D01*
X249312Y53350D01*
X249388Y53425D01*
X249463Y53500D01*
X249513Y53575D01*
X249550Y53637D01*
X249575Y53688D01*
X249587Y53725D01*
Y53737D01*
X249600Y53800D01*
X249612Y53875D01*
X249625Y53962D01*
X249638Y54075D01*
X249650Y54287D01*
X249662Y54525D01*
X249675Y54738D01*
Y54838D01*
Y54913D01*
Y54988D01*
Y55037D01*
Y55075D01*
Y55088D01*
Y56238D01*
D02*
G37*
G36*
X253513Y48487D02*
X247288D01*
Y47787D01*
Y47613D01*
Y47462D01*
X247300Y47325D01*
Y47200D01*
X247312Y47075D01*
Y46975D01*
X247325Y46800D01*
X247350Y46675D01*
X247362Y46587D01*
X247375Y46538D01*
Y46525D01*
X247425Y46363D01*
X247500Y46225D01*
X247575Y46100D01*
X247650Y45987D01*
X247725Y45900D01*
X247775Y45838D01*
X247825Y45800D01*
X247837Y45788D01*
X247975Y45687D01*
X248125Y45588D01*
X248288Y45513D01*
X248438Y45450D01*
X248575Y45400D01*
X248688Y45362D01*
X248762Y45350D01*
X248775Y45338D01*
X248787D01*
X249025Y45287D01*
X249300Y45250D01*
X249575Y45225D01*
X249825Y45200D01*
X250062D01*
X250163Y45188D01*
X250787D01*
X251100Y45213D01*
X251388Y45237D01*
X251612Y45263D01*
X251800Y45287D01*
X251875Y45300D01*
X251938Y45312D01*
X251988Y45325D01*
X252025D01*
X252038Y45338D01*
X252050D01*
X252262Y45388D01*
X252450Y45450D01*
X252600Y45513D01*
X252725Y45562D01*
X252825Y45612D01*
X252900Y45650D01*
X252938Y45675D01*
X252950Y45687D01*
X253050Y45775D01*
X253137Y45862D01*
X253212Y45950D01*
X253275Y46038D01*
X253312Y46125D01*
X253350Y46175D01*
X253362Y46225D01*
X253375Y46237D01*
X253425Y46375D01*
X253450Y46550D01*
X253475Y46725D01*
X253500Y46913D01*
Y47075D01*
X253513Y47200D01*
Y47250D01*
Y47287D01*
Y47313D01*
Y47325D01*
Y48487D01*
D02*
G37*
G36*
X258531Y39008D02*
X258466D01*
X258336Y39003D01*
X258217Y38998D01*
X258103Y38987D01*
X258001Y38971D01*
X257903Y38949D01*
X257817Y38927D01*
X257741Y38906D01*
X257671Y38879D01*
X257611Y38857D01*
X257557Y38835D01*
X257514Y38814D01*
X257476Y38792D01*
X257449Y38776D01*
X257427Y38765D01*
X257416Y38754D01*
X257411D01*
X257351Y38705D01*
X257297Y38651D01*
X257249Y38597D01*
X257211Y38538D01*
X257178Y38484D01*
X257151Y38429D01*
X257108Y38321D01*
X257081Y38229D01*
X257076Y38186D01*
X257070Y38154D01*
X257065Y38121D01*
Y38100D01*
Y38089D01*
Y38083D01*
X257070Y38008D01*
X257081Y37937D01*
X257097Y37867D01*
X257119Y37807D01*
X257173Y37694D01*
X257232Y37596D01*
X257297Y37521D01*
X257351Y37461D01*
X257373Y37445D01*
X257389Y37429D01*
X257400Y37423D01*
X257405Y37418D01*
X257476Y37374D01*
X257546Y37331D01*
X257714Y37266D01*
X257887Y37223D01*
X258055Y37191D01*
X258136Y37180D01*
X258212Y37169D01*
X258277Y37163D01*
X258336D01*
X258385Y37158D01*
X258450D01*
X258579Y37163D01*
X258704Y37169D01*
X258818Y37180D01*
X258920Y37201D01*
X259018Y37218D01*
X259110Y37239D01*
X259185Y37266D01*
X259256Y37288D01*
X259321Y37315D01*
X259375Y37337D01*
X259418Y37364D01*
X259456Y37380D01*
X259483Y37396D01*
X259505Y37412D01*
X259515Y37418D01*
X259521Y37423D01*
X259580Y37472D01*
X259634Y37526D01*
X259683Y37580D01*
X259721Y37634D01*
X259753Y37694D01*
X259781Y37748D01*
X259824Y37851D01*
X259851Y37943D01*
X259856Y37980D01*
X259862Y38018D01*
X259867Y38045D01*
Y38067D01*
Y38078D01*
Y38083D01*
X259862Y38154D01*
X259851Y38224D01*
X259835Y38289D01*
X259813Y38354D01*
X259759Y38467D01*
X259694Y38559D01*
X259629Y38640D01*
X259602Y38668D01*
X259575Y38695D01*
X259553Y38716D01*
X259537Y38732D01*
X259526Y38738D01*
X259521Y38743D01*
X259451Y38792D01*
X259375Y38830D01*
X259294Y38868D01*
X259207Y38895D01*
X259034Y38943D01*
X258861Y38976D01*
X258780Y38987D01*
X258709Y38992D01*
X258639Y38998D01*
X258579Y39003D01*
X258531Y39008D01*
D02*
G37*
G36*
X258152Y35265D02*
X257119D01*
Y34740D01*
Y34659D01*
Y34588D01*
X257124Y34518D01*
Y34464D01*
Y34410D01*
X257130Y34367D01*
Y34329D01*
X257135Y34296D01*
X257140Y34247D01*
X257146Y34215D01*
X257151Y34199D01*
Y34193D01*
X257173Y34145D01*
X257194Y34102D01*
X257222Y34069D01*
X257249Y34036D01*
X257276Y34015D01*
X257292Y33999D01*
X257308Y33988D01*
X257313Y33983D01*
X257362Y33955D01*
X257411Y33934D01*
X257465Y33923D01*
X257514Y33912D01*
X257557Y33907D01*
X257595Y33901D01*
X257627D01*
X257698Y33907D01*
X257763Y33912D01*
X257817Y33928D01*
X257865Y33939D01*
X257903Y33955D01*
X257930Y33972D01*
X257946Y33977D01*
X257952Y33983D01*
X257995Y34015D01*
X258028Y34047D01*
X258060Y34080D01*
X258082Y34112D01*
X258098Y34139D01*
X258109Y34161D01*
X258114Y34177D01*
Y34183D01*
X258120Y34210D01*
X258125Y34242D01*
X258130Y34280D01*
X258136Y34329D01*
X258141Y34421D01*
X258147Y34523D01*
X258152Y34615D01*
Y34659D01*
Y34691D01*
Y34724D01*
Y34745D01*
Y34762D01*
Y34767D01*
Y35265D01*
D02*
G37*
G36*
X258531Y58917D02*
X258466D01*
X258336Y58912D01*
X258217Y58906D01*
X258103Y58895D01*
X258001Y58879D01*
X257903Y58858D01*
X257817Y58836D01*
X257741Y58814D01*
X257671Y58787D01*
X257611Y58766D01*
X257557Y58744D01*
X257514Y58722D01*
X257476Y58701D01*
X257449Y58684D01*
X257427Y58674D01*
X257416Y58663D01*
X257411D01*
X257351Y58614D01*
X257297Y58560D01*
X257249Y58506D01*
X257211Y58447D01*
X257178Y58392D01*
X257151Y58338D01*
X257108Y58230D01*
X257081Y58138D01*
X257076Y58095D01*
X257070Y58062D01*
X257065Y58030D01*
Y58008D01*
Y57997D01*
Y57992D01*
X257070Y57916D01*
X257081Y57846D01*
X257097Y57776D01*
X257119Y57716D01*
X257173Y57603D01*
X257232Y57505D01*
X257297Y57429D01*
X257351Y57370D01*
X257373Y57354D01*
X257389Y57337D01*
X257400Y57332D01*
X257405Y57327D01*
X257476Y57283D01*
X257546Y57240D01*
X257714Y57175D01*
X257887Y57132D01*
X258055Y57099D01*
X258136Y57089D01*
X258212Y57078D01*
X258277Y57072D01*
X258336D01*
X258385Y57067D01*
X258450D01*
X258579Y57072D01*
X258704Y57078D01*
X258818Y57089D01*
X258920Y57110D01*
X259018Y57126D01*
X259110Y57148D01*
X259185Y57175D01*
X259256Y57197D01*
X259321Y57224D01*
X259375Y57245D01*
X259418Y57272D01*
X259456Y57289D01*
X259483Y57305D01*
X259505Y57321D01*
X259515Y57327D01*
X259521Y57332D01*
X259580Y57381D01*
X259634Y57435D01*
X259683Y57489D01*
X259721Y57543D01*
X259753Y57603D01*
X259781Y57657D01*
X259824Y57759D01*
X259851Y57851D01*
X259856Y57889D01*
X259862Y57927D01*
X259867Y57954D01*
Y57976D01*
Y57987D01*
Y57992D01*
X259862Y58062D01*
X259851Y58133D01*
X259835Y58198D01*
X259813Y58262D01*
X259759Y58376D01*
X259694Y58468D01*
X259629Y58549D01*
X259602Y58576D01*
X259575Y58603D01*
X259553Y58625D01*
X259537Y58641D01*
X259526Y58647D01*
X259521Y58652D01*
X259451Y58701D01*
X259375Y58739D01*
X259294Y58776D01*
X259207Y58803D01*
X259034Y58852D01*
X258861Y58885D01*
X258780Y58895D01*
X258709Y58901D01*
X258639Y58906D01*
X258579Y58912D01*
X258531Y58917D01*
D02*
G37*
G36*
X259813Y51819D02*
X257119D01*
Y51516D01*
Y51441D01*
Y51376D01*
X257124Y51316D01*
Y51262D01*
X257130Y51208D01*
Y51165D01*
X257135Y51089D01*
X257146Y51035D01*
X257151Y50997D01*
X257157Y50975D01*
Y50970D01*
X257178Y50899D01*
X257211Y50840D01*
X257243Y50786D01*
X257276Y50737D01*
X257308Y50699D01*
X257330Y50672D01*
X257351Y50656D01*
X257357Y50651D01*
X257416Y50607D01*
X257481Y50564D01*
X257552Y50532D01*
X257616Y50505D01*
X257676Y50483D01*
X257725Y50467D01*
X257757Y50461D01*
X257763Y50456D01*
X257768D01*
X257871Y50434D01*
X257990Y50418D01*
X258109Y50407D01*
X258217Y50396D01*
X258320D01*
X258363Y50391D01*
X258634D01*
X258769Y50402D01*
X258893Y50413D01*
X258991Y50423D01*
X259072Y50434D01*
X259104Y50440D01*
X259131Y50445D01*
X259153Y50450D01*
X259169D01*
X259174Y50456D01*
X259180D01*
X259272Y50477D01*
X259353Y50505D01*
X259418Y50532D01*
X259472Y50553D01*
X259515Y50575D01*
X259548Y50591D01*
X259564Y50602D01*
X259570Y50607D01*
X259613Y50645D01*
X259651Y50683D01*
X259683Y50721D01*
X259710Y50759D01*
X259726Y50797D01*
X259743Y50818D01*
X259748Y50840D01*
X259753Y50845D01*
X259775Y50905D01*
X259786Y50981D01*
X259797Y51056D01*
X259807Y51138D01*
Y51208D01*
X259813Y51262D01*
Y51284D01*
Y51300D01*
Y51311D01*
Y51316D01*
Y51819D01*
D02*
G37*
G36*
X263152Y70467D02*
X262119D01*
Y69942D01*
Y69861D01*
Y69791D01*
X262124Y69721D01*
Y69667D01*
Y69612D01*
X262130Y69569D01*
Y69531D01*
X262135Y69499D01*
X262140Y69450D01*
X262146Y69418D01*
X262151Y69402D01*
Y69396D01*
X262173Y69347D01*
X262194Y69304D01*
X262222Y69272D01*
X262249Y69239D01*
X262276Y69218D01*
X262292Y69201D01*
X262308Y69191D01*
X262314Y69185D01*
X262362Y69158D01*
X262411Y69136D01*
X262465Y69126D01*
X262514Y69115D01*
X262557Y69109D01*
X262595Y69104D01*
X262627D01*
X262698Y69109D01*
X262762Y69115D01*
X262817Y69131D01*
X262865Y69142D01*
X262903Y69158D01*
X262930Y69174D01*
X262947Y69180D01*
X262952Y69185D01*
X262995Y69218D01*
X263028Y69250D01*
X263060Y69283D01*
X263082Y69315D01*
X263098Y69342D01*
X263109Y69364D01*
X263114Y69380D01*
Y69385D01*
X263120Y69412D01*
X263125Y69445D01*
X263130Y69483D01*
X263136Y69531D01*
X263141Y69623D01*
X263147Y69726D01*
X263152Y69818D01*
Y69861D01*
Y69894D01*
Y69926D01*
Y69948D01*
Y69964D01*
Y69970D01*
Y70467D01*
D02*
G37*
G36*
X262562Y56618D02*
X262525D01*
X262443Y56612D01*
X262373Y56601D01*
X262314Y56585D01*
X262259Y56564D01*
X262222Y56542D01*
X262189Y56526D01*
X262173Y56515D01*
X262167Y56510D01*
X262124Y56466D01*
X262092Y56418D01*
X262070Y56369D01*
X262054Y56320D01*
X262043Y56282D01*
X262038Y56244D01*
Y56223D01*
Y56217D01*
X262043Y56158D01*
X262059Y56104D01*
X262081Y56055D01*
X262103Y56012D01*
X262124Y55979D01*
X262146Y55958D01*
X262162Y55941D01*
X262167Y55936D01*
X262216Y55898D01*
X262276Y55871D01*
X262335Y55849D01*
X262395Y55839D01*
X262443Y55828D01*
X262487Y55822D01*
X262525D01*
X262606Y55828D01*
X262681Y55839D01*
X262746Y55860D01*
X262795Y55876D01*
X262833Y55898D01*
X262865Y55920D01*
X262882Y55931D01*
X262887Y55936D01*
X262930Y55979D01*
X262957Y56028D01*
X262979Y56077D01*
X262995Y56125D01*
X263006Y56163D01*
X263011Y56196D01*
Y56223D01*
Y56228D01*
X263006Y56288D01*
X262990Y56342D01*
X262973Y56390D01*
X262947Y56434D01*
X262925Y56466D01*
X262909Y56488D01*
X262892Y56504D01*
X262887Y56510D01*
X262833Y56547D01*
X262779Y56574D01*
X262719Y56591D01*
X262660Y56601D01*
X262606Y56612D01*
X262562Y56618D01*
D02*
G37*
G36*
X264321Y56677D02*
X264266D01*
X264164Y56672D01*
X264072Y56656D01*
X263996Y56634D01*
X263931Y56612D01*
X263882Y56591D01*
X263844Y56569D01*
X263818Y56553D01*
X263812Y56547D01*
X263753Y56493D01*
X263709Y56439D01*
X263682Y56385D01*
X263661Y56331D01*
X263650Y56288D01*
X263639Y56250D01*
Y56228D01*
Y56217D01*
X263644Y56147D01*
X263666Y56082D01*
X263693Y56023D01*
X263725Y55974D01*
X263758Y55936D01*
X263785Y55904D01*
X263807Y55887D01*
X263812Y55882D01*
X263882Y55839D01*
X263953Y55806D01*
X264029Y55779D01*
X264104Y55763D01*
X264169Y55752D01*
X264223Y55747D01*
X264272D01*
X264391Y55752D01*
X264494Y55768D01*
X264580Y55790D01*
X264651Y55812D01*
X264705Y55839D01*
X264743Y55860D01*
X264770Y55876D01*
X264775Y55882D01*
X264829Y55931D01*
X264872Y55985D01*
X264899Y56039D01*
X264921Y56093D01*
X264932Y56136D01*
X264937Y56174D01*
X264943Y56196D01*
Y56207D01*
X264937Y56277D01*
X264916Y56342D01*
X264889Y56396D01*
X264856Y56445D01*
X264824Y56488D01*
X264797Y56515D01*
X264775Y56537D01*
X264770Y56542D01*
X264694Y56585D01*
X264618Y56618D01*
X264532Y56645D01*
X264451Y56661D01*
X264380Y56672D01*
X264321Y56677D01*
D02*
G37*
G36*
X262562Y59209D02*
X262525D01*
X262443Y59204D01*
X262373Y59193D01*
X262314Y59177D01*
X262259Y59155D01*
X262222Y59133D01*
X262189Y59117D01*
X262173Y59106D01*
X262167Y59101D01*
X262124Y59058D01*
X262092Y59009D01*
X262070Y58960D01*
X262054Y58912D01*
X262043Y58874D01*
X262038Y58836D01*
Y58814D01*
Y58809D01*
X262043Y58749D01*
X262059Y58695D01*
X262081Y58646D01*
X262103Y58603D01*
X262124Y58571D01*
X262146Y58549D01*
X262162Y58533D01*
X262167Y58527D01*
X262216Y58490D01*
X262276Y58463D01*
X262335Y58441D01*
X262395Y58430D01*
X262443Y58419D01*
X262487Y58414D01*
X262525D01*
X262606Y58419D01*
X262681Y58430D01*
X262746Y58452D01*
X262795Y58468D01*
X262833Y58490D01*
X262865Y58511D01*
X262882Y58522D01*
X262887Y58527D01*
X262930Y58571D01*
X262957Y58619D01*
X262979Y58668D01*
X262995Y58717D01*
X263006Y58755D01*
X263011Y58787D01*
Y58814D01*
Y58820D01*
X263006Y58879D01*
X262990Y58933D01*
X262973Y58982D01*
X262947Y59025D01*
X262925Y59058D01*
X262909Y59079D01*
X262892Y59096D01*
X262887Y59101D01*
X262833Y59139D01*
X262779Y59166D01*
X262719Y59182D01*
X262660Y59193D01*
X262606Y59204D01*
X262562Y59209D01*
D02*
G37*
G36*
X264321Y59269D02*
X264266D01*
X264164Y59263D01*
X264072Y59247D01*
X263996Y59225D01*
X263931Y59204D01*
X263882Y59182D01*
X263844Y59160D01*
X263818Y59144D01*
X263812Y59139D01*
X263753Y59085D01*
X263709Y59030D01*
X263682Y58976D01*
X263661Y58922D01*
X263650Y58879D01*
X263639Y58841D01*
Y58820D01*
Y58809D01*
X263644Y58738D01*
X263666Y58674D01*
X263693Y58614D01*
X263725Y58565D01*
X263758Y58527D01*
X263785Y58495D01*
X263807Y58479D01*
X263812Y58473D01*
X263882Y58430D01*
X263953Y58398D01*
X264029Y58371D01*
X264104Y58354D01*
X264169Y58343D01*
X264223Y58338D01*
X264272D01*
X264391Y58343D01*
X264494Y58360D01*
X264580Y58381D01*
X264651Y58403D01*
X264705Y58430D01*
X264743Y58452D01*
X264770Y58468D01*
X264775Y58473D01*
X264829Y58522D01*
X264872Y58576D01*
X264899Y58630D01*
X264921Y58684D01*
X264932Y58728D01*
X264937Y58765D01*
X264943Y58787D01*
Y58798D01*
X264937Y58868D01*
X264916Y58933D01*
X264889Y58987D01*
X264856Y59036D01*
X264824Y59079D01*
X264797Y59106D01*
X264775Y59128D01*
X264770Y59133D01*
X264694Y59177D01*
X264618Y59209D01*
X264532Y59236D01*
X264451Y59252D01*
X264380Y59263D01*
X264321Y59269D01*
D02*
G37*
%LPD*%
D63*
X273800Y5799D02*
X273300Y6299D01*
X272301D01*
X271801Y5799D01*
Y3800D01*
X272301Y3300D01*
X273300D01*
X273800Y3800D01*
Y5799D01*
X270801D02*
X270301Y6299D01*
X269302D01*
X268802Y5799D01*
Y3800D01*
X269302Y3300D01*
X270301D01*
X270801Y3800D01*
Y5799D01*
X267802D02*
X267302Y6299D01*
X266302D01*
X265803Y5799D01*
Y3800D01*
X266302Y3300D01*
X267302D01*
X267802Y3800D01*
Y5799D01*
X263303Y3300D02*
Y6299D01*
X264803Y4800D01*
X262804D01*
X261804Y3300D02*
Y5299D01*
X260804Y6299D01*
X259805Y5299D01*
Y3300D01*
Y4800D01*
X261804D01*
X258805Y3300D02*
Y6299D01*
X256805Y3300D01*
Y6299D01*
X254306D02*
X255306D01*
X255806Y5799D01*
Y3800D01*
X255306Y3300D01*
X254306D01*
X253806Y3800D01*
Y5799D01*
X254306Y6299D01*
X252807D02*
Y3300D01*
X250807D01*
D93*
X244200Y112600D02*
Y118100D01*
X248800Y126300D02*
Y132900D01*
X249700Y126700D02*
Y127100D01*
X249800Y126700D02*
Y128500D01*
X249900Y126700D02*
Y129600D01*
X250000Y126800D02*
Y130700D01*
X250100Y126800D02*
Y131600D01*
X250200Y126900D02*
Y132500D01*
X250300Y126900D02*
Y133300D01*
X250400Y126900D02*
Y133900D01*
X251500Y127400D02*
Y128600D01*
X251600Y127400D02*
Y129900D01*
X251700Y127500D02*
Y131000D01*
X251800Y127500D02*
Y131900D01*
X251900Y127600D02*
Y132800D01*
X252000Y127600D02*
Y133500D01*
X253000Y126300D02*
Y127400D01*
X253100Y126300D02*
Y127400D01*
X253200Y126300D02*
Y127400D01*
X253300Y128100D02*
Y133700D01*
Y126400D02*
Y127500D01*
X253400Y128200D02*
Y133000D01*
X253500Y128200D02*
Y132200D01*
X253600Y128300D02*
Y131300D01*
X253700Y128300D02*
Y130300D01*
X253800Y128300D02*
Y129100D01*
X254400Y126800D02*
Y128000D01*
X254500Y126800D02*
Y128000D01*
X248000Y121000D02*
Y124000D01*
X248100Y121000D02*
Y124000D01*
X248200Y121000D02*
Y123900D01*
X248300Y121000D02*
Y123900D01*
X248400Y121000D02*
Y123800D01*
X248500Y121000D02*
Y123800D01*
X248600Y124300D02*
Y125700D01*
Y121000D02*
Y123800D01*
Y118300D02*
Y120500D01*
X248700Y124300D02*
Y125700D01*
Y121000D02*
Y123700D01*
Y118300D02*
Y120500D01*
X248800Y124300D02*
Y125700D01*
Y121000D02*
Y123700D01*
Y118300D02*
Y120500D01*
X248900Y124200D02*
Y125800D01*
Y118300D02*
Y120500D01*
X249000Y124200D02*
Y125800D01*
Y118300D02*
Y120500D01*
X249100Y124100D02*
Y125800D01*
Y118300D02*
Y120500D01*
X249200Y124100D02*
Y125900D01*
Y118300D02*
Y120500D01*
X249300Y124100D02*
Y125900D01*
Y118300D02*
Y120500D01*
X249400Y124000D02*
Y125900D01*
Y118300D02*
Y120500D01*
X249500Y124000D02*
Y126000D01*
Y121000D02*
Y123300D01*
Y118300D02*
Y120500D01*
X249600Y123900D02*
Y126000D01*
Y121000D02*
Y123400D01*
Y118300D02*
Y120500D01*
X249700Y123900D02*
Y126100D01*
Y121000D02*
Y123300D01*
Y118300D02*
Y120500D01*
X249800Y123900D02*
Y126100D01*
Y121000D02*
Y123300D01*
Y118300D02*
Y120500D01*
X249900Y123800D02*
Y126100D01*
Y121000D02*
Y123300D01*
Y118300D02*
Y120500D01*
X250000Y121000D02*
Y123200D01*
Y118300D02*
Y120500D01*
X250100Y121000D02*
Y123200D01*
Y118300D02*
Y120500D01*
X250200Y121000D02*
Y123100D01*
Y118300D02*
Y120500D01*
X250300Y121000D02*
Y123100D01*
Y118300D02*
Y120500D01*
X250400Y121000D02*
Y123100D01*
Y118300D02*
Y120500D01*
X250500Y121000D02*
Y123000D01*
Y118300D02*
Y120500D01*
X250600Y118300D02*
Y120500D01*
X250700Y118300D02*
Y120500D01*
X250800Y118300D02*
Y120500D01*
X250900Y118300D02*
Y120500D01*
X251000Y118300D02*
Y120500D01*
X251100Y118300D02*
Y120500D01*
X251200Y121000D02*
Y122700D01*
Y118300D02*
Y120500D01*
X251300Y121000D02*
Y122700D01*
Y118300D02*
Y120500D01*
X251400Y123300D02*
Y125500D01*
Y121000D02*
Y122700D01*
Y118300D02*
Y120500D01*
X251500Y123200D02*
Y125500D01*
Y121000D02*
Y122600D01*
Y118300D02*
Y120500D01*
X251600Y123200D02*
Y125500D01*
Y121000D02*
Y122600D01*
Y118300D02*
Y120500D01*
X251700Y123100D02*
Y125400D01*
Y121000D02*
Y122600D01*
Y118300D02*
Y120500D01*
X251800Y123100D02*
Y125400D01*
Y121000D02*
Y122500D01*
Y118300D02*
Y120500D01*
X251900Y123100D02*
Y125300D01*
Y121000D02*
Y122500D01*
Y118300D02*
Y120500D01*
X252000Y123000D02*
Y125300D01*
Y121000D02*
Y122400D01*
X252100Y123000D02*
Y125300D01*
Y121000D02*
Y122400D01*
X252200Y123000D02*
Y125200D01*
Y121000D02*
Y122400D01*
X252300Y122900D02*
Y125200D01*
Y121000D02*
Y122300D01*
X252400Y122900D02*
Y125100D01*
X252500Y122800D02*
Y125100D01*
X252600Y122800D02*
Y125100D01*
X252700Y122800D02*
Y125000D01*
X252800Y122700D02*
Y125000D01*
X252900Y122700D02*
Y124900D01*
X253000Y122700D02*
Y124900D01*
Y121000D02*
Y122000D01*
X253100Y122600D02*
Y124900D01*
Y121000D02*
Y122000D01*
X253200Y122600D02*
Y124800D01*
Y121000D02*
Y122000D01*
X253300Y122500D02*
Y124800D01*
Y121000D02*
Y121900D01*
X253400Y121000D02*
Y121900D01*
X253500Y121000D02*
Y121900D01*
X253600Y121000D02*
Y121800D01*
X253700Y121000D02*
Y121800D01*
X253800Y121000D02*
Y121700D01*
X253900Y121000D02*
Y121700D01*
X254000Y121000D02*
Y121700D01*
X254100Y121000D02*
Y121600D01*
X254400Y122100D02*
Y124400D01*
X254500Y122100D02*
Y124400D01*
X247600Y112700D02*
Y117700D01*
X248100Y115700D02*
Y117800D01*
Y112300D02*
Y113100D01*
X248200Y115800D02*
Y117800D01*
Y112300D02*
Y113100D01*
X248300Y115900D02*
Y117800D01*
Y112300D02*
Y113100D01*
X248400Y116000D02*
Y117800D01*
Y112300D02*
Y113100D01*
X248500Y116100D02*
Y117800D01*
Y112300D02*
Y113200D01*
X248600Y116100D02*
Y117800D01*
Y113700D02*
Y115500D01*
Y112400D02*
Y113200D01*
X248700Y116200D02*
Y117800D01*
Y113800D02*
Y115600D01*
Y112400D02*
Y113200D01*
X248800Y116300D02*
Y117800D01*
Y113900D02*
Y115600D01*
Y112400D02*
Y113200D01*
X248900Y114000D02*
Y115700D01*
X249000Y114100D02*
Y115800D01*
X249100Y114200D02*
Y115900D01*
X249200Y114300D02*
Y116000D01*
X249300Y114400D02*
Y116000D01*
X249400Y116800D02*
Y117800D01*
Y114400D02*
Y116100D01*
Y112500D02*
Y113700D01*
X249500Y116900D02*
Y117800D01*
Y114500D02*
Y116200D01*
Y112500D02*
Y113800D01*
X249600Y117000D02*
Y117800D01*
Y114600D02*
Y116300D01*
Y112500D02*
Y113900D01*
X249700Y117100D02*
Y117800D01*
Y114700D02*
Y116400D01*
Y112500D02*
Y114000D01*
X249800Y117200D02*
Y117800D01*
Y114800D02*
Y116400D01*
Y112500D02*
Y114100D01*
X249900Y117200D02*
Y117800D01*
Y114900D02*
Y116500D01*
Y112500D02*
Y114200D01*
X250000Y117300D02*
Y117800D01*
Y115000D02*
Y116600D01*
Y112500D02*
Y114300D01*
X250100Y117400D02*
Y117800D01*
Y115100D02*
Y116700D01*
Y112600D02*
Y114300D01*
X250200Y117500D02*
Y117800D01*
Y115200D02*
Y116800D01*
Y112600D02*
Y114400D01*
X250300Y117600D02*
Y117800D01*
Y115300D02*
Y116900D01*
Y112600D02*
Y114500D01*
X250400Y115400D02*
Y116900D01*
Y112600D02*
Y114600D01*
X250500Y115500D02*
Y117000D01*
Y112600D02*
Y114700D01*
X250600Y115600D02*
Y117100D01*
X250700Y115700D02*
Y117200D01*
X250800Y115800D02*
Y117300D01*
X250900Y115900D02*
Y117400D01*
X251000Y115900D02*
Y117500D01*
X251100Y116000D02*
Y117600D01*
Y112700D02*
Y115300D01*
X251200Y116100D02*
Y117600D01*
Y112700D02*
Y115400D01*
X251300Y116200D02*
Y117700D01*
Y112700D02*
Y115500D01*
X251400Y116300D02*
Y117800D01*
Y112700D02*
Y115600D01*
X251500Y116400D02*
Y117900D01*
Y112700D02*
Y115700D01*
X251600Y116500D02*
Y118000D01*
Y112800D02*
Y115800D01*
X251700Y116600D02*
Y118100D01*
Y112800D02*
Y115800D01*
X251800Y112800D02*
Y115900D01*
Y111200D02*
Y112300D01*
X251900Y112800D02*
Y116000D01*
Y111300D02*
Y112300D01*
X252000Y112800D02*
Y116100D01*
Y111300D02*
Y112300D01*
X252100Y112800D02*
Y116100D01*
Y111300D02*
Y112300D01*
X252200Y112800D02*
Y116000D01*
Y111300D02*
Y112400D01*
X252300Y112900D02*
Y115900D01*
Y111300D02*
Y112400D01*
X252400Y111300D02*
Y112400D01*
X252500Y111300D02*
Y112400D01*
X252600Y111300D02*
Y112400D01*
X252700Y111300D02*
Y112400D01*
X252800Y111300D02*
Y112400D01*
X252900Y111300D02*
Y112400D01*
X253000Y113000D02*
Y115400D01*
Y111400D02*
Y112500D01*
X253100Y113000D02*
Y115300D01*
Y111400D02*
Y112500D01*
X253200Y113000D02*
Y115300D01*
Y111400D02*
Y112500D01*
X253300Y113000D02*
Y115200D01*
Y111400D02*
Y112500D01*
X253400Y113000D02*
Y115100D01*
Y111400D02*
Y112500D01*
X253500Y113000D02*
Y115000D01*
Y111400D02*
Y112500D01*
X253600Y113000D02*
Y115000D01*
Y111400D02*
Y112500D01*
X253700Y115600D02*
Y118100D01*
Y113100D02*
Y114900D01*
Y111400D02*
Y112600D01*
X253800Y115500D02*
Y118100D01*
Y113100D02*
Y114800D01*
Y111400D02*
Y112600D01*
X253900Y115400D02*
Y118000D01*
Y113100D02*
Y114700D01*
Y111400D02*
Y112600D01*
X254000Y115300D02*
Y117900D01*
Y113100D02*
Y114700D01*
Y111400D02*
Y112600D01*
Y110700D02*
Y110900D01*
X254100Y115300D02*
Y117900D01*
Y113100D02*
Y114600D01*
Y111500D02*
Y112600D01*
Y110700D02*
Y110900D01*
X254200Y115200D02*
Y117800D01*
Y113100D02*
Y114500D01*
Y111500D02*
Y112600D01*
Y110700D02*
Y110900D01*
X254300Y115100D02*
Y117700D01*
Y111500D02*
Y112600D01*
X254400Y115000D02*
Y117700D01*
Y111500D02*
Y112700D01*
X254500Y115000D02*
Y117600D01*
Y111500D02*
Y112700D01*
X248100Y106300D02*
Y109800D01*
Y102800D02*
Y103800D01*
X248200Y106300D02*
Y109800D01*
X248300Y106400D02*
Y109700D01*
X248400Y106400D02*
Y109700D01*
X248500Y106500D02*
Y109600D01*
X248600Y106500D02*
Y109600D01*
Y104300D02*
Y105900D01*
X248700Y106600D02*
Y109600D01*
Y104300D02*
Y106000D01*
X248800Y106600D02*
Y109500D01*
Y104300D02*
Y106000D01*
X248900Y104300D02*
Y106100D01*
X249000Y104300D02*
Y106100D01*
X249100Y104200D02*
Y106200D01*
X249200Y104200D02*
Y106200D01*
X249300Y104200D02*
Y106200D01*
X249400Y104200D02*
Y106300D01*
X249500Y107200D02*
Y109200D01*
Y104200D02*
Y106300D01*
X249600Y106900D02*
Y109200D01*
Y104200D02*
Y106400D01*
X249700Y107000D02*
Y109200D01*
Y104200D02*
Y106400D01*
Y103500D02*
Y103600D01*
X249800Y107000D02*
Y109100D01*
Y104200D02*
Y106500D01*
X249900Y107100D02*
Y109100D01*
Y104100D02*
Y106500D01*
X250000Y107100D02*
Y109000D01*
Y104100D02*
Y106600D01*
X250100Y107200D02*
Y109000D01*
Y104100D02*
Y106600D01*
X250200Y107200D02*
Y109000D01*
Y104100D02*
Y106600D01*
X250300Y107200D02*
Y108900D01*
Y104100D02*
Y106700D01*
X250400Y107300D02*
Y108900D01*
Y104100D02*
Y106700D01*
X250500Y107300D02*
Y108800D01*
Y104100D02*
Y106800D01*
X250600Y104100D02*
Y106800D01*
X250700Y104000D02*
Y106900D01*
X250800Y104000D02*
Y106900D01*
X250900Y104000D02*
Y107000D01*
X251000Y104000D02*
Y107000D01*
X251100Y104000D02*
Y107000D01*
X251200Y107600D02*
Y108500D01*
Y104000D02*
Y107100D01*
X251300Y107700D02*
Y108500D01*
Y104000D02*
Y107100D01*
X251400Y107700D02*
Y108500D01*
Y104000D02*
Y107200D01*
Y103100D02*
Y103400D01*
X251500Y107700D02*
Y108400D01*
Y103900D02*
Y107200D01*
X251600Y107800D02*
Y108400D01*
Y103900D02*
Y107300D01*
X251700Y107800D02*
Y108300D01*
Y103900D02*
Y107300D01*
X251800Y107900D02*
Y108300D01*
Y106100D02*
Y107400D01*
Y103900D02*
Y106000D01*
X251900Y107900D02*
Y108300D01*
Y106100D02*
Y107400D01*
Y103900D02*
Y105900D01*
X252000Y108000D02*
Y108200D01*
Y106100D02*
Y107400D01*
Y103900D02*
Y105900D01*
X252100Y108000D02*
Y108200D01*
Y106200D02*
Y107500D01*
Y103900D02*
Y105900D01*
X252200Y106200D02*
Y107500D01*
Y103900D02*
Y105900D01*
X252300Y106300D02*
Y107600D01*
Y103800D02*
Y105900D01*
X252400Y106300D02*
Y107600D01*
Y103800D02*
Y105900D01*
X252500Y106400D02*
Y107700D01*
Y103800D02*
Y105900D01*
X252600Y106400D02*
Y107700D01*
Y103800D02*
Y105900D01*
X252700Y106500D02*
Y107700D01*
Y103800D02*
Y105900D01*
X252800Y106500D02*
Y107800D01*
Y103800D02*
Y105900D01*
X252900Y106600D02*
Y107800D01*
Y103800D02*
Y105800D01*
X253000Y106600D02*
Y107900D01*
Y103800D02*
Y105800D01*
X253100Y106600D02*
Y107900D01*
Y103700D02*
Y105800D01*
X253200Y106700D02*
Y108000D01*
Y103700D02*
Y105800D01*
X253300Y106700D02*
Y108000D01*
Y103700D02*
Y105800D01*
X253400Y106800D02*
Y108100D01*
Y103700D02*
Y105800D01*
X253500Y106800D02*
Y108100D01*
Y103700D02*
Y105800D01*
X253600Y106900D02*
Y108100D01*
Y103700D02*
Y105800D01*
X253700Y103700D02*
Y105800D01*
X253800Y103700D02*
Y105800D01*
X253900Y106300D02*
Y106400D01*
Y103600D02*
Y105800D01*
Y102600D02*
Y103000D01*
X254000Y106300D02*
Y106500D01*
Y103600D02*
Y105700D01*
X254100Y103600D02*
Y105700D01*
X254200Y107100D02*
Y110100D01*
Y103600D02*
Y105700D01*
X254300Y107200D02*
Y110100D01*
Y103600D02*
Y105700D01*
X254400Y107200D02*
Y110100D01*
Y103600D02*
Y105700D01*
X254500Y107300D02*
Y110000D01*
Y103600D02*
Y105700D01*
X254700Y126900D02*
Y128100D01*
X254800Y126900D02*
Y128100D01*
X254900Y126900D02*
Y128200D01*
X255000Y128800D02*
Y133500D01*
Y127000D02*
Y128200D01*
X255100Y128900D02*
Y132700D01*
Y127000D02*
Y128300D01*
X255200Y128900D02*
Y131900D01*
Y127000D02*
Y128300D01*
X255300Y129000D02*
Y131000D01*
Y127000D02*
Y128400D01*
X255400Y129000D02*
Y130000D01*
Y127100D02*
Y128400D01*
X255500Y127100D02*
Y128400D01*
X255600Y127100D02*
Y128500D01*
X255700Y127200D02*
Y128500D01*
X255800Y127200D02*
Y128600D01*
X255900Y127200D02*
Y128600D01*
X256000Y127300D02*
Y128700D01*
X256100Y127300D02*
Y128700D01*
X256200Y127300D02*
Y128800D01*
X256300Y127400D02*
Y128800D01*
X256400Y127400D02*
Y128800D01*
X256500Y129500D02*
Y132900D01*
Y127400D02*
Y128900D01*
X256600Y129500D02*
Y132600D01*
Y127500D02*
Y128900D01*
X256700Y129500D02*
Y132000D01*
X256800Y129600D02*
Y131400D01*
X256900Y129600D02*
Y130700D01*
X257000Y129700D02*
Y129800D01*
X254700Y122000D02*
Y124300D01*
X254800Y122000D02*
Y124300D01*
Y121000D02*
Y121300D01*
X254900Y121900D02*
Y124300D01*
Y121000D02*
Y121300D01*
X255000Y121900D02*
Y124200D01*
Y121000D02*
Y121300D01*
X255100Y121900D02*
Y124200D01*
Y121000D02*
Y121200D01*
X255200Y121800D02*
Y124200D01*
Y121000D02*
Y121200D01*
X255300Y121800D02*
Y124100D01*
Y121000D02*
Y121200D01*
X255400Y121700D02*
Y124100D01*
Y121000D02*
Y121100D01*
X255500Y121700D02*
Y124100D01*
X255600Y121700D02*
Y124000D01*
X255700Y124500D02*
Y126000D01*
Y121600D02*
Y124000D01*
X255800Y121600D02*
Y124000D01*
X255900Y121600D02*
Y123900D01*
X256000Y121500D02*
Y123900D01*
X256100Y121500D02*
Y123900D01*
X256200Y121400D02*
Y123800D01*
X256300Y121400D02*
Y123800D01*
X256400Y121400D02*
Y123800D01*
X256500Y121300D02*
Y123700D01*
X256600Y121300D02*
Y123700D01*
X254700Y114800D02*
Y117500D01*
Y111500D02*
Y112700D01*
X254800Y114800D02*
Y117400D01*
Y113200D02*
Y114100D01*
Y111500D02*
Y112700D01*
Y110400D02*
Y110900D01*
X254900Y114700D02*
Y117300D01*
Y113200D02*
Y114000D01*
Y111500D02*
Y112700D01*
Y110400D02*
Y110900D01*
X255000Y114600D02*
Y117200D01*
Y113200D02*
Y113900D01*
Y111500D02*
Y112700D01*
Y110300D02*
Y111000D01*
X255100Y114500D02*
Y117200D01*
Y113200D02*
Y113900D01*
Y111600D02*
Y112800D01*
Y110300D02*
Y111000D01*
X255200Y114500D02*
Y117100D01*
Y113300D02*
Y113800D01*
Y111600D02*
Y112800D01*
Y110300D02*
Y111000D01*
X255300Y114400D02*
Y117000D01*
Y113300D02*
Y113700D01*
Y111600D02*
Y112800D01*
X255400Y117600D02*
Y117700D01*
Y114300D02*
Y117000D01*
Y113300D02*
Y113700D01*
Y111600D02*
Y112800D01*
X255500Y117500D02*
Y117700D01*
Y114200D02*
Y116900D01*
Y113300D02*
Y113600D01*
Y111600D02*
Y112800D01*
X255600Y117400D02*
Y117700D01*
Y114200D02*
Y116800D01*
Y113300D02*
Y113500D01*
Y111600D02*
Y112800D01*
X255700Y117400D02*
Y117700D01*
Y114100D02*
Y116800D01*
Y113300D02*
Y113400D01*
Y111600D02*
Y112800D01*
X255800Y117300D02*
Y117700D01*
Y114000D02*
Y116700D01*
Y111600D02*
Y112900D01*
X255900Y117200D02*
Y117700D01*
Y114000D02*
Y116600D01*
Y111600D02*
Y112900D01*
X256000Y113900D02*
Y116600D01*
Y111600D02*
Y112900D01*
X256100Y113800D02*
Y116500D01*
Y111600D02*
Y112900D01*
X256200Y113700D02*
Y116400D01*
Y111700D02*
Y112900D01*
X256300Y113700D02*
Y116400D01*
Y111700D02*
Y112900D01*
X256400Y113600D02*
Y116300D01*
Y111700D02*
Y112900D01*
X256500Y116800D02*
Y117700D01*
Y113600D02*
Y116200D01*
Y111700D02*
Y113000D01*
X256600Y116700D02*
Y117700D01*
Y113600D02*
Y116100D01*
Y111700D02*
Y113000D01*
X256700Y116700D02*
Y117700D01*
X256800Y116600D02*
Y117700D01*
X256900Y116500D02*
Y117700D01*
X257000Y116400D02*
Y117700D01*
X257100Y116400D02*
Y117700D01*
X261200Y113800D02*
Y116800D01*
X254700Y107400D02*
Y109900D01*
Y103500D02*
Y105700D01*
X254800Y107400D02*
Y109900D01*
Y106200D02*
Y106800D01*
Y103500D02*
Y105700D01*
X254900Y107500D02*
Y109900D01*
Y106200D02*
Y106900D01*
Y103500D02*
Y105700D01*
X255000Y107500D02*
Y109800D01*
Y106200D02*
Y106900D01*
Y103500D02*
Y105700D01*
X255100Y107600D02*
Y109800D01*
Y106200D02*
Y107000D01*
Y103500D02*
Y105600D01*
X255200Y107600D02*
Y109700D01*
Y106200D02*
Y107000D01*
Y103500D02*
Y105600D01*
X255300Y107700D02*
Y109700D01*
Y106200D02*
Y107100D01*
Y103500D02*
Y105600D01*
X255400Y107700D02*
Y109700D01*
Y106200D02*
Y107100D01*
Y103500D02*
Y105600D01*
X255500Y107700D02*
Y109600D01*
Y106200D02*
Y107200D01*
Y103400D02*
Y105600D01*
X255600Y107800D02*
Y109600D01*
Y106200D02*
Y107200D01*
Y103400D02*
Y105600D01*
X255700Y107800D02*
Y109500D01*
Y106200D02*
Y107300D01*
Y103400D02*
Y105600D01*
X255800Y107900D02*
Y109500D01*
Y106400D02*
Y107300D01*
Y103400D02*
Y105600D01*
X255900Y107900D02*
Y109400D01*
Y103400D02*
Y105600D01*
X256000Y108000D02*
Y109400D01*
Y103400D02*
Y105600D01*
X256100Y108000D02*
Y109400D01*
Y103400D02*
Y105600D01*
X256200Y108100D02*
Y109300D01*
Y103400D02*
Y105500D01*
X256300Y108100D02*
Y109300D01*
Y103300D02*
Y105500D01*
X256400Y108200D02*
Y109200D01*
Y103300D02*
Y105500D01*
X256500Y108200D02*
Y109200D01*
Y106100D02*
Y107600D01*
Y103300D02*
Y105500D01*
X256600Y106100D02*
Y107700D01*
Y103300D02*
Y105500D01*
X256700Y106100D02*
Y107700D01*
X256800Y106000D02*
Y107700D01*
X256900Y106000D02*
Y107800D01*
X257000Y106000D02*
Y107800D01*
X257100Y106000D02*
Y107900D01*
X257200Y102400D02*
Y102600D01*
X248000Y126000D02*
Y126500D01*
Y115600D02*
Y118600D01*
X248100Y126000D02*
Y127700D01*
X248200Y126000D02*
Y128700D01*
X248300Y126100D02*
Y129600D01*
X248400Y126100D02*
Y130400D01*
X248500Y126200D02*
Y131100D01*
X248600Y126200D02*
Y131800D01*
X248700Y126200D02*
Y132400D01*
X250000Y123800D02*
Y126200D01*
X250100Y123800D02*
Y126200D01*
X250200Y123700D02*
Y126300D01*
X250300Y123700D02*
Y126300D01*
X250400Y123600D02*
Y126300D01*
X250500Y127000D02*
Y134400D01*
Y123600D02*
Y126400D01*
X250600Y123600D02*
Y126400D01*
X250700Y123500D02*
Y126400D01*
X250800Y123500D02*
Y126500D01*
X250900Y123500D02*
Y126500D01*
X251000Y123400D02*
Y126600D01*
X251100Y123400D02*
Y126600D01*
X251200Y123300D02*
Y126600D01*
X251300Y123300D02*
Y126700D01*
X251400Y125600D02*
Y126700D01*
X251500Y125600D02*
Y126700D01*
X251600Y125700D02*
Y126800D01*
X251700Y125700D02*
Y126800D01*
X251800Y125800D02*
Y126900D01*
Y116700D02*
Y118200D01*
X251900Y125800D02*
Y126900D01*
Y116800D02*
Y118200D01*
X252000Y125800D02*
Y126900D01*
Y116800D02*
Y120500D01*
X252100Y127600D02*
Y134200D01*
Y125900D02*
Y127000D01*
Y116700D02*
Y120500D01*
X252200Y127700D02*
Y134700D01*
Y125900D02*
Y127000D01*
Y116700D02*
Y120500D01*
X252300Y127700D02*
Y134900D01*
Y126000D02*
Y127100D01*
Y116600D02*
Y120500D01*
X252400Y126000D02*
Y127100D01*
Y116500D02*
Y120500D01*
X252500Y126100D02*
Y127200D01*
Y116400D02*
Y120500D01*
X252600Y126100D02*
Y127200D01*
Y116400D02*
Y120500D01*
X252700Y126100D02*
Y127200D01*
Y116300D02*
Y120500D01*
X252800Y126200D02*
Y127300D01*
Y116200D02*
Y120500D01*
X252900Y126200D02*
Y127300D01*
Y116100D02*
Y120500D01*
X253000Y128000D02*
Y134900D01*
Y116100D02*
Y120500D01*
X253100Y128100D02*
Y134900D01*
Y116000D02*
Y120500D01*
X253200Y128100D02*
Y134400D01*
Y115900D02*
Y120500D01*
X253300Y115900D02*
Y120500D01*
X253400Y122500D02*
Y127500D01*
Y115800D02*
Y120500D01*
X253500Y122500D02*
Y127600D01*
Y115700D02*
Y120500D01*
X253600Y122400D02*
Y127600D01*
Y115600D02*
Y120500D01*
X253700Y122400D02*
Y127700D01*
Y118200D02*
Y120500D01*
X253800Y122300D02*
Y127700D01*
Y118200D02*
Y120500D01*
X253900Y122300D02*
Y127700D01*
Y118200D02*
Y120500D01*
X254000Y122300D02*
Y127800D01*
Y118200D02*
Y120500D01*
X254100Y122200D02*
Y127800D01*
Y118200D02*
Y120500D01*
X254200Y122200D02*
Y127900D01*
Y118200D02*
Y120500D01*
X254300Y122200D02*
Y127900D01*
Y118200D02*
Y120500D01*
X254400Y118200D02*
Y120500D01*
X254500Y118200D02*
Y120500D01*
X248000Y103900D02*
Y113100D01*
X248200Y101800D02*
Y103800D01*
X248300Y100900D02*
Y103800D01*
X248400Y100100D02*
Y103800D01*
X248500Y99400D02*
Y103800D01*
X248600Y110200D02*
Y111800D01*
Y98700D02*
Y103700D01*
X248700Y110200D02*
Y111900D01*
Y98100D02*
Y103700D01*
X248800Y110100D02*
Y111900D01*
Y97700D02*
Y103700D01*
X248900Y110100D02*
Y111900D01*
X249000Y110100D02*
Y111900D01*
X249100Y110000D02*
Y111900D01*
X249200Y110000D02*
Y111900D01*
X249300Y109900D02*
Y111900D01*
X249400Y109900D02*
Y112000D01*
X249500Y109900D02*
Y112000D01*
X249600Y109800D02*
Y112000D01*
X249700Y109800D02*
Y112000D01*
X249800Y109700D02*
Y112000D01*
Y102100D02*
Y103600D01*
X249900Y109700D02*
Y112000D01*
Y100900D02*
Y103600D01*
X250000Y109600D02*
Y112000D01*
Y99900D02*
Y103600D01*
X250100Y109600D02*
Y112100D01*
Y98900D02*
Y103500D01*
X250200Y109600D02*
Y112100D01*
Y98100D02*
Y103500D01*
X250300Y109500D02*
Y112100D01*
Y97300D02*
Y103500D01*
X250400Y109500D02*
Y112100D01*
Y96600D02*
Y103500D01*
X250500Y109400D02*
Y112100D01*
Y96100D02*
Y103500D01*
X250600Y109400D02*
Y112100D01*
X250700Y109400D02*
Y112100D01*
X250800Y109300D02*
Y112200D01*
X250900Y109300D02*
Y112200D01*
X251000Y109200D02*
Y112200D01*
X251100Y109200D02*
Y112200D01*
X251200Y109200D02*
Y112200D01*
X251300Y109100D02*
Y112200D01*
X251400Y109100D02*
Y112200D01*
X251500Y109000D02*
Y112300D01*
Y101700D02*
Y103400D01*
X251600Y109000D02*
Y112300D01*
Y100400D02*
Y103300D01*
X251700Y109000D02*
Y112300D01*
Y99300D02*
Y103300D01*
X251800Y108900D02*
Y111100D01*
Y98400D02*
Y103300D01*
X251900Y108900D02*
Y111100D01*
Y97600D02*
Y103300D01*
X252000Y108800D02*
Y111100D01*
Y96900D02*
Y103300D01*
X252100Y108800D02*
Y111000D01*
Y96300D02*
Y103300D01*
X252200Y108800D02*
Y111000D01*
Y95700D02*
Y103300D01*
X252300Y108700D02*
Y110900D01*
Y95600D02*
Y103200D01*
X252400Y108700D02*
Y110900D01*
X252500Y108600D02*
Y110900D01*
X252600Y108600D02*
Y110800D01*
X252700Y108600D02*
Y110800D01*
X252800Y108500D02*
Y110700D01*
X252900Y108500D02*
Y110700D01*
X253000Y108400D02*
Y110600D01*
Y95600D02*
Y103100D01*
X253100Y108400D02*
Y110600D01*
Y95600D02*
Y103100D01*
X253200Y108300D02*
Y110600D01*
Y96100D02*
Y103100D01*
X253300Y108300D02*
Y110500D01*
Y96700D02*
Y103100D01*
X253400Y108300D02*
Y110500D01*
Y97400D02*
Y103100D01*
X253500Y108200D02*
Y110400D01*
Y98100D02*
Y103100D01*
X253600Y108200D02*
Y110400D01*
Y99000D02*
Y103100D01*
X253700Y106900D02*
Y110400D01*
Y100000D02*
Y103100D01*
X253800Y107000D02*
Y110300D01*
Y101200D02*
Y103000D01*
X253900Y107000D02*
Y110300D01*
X254000Y107100D02*
Y110200D01*
X254100Y107100D02*
Y110200D01*
X254700Y118200D02*
Y120500D01*
X254800Y128800D02*
Y134400D01*
Y118200D02*
Y120500D01*
X254900Y128800D02*
Y134200D01*
Y124800D02*
Y126400D01*
Y118200D02*
Y120500D01*
X255000Y124800D02*
Y126400D01*
Y118200D02*
Y120500D01*
X255100Y124700D02*
Y126400D01*
Y118200D02*
Y120500D01*
X255200Y124700D02*
Y126500D01*
Y118200D02*
Y120500D01*
X255300Y124700D02*
Y126500D01*
Y118200D02*
Y120500D01*
X255400Y124600D02*
Y126500D01*
Y118200D02*
Y120500D01*
X255500Y124600D02*
Y126500D01*
Y118200D02*
Y120500D01*
X255600Y124600D02*
Y126600D01*
Y118200D02*
Y120500D01*
X255700Y118200D02*
Y120500D01*
X255800Y118200D02*
Y120500D01*
X255900Y118200D02*
Y120500D01*
X256000Y118200D02*
Y120500D01*
X256100Y118200D02*
Y120500D01*
X256200Y118200D02*
Y120500D01*
X256300Y118200D02*
Y120500D01*
X256400Y118200D02*
Y120500D01*
X256500Y124300D02*
Y126800D01*
Y118200D02*
Y120500D01*
X256600Y124200D02*
Y126800D01*
Y118200D02*
Y120500D01*
X256700Y124200D02*
Y126900D01*
X256800Y124200D02*
Y126900D01*
X256900Y124100D02*
Y126900D01*
X257000Y124100D02*
Y127000D01*
X257100Y124100D02*
Y127000D01*
X254800Y96100D02*
Y102900D01*
X254900Y96400D02*
Y102900D01*
X255000Y97100D02*
Y102900D01*
X255100Y97800D02*
Y102900D01*
X255200Y98600D02*
Y102900D01*
X255300Y110200D02*
Y111000D01*
Y99600D02*
Y102800D01*
X255400Y110200D02*
Y111000D01*
Y100600D02*
Y102800D01*
X255500Y110100D02*
Y111000D01*
Y101700D02*
Y102800D01*
X255600Y110100D02*
Y111000D01*
X255700Y110100D02*
Y111000D01*
X255800Y110000D02*
Y111000D01*
X255900Y110000D02*
Y111000D01*
X256500Y109700D02*
Y111100D01*
Y97700D02*
Y102700D01*
X256600Y109700D02*
Y111100D01*
Y98000D02*
Y102700D01*
X256700Y109600D02*
Y111100D01*
Y98500D02*
Y102700D01*
X256800Y109600D02*
Y111100D01*
Y99200D02*
Y102600D01*
X256900Y109600D02*
Y111100D01*
Y99800D02*
Y102600D01*
X257000Y109500D02*
Y111100D01*
Y100600D02*
Y102600D01*
X257100Y109500D02*
Y111100D01*
Y101500D02*
Y102600D01*
X244300Y111300D02*
Y119300D01*
X244400Y110400D02*
Y120200D01*
X244500Y109600D02*
Y121000D01*
X244600Y108900D02*
Y121700D01*
X244700Y108300D02*
Y122300D01*
X244800Y107700D02*
Y122900D01*
X244900Y107100D02*
Y123500D01*
X245000Y106600D02*
Y123900D01*
X245100Y106200D02*
Y124400D01*
X245200Y105700D02*
Y124900D01*
X245300Y105400D02*
Y125200D01*
X245900Y111900D02*
Y118700D01*
X246000Y109700D02*
Y120900D01*
X246100Y108100D02*
Y122500D01*
X246200Y106900D02*
Y123700D01*
X246300Y105800D02*
Y124800D01*
X246400Y104900D02*
Y125700D01*
X246500Y104000D02*
Y126600D01*
X246700Y102500D02*
Y128100D01*
X246800Y101800D02*
Y128800D01*
X246900Y101200D02*
Y129400D01*
X247000Y100600D02*
Y130000D01*
X247700Y108900D02*
Y121500D01*
X247800Y106800D02*
Y123600D01*
X247900Y105200D02*
Y125100D01*
X257200Y106000D02*
Y128000D01*
X257300Y103600D02*
Y126900D01*
X257400Y104800D02*
Y125700D01*
X257500Y106300D02*
Y124100D01*
X257600Y108200D02*
Y122200D01*
X257700Y111000D02*
Y119400D01*
X258400Y101000D02*
Y129600D01*
X258500Y101600D02*
Y129000D01*
X258600Y102200D02*
Y128400D01*
X258700Y102900D02*
Y127700D01*
X258800Y103700D02*
Y126900D01*
X258900Y104500D02*
Y126100D01*
X259000Y105500D02*
Y125100D01*
X259100Y106500D02*
Y124100D01*
X259200Y107700D02*
Y122900D01*
X259300Y109100D02*
Y121500D01*
X259400Y111100D02*
Y119500D01*
X260000Y105400D02*
Y125200D01*
X260100Y105700D02*
Y124900D01*
X260200Y106100D02*
Y124500D01*
X260300Y106600D02*
Y124000D01*
X260400Y107000D02*
Y123600D01*
X260500Y107600D02*
Y123000D01*
X260600Y108100D02*
Y122500D01*
X260700Y108800D02*
Y121800D01*
X260800Y109400D02*
Y121200D01*
X260900Y110200D02*
Y120400D01*
X261000Y111100D02*
Y119600D01*
X261100Y112100D02*
Y118500D01*
X247100Y100400D02*
Y130200D01*
X258200Y100400D02*
Y130200D01*
X258300Y100400D02*
Y130200D01*
X254600Y126800D02*
Y128100D01*
Y122000D02*
Y124400D01*
Y114900D02*
Y117500D01*
Y111500D02*
Y112700D01*
Y107300D02*
Y110000D01*
Y103600D02*
Y105700D01*
Y118200D02*
Y120500D01*
X246600Y103200D02*
Y127400D01*
M02*
